<?xml version="1.0" encoding="UTF-8"?>
<svg xmlns="http://www.w3.org/2000/svg" xmlns:xlink="http://www.w3.org/1999/xlink" viewBox="0 0 269.74 379.43">
  <defs>
    <style>
      .cls-1 {
        clip-path: url(#clippath-5);
      }

      .cls-1, .cls-2, .cls-3, .cls-4, .cls-5, .cls-6, .cls-7 {
        fill: none;
      }

      .cls-2 {
        clip-path: url(#clippath-3);
      }

      .cls-3 {
        clip-path: url(#clippath-4);
      }

      .cls-4 {
        clip-path: url(#clippath-2);
      }

      .cls-5 {
        clip-path: url(#clippath-1);
      }

      .cls-6 {
        isolation: isolate;
      }

      .cls-8 {
        fill: #e5332a;
      }

      .cls-9 {
        fill: #686868;
      }

      .cls-10 {
        fill: #daac4f;
      }

      .cls-11 {
        fill: #1c5788;
      }

      .cls-12 {
        fill: #fff;
        stroke: #a3a3a3;
        stroke-width: 2px;
      }

      .cls-12, .cls-13 {
        stroke-miterlimit: 10;
      }

      .cls-13 {
        fill: #f2f2f2;
        stroke: #686868;
        stroke-width: 4px;
      }

      .cls-7 {
        clip-path: url(#clippath);
      }

      .cls-14 {
        mix-blend-mode: multiply;
        opacity: .2;
      }
    </style>
    <clipPath id="clippath">
      <path class="cls-10" d="m236.6,45.95v4.75h2.27c.81,0,1.47.66,1.47,1.47,0,.55-.31,1.04-.76,1.29h.76c1.67,0,3.03,1.36,3.03,3.03,0,.03,0,.06,0,.09h3.16v2.94h-24.26v-2.94h3.1s0-.06,0-.09c0-1.67,1.36-3.03,3.03-3.03h.76c-.45-.25-.76-.73-.76-1.29,0-.81.66-1.47,1.47-1.47h2.33v-4.77"/>
    </clipPath>
    <clipPath id="clippath-1">
      <path class="cls-8" d="m236.6,45.95c4.87-1.02,8.54-5.3,8.62-10.46v-2.16s0,0,0,0h.63c1.22,0,2.21-.99,2.21-2.21s-.99-2.21-2.21-2.21h-2.27l-7.72-10.66c.49-.4.81-1.02.81-1.7,0-1.22-.99-2.21-2.21-2.21s-2.21.99-2.21,2.21c0,.68.31,1.29.79,1.69l-7.71,10.67h-2.45c-1.22,0-2.21.99-2.21,2.21s.99,2.21,2.21,2.21h.63s0,2.05,0,2.05c.09,5.16,3.79,9.58,8.68,10.58"/>
    </clipPath>
    <clipPath id="clippath-2">
      <path class="cls-10" d="m145.08,228.49v19.56h9.34c3.35,0,6.06,2.71,6.06,6.06,0,2.28-1.26,4.27-3.13,5.3h3.13c6.9,0,12.49,5.59,12.49,12.49,0,.13-.02.25-.02.38h13.02v12.12h-99.96v-12.12h12.77c0-.13-.02-.25-.02-.38,0-6.9,5.59-12.49,12.49-12.49h3.13c-1.86-1.03-3.13-3.02-3.13-5.3,0-3.35,2.71-6.06,6.06-6.06h9.59v-19.64"/>
    </clipPath>
    <clipPath id="clippath-3">
      <path class="cls-8" d="m145.1,228.47c20.06-4.21,35.18-21.85,35.51-43.08v-8.91s.01,0,.01,0h2.58c5.02,0,9.09-4.07,9.09-9.09s-4.07-9.09-9.09-9.09h-9.36l-31.82-43.91c2.03-1.67,3.32-4.19,3.32-7.02,0-5.02-4.07-9.09-9.09-9.09s-9.09,4.07-9.09,9.09c0,2.8,1.27,5.31,3.27,6.98l-31.78,43.95h-10.11c-5.02,0-9.09,4.07-9.09,9.09s4.07,9.09,9.09,9.09h2.58s0,8.45,0,8.45c.39,21.27,15.62,39.48,35.77,43.59"/>
    </clipPath>
    <clipPath id="clippath-4">
      <path class="cls-10" d="m42.5,352.6v4.75h2.27c.81,0,1.47.66,1.47,1.47,0,.55-.31,1.04-.76,1.29h.76c1.67,0,3.03,1.36,3.03,3.03,0,.03,0,.06,0,.09h3.16v2.94h-24.26v-2.94h3.1s0-.06,0-.09c0-1.67,1.36-3.03,3.03-3.03h.76c-.45-.25-.76-.73-.76-1.29,0-.81.66-1.47,1.47-1.47h2.33v-4.77"/>
    </clipPath>
    <clipPath id="clippath-5">
      <path class="cls-8" d="m42.51,352.59c4.87-1.02,8.54-5.3,8.62-10.46v-2.16s0,0,0,0h.63c1.22,0,2.21-.99,2.21-2.21s-.99-2.21-2.21-2.21h-2.27l-7.72-10.66c.49-.4.81-1.02.81-1.7,0-1.22-.99-2.21-2.21-2.21s-2.21.99-2.21,2.21c0,.68.31,1.29.79,1.69l-7.71,10.67h-2.45c-1.22,0-2.21.99-2.21,2.21s.99,2.21,2.21,2.21h.63s0,2.05,0,2.05c.09,5.16,3.79,9.58,8.68,10.58"/>
    </clipPath>
  </defs>
  <g class="cls-6">
    <g id="Capa_2" data-name="Capa 2">
      <g id="Capa_1-2" data-name="Capa 1">
        <rect class="cls-13" x="2" y="2" width="265.74" height="375.43" rx="19.9" ry="19.9"/>
        <path class="cls-9" d="m36.01,29.1c-.45.19-.96.45-1.54.45-.96,0-1.54-.96-1.54-1.79,0-.9.64-1.28,1.6-1.79l8.45-4.29c.9-.45,1.79-.83,2.82-.83,1.79,0,1.79,1.28,1.79,2.05v28.41c0,1.15-.64,1.73-1.92,1.73-1.34,0-1.98-.58-1.98-1.73v-26.17l-7.68,3.97Z"/>
        <path class="cls-9" d="m230.11,335.74c-.45.19-.96.45-1.54.45-.96,0-1.54-.96-1.54-1.79,0-.9.64-1.28,1.6-1.79l8.45-4.29c.9-.45,1.79-.83,2.82-.83,1.79,0,1.79,1.28,1.79,2.05v28.41c0,1.15-.64,1.73-1.92,1.73-1.34,0-1.98-.58-1.98-1.73v-26.17l-7.68,3.97Z"/>
        <rect class="cls-12" x="53.76" y="65.05" width="164.22" height="252.58" rx="5.69" ry="5.69"/>
        <g>
          <g>
            <path class="cls-10" d="m236.6,45.95v4.75h2.27c.81,0,1.47.66,1.47,1.47,0,.55-.31,1.04-.76,1.29h.76c1.67,0,3.03,1.36,3.03,3.03,0,.03,0,.06,0,.09h3.16v2.94h-24.26v-2.94h3.1s0-.06,0-.09c0-1.67,1.36-3.03,3.03-3.03h.76c-.45-.25-.76-.73-.76-1.29,0-.81.66-1.47,1.47-1.47h2.33v-4.77"/>
            <g class="cls-7">
              <g>
                <rect class="cls-8" x="227.41" y="50.7" width="14.12" height="2.75"/>
                <rect class="cls-11" x="224.69" y="53.45" width="19.3" height="3.13"/>
              </g>
            </g>
          </g>
          <g>
            <g>
              <path class="cls-8" d="m236.6,45.95c4.87-1.02,8.54-5.3,8.62-10.46v-2.16s0,0,0,0h.63c1.22,0,2.21-.99,2.21-2.21s-.99-2.21-2.21-2.21h-2.27l-7.72-10.66c.49-.4.81-1.02.81-1.7,0-1.22-.99-2.21-2.21-2.21s-2.21.99-2.21,2.21c0,.68.31,1.29.79,1.69l-7.71,10.67h-2.45c-1.22,0-2.21.99-2.21,2.21s.99,2.21,2.21,2.21h.63s0,2.05,0,2.05c.09,5.16,3.79,9.58,8.68,10.58"/>
              <g class="cls-5">
                <g>
                  <rect class="cls-11" x="221.33" y="33.13" width="25.37" height="13.46"/>
                  <rect class="cls-10" x="218.83" y="28.92" width="29.99" height="4.41"/>
                  <circle class="cls-10" cx="234.45" cy="16.57" r="2.21"/>
                </g>
              </g>
            </g>
            <path class="cls-14" d="m245.22,35.49v-2.16s0,0,0,0h.63c1.22,0,2.21-.99,2.21-2.21s-.99-2.21-2.21-2.21h-2.27l-7.72-10.66c.49-.4.81-1.02.81-1.7,0-1.19-.94-2.15-2.11-2.2v31.6h2.06c4.87-1.03,8.54-5.31,8.62-10.46Z"/>
          </g>
          <path class="cls-14" d="m243.37,56.49c0-1.67-1.36-3.03-3.03-3.03h-.76c.45-.25.76-.73.76-1.29,0-.81-.66-1.47-1.47-1.47h-2.27v-4.75h-2.05s0,13.57,0,13.57h11.98v-2.94h-3.16s0-.06,0-.09Z"/>
        </g>
        <g>
          <g>
            <path class="cls-10" d="m145.08,228.49v19.56h9.34c3.35,0,6.06,2.71,6.06,6.06,0,2.28-1.26,4.27-3.13,5.3h3.13c6.9,0,12.49,5.59,12.49,12.49,0,.13-.02.25-.02.38h13.02v12.12h-99.96v-12.12h12.77c0-.13-.02-.25-.02-.38,0-6.9,5.59-12.49,12.49-12.49h3.13c-1.86-1.03-3.13-3.02-3.13-5.3,0-3.35,2.71-6.06,6.06-6.06h9.59v-19.64"/>
            <g class="cls-4">
              <g>
                <rect class="cls-8" x="107.2" y="248.04" width="58.19" height="11.32"/>
                <rect class="cls-11" x="96.02" y="259.37" width="79.53" height="12.9"/>
              </g>
            </g>
          </g>
          <g>
            <g>
              <path class="cls-8" d="m145.1,228.47c20.06-4.21,35.18-21.85,35.51-43.08v-8.91s.01,0,.01,0h2.58c5.02,0,9.09-4.07,9.09-9.09s-4.07-9.09-9.09-9.09h-9.36l-31.82-43.91c2.03-1.67,3.32-4.19,3.32-7.02,0-5.02-4.07-9.09-9.09-9.09s-9.09,4.07-9.09,9.09c0,2.8,1.27,5.31,3.27,6.98l-31.78,43.95h-10.11c-5.02,0-9.09,4.07-9.09,9.09s4.07,9.09,9.09,9.09h2.58s0,8.45,0,8.45c.39,21.27,15.62,39.48,35.77,43.59"/>
              <g class="cls-2">
                <g>
                  <rect class="cls-11" x="82.15" y="175.64" width="104.51" height="55.47"/>
                  <rect class="cls-10" x="71.88" y="158.32" width="123.56" height="18.17"/>
                  <circle class="cls-10" cx="136.24" cy="107.41" r="9.09"/>
                </g>
              </g>
            </g>
            <path class="cls-14" d="m180.61,185.38v-8.91s.01,0,.01,0h2.58c5.02,0,9.09-4.07,9.09-9.09s-4.07-9.09-9.09-9.09h-9.36l-31.82-43.91c2.03-1.67,3.32-4.19,3.32-7.02,0-4.89-3.86-8.87-8.7-9.07v130.18l8.47-.02c20.06-4.21,35.18-21.85,35.51-43.08Z"/>
          </g>
          <path class="cls-14" d="m172.97,271.9c0-6.9-5.59-12.49-12.49-12.49h-3.13c1.86-1.03,3.13-3.02,3.13-5.3,0-3.35-2.71-6.06-6.06-6.06h-9.34v-19.56l-8.45-.04v55.95h49.34v-12.12h-13.02c0-.13.02-.25.02-.38Z"/>
        </g>
        <g>
          <g>
            <path class="cls-10" d="m42.5,352.6v4.75h2.27c.81,0,1.47.66,1.47,1.47,0,.55-.31,1.04-.76,1.29h.76c1.67,0,3.03,1.36,3.03,3.03,0,.03,0,.06,0,.09h3.16v2.94h-24.26v-2.94h3.1s0-.06,0-.09c0-1.67,1.36-3.03,3.03-3.03h.76c-.45-.25-.76-.73-.76-1.29,0-.81.66-1.47,1.47-1.47h2.33v-4.77"/>
            <g class="cls-3">
              <g>
                <rect class="cls-8" x="33.31" y="357.34" width="14.12" height="2.75"/>
                <rect class="cls-11" x="30.6" y="360.09" width="19.3" height="3.13"/>
              </g>
            </g>
          </g>
          <g>
            <g>
              <path class="cls-8" d="m42.51,352.59c4.87-1.02,8.54-5.3,8.62-10.46v-2.16s0,0,0,0h.63c1.22,0,2.21-.99,2.21-2.21s-.99-2.21-2.21-2.21h-2.27l-7.72-10.66c.49-.4.81-1.02.81-1.7,0-1.22-.99-2.21-2.21-2.21s-2.21.99-2.21,2.21c0,.68.31,1.29.79,1.69l-7.71,10.67h-2.45c-1.22,0-2.21.99-2.21,2.21s.99,2.21,2.21,2.21h.63s0,2.05,0,2.05c.09,5.16,3.79,9.58,8.68,10.58"/>
              <g class="cls-1">
                <g>
                  <rect class="cls-11" x="27.23" y="339.77" width="25.37" height="13.46"/>
                  <rect class="cls-10" x="24.74" y="335.57" width="29.99" height="4.41"/>
                  <circle class="cls-10" cx="40.36" cy="323.21" r="2.21"/>
                </g>
              </g>
            </g>
            <path class="cls-14" d="m51.13,342.13v-2.16s0,0,0,0h.63c1.22,0,2.21-.99,2.21-2.21s-.99-2.21-2.21-2.21h-2.27l-7.72-10.66c.49-.4.81-1.02.81-1.7,0-1.19-.94-2.15-2.11-2.2v31.6h2.06c4.87-1.03,8.54-5.31,8.62-10.46Z"/>
          </g>
          <path class="cls-14" d="m49.27,363.13c0-1.67-1.36-3.03-3.03-3.03h-.76c.45-.25.76-.73.76-1.29,0-.81-.66-1.47-1.47-1.47h-2.27v-4.75h-2.05s0,13.57,0,13.57h11.98v-2.94h-3.16s0-.06,0-.09Z"/>
        </g>
      </g>
    </g>
  </g>
</svg>