<?xml version="1.0" encoding="UTF-8"?>
<svg xmlns="http://www.w3.org/2000/svg" xmlns:xlink="http://www.w3.org/1999/xlink" viewBox="0 0 269.74 379.43">
  <defs>
    <style>
      .cls-1 {
        clip-path: url(#clippath-8);
      }

      .cls-1, .cls-2, .cls-3, .cls-4, .cls-5, .cls-6, .cls-7, .cls-8, .cls-9, .cls-10, .cls-11, .cls-12, .cls-13 {
        fill: none;
      }

      .cls-2 {
        clip-path: url(#clippath-7);
      }

      .cls-3 {
        clip-path: url(#clippath-6);
      }

      .cls-4 {
        clip-path: url(#clippath-9);
      }

      .cls-5 {
        clip-path: url(#clippath-5);
      }

      .cls-6 {
        clip-path: url(#clippath-3);
      }

      .cls-7 {
        clip-path: url(#clippath-4);
      }

      .cls-8 {
        clip-path: url(#clippath-2);
      }

      .cls-9 {
        clip-path: url(#clippath-1);
      }

      .cls-10 {
        isolation: isolate;
      }

      .cls-14 {
        fill: #e5332a;
      }

      .cls-15 {
        fill: #686868;
      }

      .cls-16 {
        fill: #daac4f;
      }

      .cls-17 {
        fill: #1c5788;
      }

      .cls-18 {
        fill: #fff;
        stroke: #a3a3a3;
        stroke-width: 2px;
      }

      .cls-18, .cls-19 {
        stroke-miterlimit: 10;
      }

      .cls-19 {
        fill: #f2f2f2;
        stroke: #686868;
        stroke-width: 4px;
      }

      .cls-11 {
        clip-path: url(#clippath-11);
      }

      .cls-12 {
        clip-path: url(#clippath-10);
      }

      .cls-13 {
        clip-path: url(#clippath);
      }

      .cls-20 {
        mix-blend-mode: multiply;
        opacity: .2;
      }
    </style>
    <clipPath id="clippath">
      <path class="cls-16" d="m236.6,45.95v4.75h2.27c.81,0,1.47.66,1.47,1.47,0,.55-.31,1.04-.76,1.29h.76c1.67,0,3.03,1.36,3.03,3.03,0,.03,0,.06,0,.09h3.16v2.94h-24.26v-2.94h3.1s0-.06,0-.09c0-1.67,1.36-3.03,3.03-3.03h.76c-.45-.25-.76-.73-.76-1.29,0-.81.66-1.47,1.47-1.47h2.33v-4.77"/>
    </clipPath>
    <clipPath id="clippath-1">
      <path class="cls-14" d="m236.6,45.95c4.87-1.02,8.54-5.3,8.62-10.46v-2.16s0,0,0,0h.63c1.22,0,2.21-.99,2.21-2.21s-.99-2.21-2.21-2.21h-2.27l-7.72-10.66c.49-.4.81-1.02.81-1.7,0-1.22-.99-2.21-2.21-2.21s-2.21.99-2.21,2.21c0,.68.31,1.29.79,1.69l-7.71,10.67h-2.45c-1.22,0-2.21.99-2.21,2.21s.99,2.21,2.21,2.21h.63s0,2.05,0,2.05c.09,5.16,3.79,9.58,8.68,10.58"/>
    </clipPath>
    <clipPath id="clippath-2">
      <path class="cls-16" d="m103.79,145v7.58h3.62c1.3,0,2.35,1.05,2.35,2.35,0,.88-.49,1.65-1.21,2.05h1.21c2.67,0,4.84,2.17,4.84,4.84,0,.05,0,.1,0,.15h5.05v4.7h-38.75v-4.7h4.95s0-.1,0-.15c0-2.67,2.17-4.84,4.84-4.84h1.21c-.72-.4-1.21-1.17-1.21-2.05,0-1.3,1.05-2.35,2.35-2.35h3.72v-7.61"/>
    </clipPath>
    <clipPath id="clippath-3">
      <path class="cls-14" d="m103.8,144.99c7.78-1.63,13.64-8.47,13.76-16.7v-3.45s0,0,0,0h1c1.95,0,3.52-1.58,3.52-3.52s-1.58-3.52-3.52-3.52h-3.63l-12.33-17.02c.79-.65,1.29-1.63,1.29-2.72,0-1.95-1.58-3.52-3.52-3.52s-3.52,1.58-3.52,3.52c0,1.09.49,2.06,1.27,2.7l-12.32,17.04h-3.92c-1.95,0-3.52,1.58-3.52,3.52s1.58,3.52,3.52,3.52h1s0,3.28,0,3.28c.15,8.24,6.05,15.3,13.86,16.9"/>
    </clipPath>
    <clipPath id="clippath-4">
      <path class="cls-16" d="m103.79,260.51v7.58h3.62c1.3,0,2.35,1.05,2.35,2.35,0,.88-.49,1.65-1.21,2.05h1.21c2.67,0,4.84,2.17,4.84,4.84,0,.05,0,.1,0,.15h5.05v4.7h-38.75v-4.7h4.95s0-.1,0-.15c0-2.67,2.17-4.84,4.84-4.84h1.21c-.72-.4-1.21-1.17-1.21-2.05,0-1.3,1.05-2.35,2.35-2.35h3.72v-7.61"/>
    </clipPath>
    <clipPath id="clippath-5">
      <path class="cls-14" d="m103.8,260.51c7.78-1.63,13.64-8.47,13.76-16.7v-3.45s0,0,0,0h1c1.95,0,3.52-1.58,3.52-3.52s-1.58-3.52-3.52-3.52h-3.63l-12.33-17.02c.79-.65,1.29-1.63,1.29-2.72,0-1.95-1.58-3.52-3.52-3.52s-3.52,1.58-3.52,3.52c0,1.09.49,2.06,1.27,2.7l-12.32,17.04h-3.92c-1.95,0-3.52,1.58-3.52,3.52s1.58,3.52,3.52,3.52h1s0,3.28,0,3.28c.15,8.24,6.05,15.3,13.86,16.9"/>
    </clipPath>
    <clipPath id="clippath-6">
      <path class="cls-16" d="m179,145v7.58h3.62c1.3,0,2.35,1.05,2.35,2.35,0,.88-.49,1.65-1.21,2.05h1.21c2.67,0,4.84,2.17,4.84,4.84,0,.05,0,.1,0,.15h5.05v4.7h-38.75v-4.7h4.95s0-.1,0-.15c0-2.67,2.17-4.84,4.84-4.84h1.21c-.72-.4-1.21-1.17-1.21-2.05,0-1.3,1.05-2.35,2.35-2.35h3.72v-7.61"/>
    </clipPath>
    <clipPath id="clippath-7">
      <path class="cls-14" d="m179.01,144.99c7.78-1.63,13.64-8.47,13.76-16.7v-3.45s0,0,0,0h1c1.95,0,3.52-1.58,3.52-3.52s-1.58-3.52-3.52-3.52h-3.63l-12.33-17.02c.79-.65,1.29-1.63,1.29-2.72,0-1.95-1.58-3.52-3.52-3.52s-3.52,1.58-3.52,3.52c0,1.09.49,2.06,1.27,2.7l-12.32,17.04h-3.92c-1.95,0-3.52,1.58-3.52,3.52s1.58,3.52,3.52,3.52h1s0,3.28,0,3.28c.15,8.24,6.05,15.3,13.86,16.9"/>
    </clipPath>
    <clipPath id="clippath-8">
      <path class="cls-16" d="m179,260.51v7.58h3.62c1.3,0,2.35,1.05,2.35,2.35,0,.88-.49,1.65-1.21,2.05h1.21c2.67,0,4.84,2.17,4.84,4.84,0,.05,0,.1,0,.15h5.05v4.7h-38.75v-4.7h4.95s0-.1,0-.15c0-2.67,2.17-4.84,4.84-4.84h1.21c-.72-.4-1.21-1.17-1.21-2.05,0-1.3,1.05-2.35,2.35-2.35h3.72v-7.61"/>
    </clipPath>
    <clipPath id="clippath-9">
      <path class="cls-14" d="m179.01,260.51c7.78-1.63,13.64-8.47,13.76-16.7v-3.45s0,0,0,0h1c1.95,0,3.52-1.58,3.52-3.52s-1.58-3.52-3.52-3.52h-3.63l-12.33-17.02c.79-.65,1.29-1.63,1.29-2.72,0-1.95-1.58-3.52-3.52-3.52s-3.52,1.58-3.52,3.52c0,1.09.49,2.06,1.27,2.7l-12.32,17.04h-3.92c-1.95,0-3.52,1.58-3.52,3.52s1.58,3.52,3.52,3.52h1s0,3.28,0,3.28c.15,8.24,6.05,15.3,13.86,16.9"/>
    </clipPath>
    <clipPath id="clippath-10">
      <path class="cls-16" d="m42.5,352.6v4.75h2.27c.81,0,1.47.66,1.47,1.47,0,.55-.31,1.04-.76,1.29h.76c1.67,0,3.03,1.36,3.03,3.03,0,.03,0,.06,0,.09h3.16v2.94h-24.26v-2.94h3.1s0-.06,0-.09c0-1.67,1.36-3.03,3.03-3.03h.76c-.45-.25-.76-.73-.76-1.29,0-.81.66-1.47,1.47-1.47h2.33v-4.77"/>
    </clipPath>
    <clipPath id="clippath-11">
      <path class="cls-14" d="m42.51,352.59c4.87-1.02,8.54-5.3,8.62-10.46v-2.16s0,0,0,0h.63c1.22,0,2.21-.99,2.21-2.21s-.99-2.21-2.21-2.21h-2.27l-7.72-10.66c.49-.4.81-1.02.81-1.7,0-1.22-.99-2.21-2.21-2.21s-2.21.99-2.21,2.21c0,.68.31,1.29.79,1.69l-7.71,10.67h-2.45c-1.22,0-2.21.99-2.21,2.21s.99,2.21,2.21,2.21h.63s0,2.05,0,2.05c.09,5.16,3.79,9.58,8.68,10.58"/>
    </clipPath>
  </defs>
  <g class="cls-10">
    <g id="Capa_2" data-name="Capa 2">
      <g id="Capa_1-2" data-name="Capa 1">
        <rect class="cls-19" x="2" y="2" width="265.74" height="375.43" rx="19.9" ry="19.9"/>
        <path class="cls-15" d="m247.1,352.19c1.15,0,1.73.58,1.73,1.66s-.58,1.66-1.73,1.66h-5.25v7.17c0,1.15-.64,1.73-1.86,1.73-1.28,0-1.92-.58-1.92-1.73v-7.17h-16.32c-.9,0-1.92-.26-1.92-1.86,0-.96.38-1.66,1.02-2.56l15.81-21.63c.96-1.28,1.73-1.98,3.2-1.98s1.98.58,1.98,1.73v22.97h5.25Zm-8.96-19.33l-14.02,19.39h14.02v-19.39Z"/>
        <path class="cls-15" d="m53.03,43.18c1.15,0,1.73.58,1.73,1.66s-.58,1.66-1.73,1.66h-5.25v7.17c0,1.15-.64,1.73-1.86,1.73-1.28,0-1.92-.58-1.92-1.73v-7.17h-16.32c-.9,0-1.92-.26-1.92-1.86,0-.96.38-1.66,1.02-2.56l15.81-21.63c.96-1.28,1.73-1.98,3.2-1.98s1.98.58,1.98,1.73v22.97h5.25Zm-8.96-19.33l-14.02,19.39h14.02v-19.39Z"/>
        <rect class="cls-18" x="53.76" y="65.05" width="164.22" height="252.58" rx="5.69" ry="5.69"/>
        <g>
          <g>
            <path class="cls-16" d="m236.6,45.95v4.75h2.27c.81,0,1.47.66,1.47,1.47,0,.55-.31,1.04-.76,1.29h.76c1.67,0,3.03,1.36,3.03,3.03,0,.03,0,.06,0,.09h3.16v2.94h-24.26v-2.94h3.1s0-.06,0-.09c0-1.67,1.36-3.03,3.03-3.03h.76c-.45-.25-.76-.73-.76-1.29,0-.81.66-1.47,1.47-1.47h2.33v-4.77"/>
            <g class="cls-13">
              <g>
                <rect class="cls-14" x="227.41" y="50.7" width="14.12" height="2.75"/>
                <rect class="cls-17" x="224.69" y="53.45" width="19.3" height="3.13"/>
              </g>
            </g>
          </g>
          <g>
            <g>
              <path class="cls-14" d="m236.6,45.95c4.87-1.02,8.54-5.3,8.62-10.46v-2.16s0,0,0,0h.63c1.22,0,2.21-.99,2.21-2.21s-.99-2.21-2.21-2.21h-2.27l-7.72-10.66c.49-.4.81-1.02.81-1.7,0-1.22-.99-2.21-2.21-2.21s-2.21.99-2.21,2.21c0,.68.31,1.29.79,1.69l-7.71,10.67h-2.45c-1.22,0-2.21.99-2.21,2.21s.99,2.21,2.21,2.21h.63s0,2.05,0,2.05c.09,5.16,3.79,9.58,8.68,10.58"/>
              <g class="cls-9">
                <g>
                  <rect class="cls-17" x="221.33" y="33.13" width="25.37" height="13.46"/>
                  <rect class="cls-16" x="218.83" y="28.92" width="29.99" height="4.41"/>
                  <circle class="cls-16" cx="234.45" cy="16.57" r="2.21"/>
                </g>
              </g>
            </g>
            <path class="cls-20" d="m245.22,35.49v-2.16s0,0,0,0h.63c1.22,0,2.21-.99,2.21-2.21s-.99-2.21-2.21-2.21h-2.27l-7.72-10.66c.49-.4.81-1.02.81-1.7,0-1.19-.94-2.15-2.11-2.2v31.6h2.06c4.87-1.03,8.54-5.31,8.62-10.46Z"/>
          </g>
          <path class="cls-20" d="m243.37,56.49c0-1.67-1.36-3.03-3.03-3.03h-.76c.45-.25.76-.73.76-1.29,0-.81-.66-1.47-1.47-1.47h-2.27v-4.75h-2.05s0,13.57,0,13.57h11.98v-2.94h-3.16s0-.06,0-.09Z"/>
        </g>
        <g>
          <g>
            <path class="cls-16" d="m103.79,145v7.58h3.62c1.3,0,2.35,1.05,2.35,2.35,0,.88-.49,1.65-1.21,2.05h1.21c2.67,0,4.84,2.17,4.84,4.84,0,.05,0,.1,0,.15h5.05v4.7h-38.75v-4.7h4.95s0-.1,0-.15c0-2.67,2.17-4.84,4.84-4.84h1.21c-.72-.4-1.21-1.17-1.21-2.05,0-1.3,1.05-2.35,2.35-2.35h3.72v-7.61"/>
            <g class="cls-8">
              <g>
                <rect class="cls-14" x="89.11" y="152.57" width="22.55" height="4.39"/>
                <rect class="cls-17" x="84.78" y="156.97" width="30.83" height="5"/>
              </g>
            </g>
          </g>
          <g>
            <g>
              <path class="cls-14" d="m103.8,144.99c7.78-1.63,13.64-8.47,13.76-16.7v-3.45s0,0,0,0h1c1.95,0,3.52-1.58,3.52-3.52s-1.58-3.52-3.52-3.52h-3.63l-12.33-17.02c.79-.65,1.29-1.63,1.29-2.72,0-1.95-1.58-3.52-3.52-3.52s-3.52,1.58-3.52,3.52c0,1.09.49,2.06,1.27,2.7l-12.32,17.04h-3.92c-1.95,0-3.52,1.58-3.52,3.52s1.58,3.52,3.52,3.52h1s0,3.28,0,3.28c.15,8.24,6.05,15.3,13.86,16.9"/>
              <g class="cls-6">
                <g>
                  <rect class="cls-17" x="79.4" y="124.51" width="40.51" height="21.5"/>
                  <rect class="cls-16" x="75.42" y="117.8" width="47.9" height="7.04"/>
                  <circle class="cls-16" cx="100.37" cy="98.06" r="3.52"/>
                </g>
              </g>
            </g>
            <path class="cls-20" d="m117.56,128.29v-3.45s0,0,0,0h1c1.95,0,3.52-1.58,3.52-3.52s-1.58-3.52-3.52-3.52h-3.63l-12.33-17.02c.79-.65,1.29-1.63,1.29-2.72,0-1.9-1.5-3.44-3.37-3.51v50.46h3.28c7.78-1.64,13.64-8.48,13.76-16.71Z"/>
          </g>
          <path class="cls-20" d="m114.61,161.82c0-2.67-2.17-4.84-4.84-4.84h-1.21c.72-.4,1.21-1.17,1.21-2.05,0-1.3-1.05-2.35-2.35-2.35h-3.62v-7.58h-3.28s0,21.67,0,21.67h19.13v-4.7h-5.05s0-.1,0-.15Z"/>
        </g>
        <g>
          <g>
            <path class="cls-16" d="m103.79,260.51v7.58h3.62c1.3,0,2.35,1.05,2.35,2.35,0,.88-.49,1.65-1.21,2.05h1.21c2.67,0,4.84,2.17,4.84,4.84,0,.05,0,.1,0,.15h5.05v4.7h-38.75v-4.7h4.95s0-.1,0-.15c0-2.67,2.17-4.84,4.84-4.84h1.21c-.72-.4-1.21-1.17-1.21-2.05,0-1.3,1.05-2.35,2.35-2.35h3.72v-7.61"/>
            <g class="cls-7">
              <g>
                <rect class="cls-14" x="89.11" y="268.09" width="22.55" height="4.39"/>
                <rect class="cls-17" x="84.78" y="272.49" width="30.83" height="5"/>
              </g>
            </g>
          </g>
          <g>
            <g>
              <path class="cls-14" d="m103.8,260.51c7.78-1.63,13.64-8.47,13.76-16.7v-3.45s0,0,0,0h1c1.95,0,3.52-1.58,3.52-3.52s-1.58-3.52-3.52-3.52h-3.63l-12.33-17.02c.79-.65,1.29-1.63,1.29-2.72,0-1.95-1.58-3.52-3.52-3.52s-3.52,1.58-3.52,3.52c0,1.09.49,2.06,1.27,2.7l-12.32,17.04h-3.92c-1.95,0-3.52,1.58-3.52,3.52s1.58,3.52,3.52,3.52h1s0,3.28,0,3.28c.15,8.24,6.05,15.3,13.86,16.9"/>
              <g class="cls-5">
                <g>
                  <rect class="cls-17" x="79.4" y="240.03" width="40.51" height="21.5"/>
                  <rect class="cls-16" x="75.42" y="233.32" width="47.9" height="7.04"/>
                  <circle class="cls-16" cx="100.37" cy="213.58" r="3.52"/>
                </g>
              </g>
            </g>
            <path class="cls-20" d="m117.56,243.81v-3.45s0,0,0,0h1c1.95,0,3.52-1.58,3.52-3.52s-1.58-3.52-3.52-3.52h-3.63l-12.33-17.02c.79-.65,1.29-1.63,1.29-2.72,0-1.9-1.5-3.44-3.37-3.51v50.46h3.28c7.78-1.64,13.64-8.48,13.76-16.71Z"/>
          </g>
          <path class="cls-20" d="m114.61,277.34c0-2.67-2.17-4.84-4.84-4.84h-1.21c.72-.4,1.21-1.17,1.21-2.05,0-1.3-1.05-2.35-2.35-2.35h-3.62v-7.58h-3.28s0,21.67,0,21.67h19.13v-4.7h-5.05s0-.1,0-.15Z"/>
        </g>
        <g>
          <g>
            <path class="cls-16" d="m179,145v7.58h3.62c1.3,0,2.35,1.05,2.35,2.35,0,.88-.49,1.65-1.21,2.05h1.21c2.67,0,4.84,2.17,4.84,4.84,0,.05,0,.1,0,.15h5.05v4.7h-38.75v-4.7h4.95s0-.1,0-.15c0-2.67,2.17-4.84,4.84-4.84h1.21c-.72-.4-1.21-1.17-1.21-2.05,0-1.3,1.05-2.35,2.35-2.35h3.72v-7.61"/>
            <g class="cls-3">
              <g>
                <rect class="cls-14" x="164.32" y="152.57" width="22.55" height="4.39"/>
                <rect class="cls-17" x="159.99" y="156.97" width="30.83" height="5"/>
              </g>
            </g>
          </g>
          <g>
            <g>
              <path class="cls-14" d="m179.01,144.99c7.78-1.63,13.64-8.47,13.76-16.7v-3.45s0,0,0,0h1c1.95,0,3.52-1.58,3.52-3.52s-1.58-3.52-3.52-3.52h-3.63l-12.33-17.02c.79-.65,1.29-1.63,1.29-2.72,0-1.95-1.58-3.52-3.52-3.52s-3.52,1.58-3.52,3.52c0,1.09.49,2.06,1.27,2.7l-12.32,17.04h-3.92c-1.95,0-3.52,1.58-3.52,3.52s1.58,3.52,3.52,3.52h1s0,3.28,0,3.28c.15,8.24,6.05,15.3,13.86,16.9"/>
              <g class="cls-2">
                <g>
                  <rect class="cls-17" x="154.61" y="124.51" width="40.51" height="21.5"/>
                  <rect class="cls-16" x="150.63" y="117.8" width="47.9" height="7.04"/>
                  <circle class="cls-16" cx="175.58" cy="98.06" r="3.52"/>
                </g>
              </g>
            </g>
            <path class="cls-20" d="m192.78,128.29v-3.45s0,0,0,0h1c1.95,0,3.52-1.58,3.52-3.52s-1.58-3.52-3.52-3.52h-3.63l-12.33-17.02c.79-.65,1.29-1.63,1.29-2.72,0-1.9-1.5-3.44-3.37-3.51v50.46h3.28c7.78-1.64,13.64-8.48,13.76-16.71Z"/>
          </g>
          <path class="cls-20" d="m189.82,161.82c0-2.67-2.17-4.84-4.84-4.84h-1.21c.72-.4,1.21-1.17,1.21-2.05,0-1.3-1.05-2.35-2.35-2.35h-3.62v-7.58h-3.28s0,21.67,0,21.67h19.13v-4.7h-5.05s0-.1,0-.15Z"/>
        </g>
        <g>
          <g>
            <path class="cls-16" d="m179,260.51v7.58h3.62c1.3,0,2.35,1.05,2.35,2.35,0,.88-.49,1.65-1.21,2.05h1.21c2.67,0,4.84,2.17,4.84,4.84,0,.05,0,.1,0,.15h5.05v4.7h-38.75v-4.7h4.95s0-.1,0-.15c0-2.67,2.17-4.84,4.84-4.84h1.21c-.72-.4-1.21-1.17-1.21-2.05,0-1.3,1.05-2.35,2.35-2.35h3.72v-7.61"/>
            <g class="cls-1">
              <g>
                <rect class="cls-14" x="164.32" y="268.09" width="22.55" height="4.39"/>
                <rect class="cls-17" x="159.99" y="272.49" width="30.83" height="5"/>
              </g>
            </g>
          </g>
          <g>
            <g>
              <path class="cls-14" d="m179.01,260.51c7.78-1.63,13.64-8.47,13.76-16.7v-3.45s0,0,0,0h1c1.95,0,3.52-1.58,3.52-3.52s-1.58-3.52-3.52-3.52h-3.63l-12.33-17.02c.79-.65,1.29-1.63,1.29-2.72,0-1.95-1.58-3.52-3.52-3.52s-3.52,1.58-3.52,3.52c0,1.09.49,2.06,1.27,2.7l-12.32,17.04h-3.92c-1.95,0-3.52,1.58-3.52,3.52s1.58,3.52,3.52,3.52h1s0,3.28,0,3.28c.15,8.24,6.05,15.3,13.86,16.9"/>
              <g class="cls-4">
                <g>
                  <rect class="cls-17" x="154.61" y="240.03" width="40.51" height="21.5"/>
                  <rect class="cls-16" x="150.63" y="233.32" width="47.9" height="7.04"/>
                  <circle class="cls-16" cx="175.58" cy="213.58" r="3.52"/>
                </g>
              </g>
            </g>
            <path class="cls-20" d="m192.78,243.81v-3.45s0,0,0,0h1c1.95,0,3.52-1.58,3.52-3.52s-1.58-3.52-3.52-3.52h-3.63l-12.33-17.02c.79-.65,1.29-1.63,1.29-2.72,0-1.9-1.5-3.44-3.37-3.51v50.46h3.28c7.78-1.64,13.64-8.48,13.76-16.71Z"/>
          </g>
          <path class="cls-20" d="m189.82,277.34c0-2.67-2.17-4.84-4.84-4.84h-1.21c.72-.4,1.21-1.17,1.21-2.05,0-1.3-1.05-2.35-2.35-2.35h-3.62v-7.58h-3.28s0,21.67,0,21.67h19.13v-4.7h-5.05s0-.1,0-.15Z"/>
        </g>
        <g>
          <g>
            <path class="cls-16" d="m42.5,352.6v4.75h2.27c.81,0,1.47.66,1.47,1.47,0,.55-.31,1.04-.76,1.29h.76c1.67,0,3.03,1.36,3.03,3.03,0,.03,0,.06,0,.09h3.16v2.94h-24.26v-2.94h3.1s0-.06,0-.09c0-1.67,1.36-3.03,3.03-3.03h.76c-.45-.25-.76-.73-.76-1.29,0-.81.66-1.47,1.47-1.47h2.33v-4.77"/>
            <g class="cls-12">
              <g>
                <rect class="cls-14" x="33.31" y="357.34" width="14.12" height="2.75"/>
                <rect class="cls-17" x="30.6" y="360.09" width="19.3" height="3.13"/>
              </g>
            </g>
          </g>
          <g>
            <g>
              <path class="cls-14" d="m42.51,352.59c4.87-1.02,8.54-5.3,8.62-10.46v-2.16s0,0,0,0h.63c1.22,0,2.21-.99,2.21-2.21s-.99-2.21-2.21-2.21h-2.27l-7.72-10.66c.49-.4.81-1.02.81-1.7,0-1.22-.99-2.21-2.21-2.21s-2.21.99-2.21,2.21c0,.68.31,1.29.79,1.69l-7.71,10.67h-2.45c-1.22,0-2.21.99-2.21,2.21s.99,2.21,2.21,2.21h.63s0,2.05,0,2.05c.09,5.16,3.79,9.58,8.68,10.58"/>
              <g class="cls-11">
                <g>
                  <rect class="cls-17" x="27.23" y="339.77" width="25.37" height="13.46"/>
                  <rect class="cls-16" x="24.74" y="335.57" width="29.99" height="4.41"/>
                  <circle class="cls-16" cx="40.36" cy="323.21" r="2.21"/>
                </g>
              </g>
            </g>
            <path class="cls-20" d="m51.13,342.13v-2.16s0,0,0,0h.63c1.22,0,2.21-.99,2.21-2.21s-.99-2.21-2.21-2.21h-2.27l-7.72-10.66c.49-.4.81-1.02.81-1.7,0-1.19-.94-2.15-2.11-2.2v31.6h2.06c4.87-1.03,8.54-5.31,8.62-10.46Z"/>
          </g>
          <path class="cls-20" d="m49.27,363.13c0-1.67-1.36-3.03-3.03-3.03h-.76c.45-.25.76-.73.76-1.29,0-.81-.66-1.47-1.47-1.47h-2.27v-4.75h-2.05s0,13.57,0,13.57h11.98v-2.94h-3.16s0-.06,0-.09Z"/>
        </g>
      </g>
    </g>
  </g>
</svg>