<?xml version="1.0" encoding="UTF-8"?>
<svg xmlns="http://www.w3.org/2000/svg" xmlns:xlink="http://www.w3.org/1999/xlink" viewBox="0 0 269.74 379.43">
  <defs>
    <style>
      .cls-1 {
        clip-path: url(#clippath-8);
      }

      .cls-1, .cls-2, .cls-3, .cls-4, .cls-5, .cls-6, .cls-7, .cls-8, .cls-9, .cls-10, .cls-11, .cls-12, .cls-13, .cls-14, .cls-15 {
        fill: none;
      }

      .cls-2 {
        clip-path: url(#clippath-7);
      }

      .cls-3 {
        clip-path: url(#clippath-6);
      }

      .cls-4 {
        clip-path: url(#clippath-9);
      }

      .cls-5 {
        clip-path: url(#clippath-5);
      }

      .cls-6 {
        clip-path: url(#clippath-3);
      }

      .cls-7 {
        clip-path: url(#clippath-4);
      }

      .cls-8 {
        clip-path: url(#clippath-2);
      }

      .cls-9 {
        clip-path: url(#clippath-1);
      }

      .cls-10 {
        isolation: isolate;
      }

      .cls-16 {
        fill: #e5332a;
      }

      .cls-17 {
        fill: #686868;
      }

      .cls-18 {
        fill: #daac4f;
      }

      .cls-19 {
        fill: #1c5788;
      }

      .cls-20 {
        fill: #fff;
        stroke: #a3a3a3;
        stroke-width: 2px;
      }

      .cls-20, .cls-21 {
        stroke-miterlimit: 10;
      }

      .cls-21 {
        fill: #f2f2f2;
        stroke: #686868;
        stroke-width: 4px;
      }

      .cls-11 {
        clip-path: url(#clippath-13);
      }

      .cls-12 {
        clip-path: url(#clippath-12);
      }

      .cls-13 {
        clip-path: url(#clippath-11);
      }

      .cls-14 {
        clip-path: url(#clippath-10);
      }

      .cls-15 {
        clip-path: url(#clippath);
      }

      .cls-22 {
        mix-blend-mode: multiply;
        opacity: .2;
      }
    </style>
    <clipPath id="clippath">
      <path class="cls-18" d="m236.6,45.95v4.75h2.27c.81,0,1.47.66,1.47,1.47,0,.55-.31,1.04-.76,1.29h.76c1.67,0,3.03,1.36,3.03,3.03,0,.03,0,.06,0,.09h3.16v2.94h-24.26v-2.94h3.1s0-.06,0-.09c0-1.67,1.36-3.03,3.03-3.03h.76c-.45-.25-.76-.73-.76-1.29,0-.81.66-1.47,1.47-1.47h2.33v-4.77"/>
    </clipPath>
    <clipPath id="clippath-1">
      <path class="cls-16" d="m236.6,45.95c4.87-1.02,8.54-5.3,8.62-10.46v-2.16s0,0,0,0h.63c1.22,0,2.21-.99,2.21-2.21s-.99-2.21-2.21-2.21h-2.27l-7.72-10.66c.49-.4.81-1.02.81-1.7,0-1.22-.99-2.21-2.21-2.21s-2.21.99-2.21,2.21c0,.68.31,1.29.79,1.69l-7.71,10.67h-2.45c-1.22,0-2.21.99-2.21,2.21s.99,2.21,2.21,2.21h.63s0,2.05,0,2.05c.09,5.16,3.79,9.58,8.68,10.58"/>
    </clipPath>
    <clipPath id="clippath-2">
      <path class="cls-18" d="m103.79,130.64v7.58h3.62c1.3,0,2.35,1.05,2.35,2.35,0,.88-.49,1.65-1.21,2.05h1.21c2.67,0,4.84,2.17,4.84,4.84,0,.05,0,.1,0,.15h5.05v4.7h-38.75v-4.7h4.95s0-.1,0-.15c0-2.67,2.17-4.84,4.84-4.84h1.21c-.72-.4-1.21-1.17-1.21-2.05,0-1.3,1.05-2.35,2.35-2.35h3.72v-7.61"/>
    </clipPath>
    <clipPath id="clippath-3">
      <path class="cls-16" d="m103.8,130.63c7.78-1.63,13.64-8.47,13.76-16.7v-3.45s0,0,0,0h1c1.95,0,3.52-1.58,3.52-3.52s-1.58-3.52-3.52-3.52h-3.63l-12.33-17.02c.79-.65,1.29-1.63,1.29-2.72,0-1.95-1.58-3.52-3.52-3.52s-3.52,1.58-3.52,3.52c0,1.09.49,2.06,1.27,2.7l-12.32,17.04h-3.92c-1.95,0-3.52,1.58-3.52,3.52s1.58,3.52,3.52,3.52h1s0,3.28,0,3.28c.15,8.24,6.05,15.3,13.86,16.9"/>
    </clipPath>
    <clipPath id="clippath-4">
      <path class="cls-18" d="m139.44,205.74v7.58h3.62c1.3,0,2.35,1.05,2.35,2.35,0,.88-.49,1.65-1.21,2.05h1.21c2.67,0,4.84,2.17,4.84,4.84,0,.05,0,.1,0,.15h5.05v4.7h-38.75v-4.7h4.95s0-.1,0-.15c0-2.67,2.17-4.84,4.84-4.84h1.21c-.72-.4-1.21-1.17-1.21-2.05,0-1.3,1.05-2.35,2.35-2.35h3.72v-7.61"/>
    </clipPath>
    <clipPath id="clippath-5">
      <path class="cls-16" d="m139.45,205.73c7.78-1.63,13.64-8.47,13.76-16.7v-3.45s0,0,0,0h1c1.95,0,3.52-1.58,3.52-3.52s-1.58-3.52-3.52-3.52h-3.63l-12.33-17.02c.79-.65,1.29-1.63,1.29-2.72,0-1.95-1.58-3.52-3.52-3.52s-3.52,1.58-3.52,3.52c0,1.09.49,2.06,1.27,2.7l-12.32,17.04h-3.92c-1.95,0-3.52,1.58-3.52,3.52s1.58,3.52,3.52,3.52h1s0,3.28,0,3.28c.15,8.24,6.05,15.3,13.86,16.9"/>
    </clipPath>
    <clipPath id="clippath-6">
      <path class="cls-18" d="m103.79,280.4v7.58h3.62c1.3,0,2.35,1.05,2.35,2.35,0,.88-.49,1.65-1.21,2.05h1.21c2.67,0,4.84,2.17,4.84,4.84,0,.05,0,.1,0,.15h5.05v4.7h-38.75v-4.7h4.95s0-.1,0-.15c0-2.67,2.17-4.84,4.84-4.84h1.21c-.72-.4-1.21-1.17-1.21-2.05,0-1.3,1.05-2.35,2.35-2.35h3.72v-7.61"/>
    </clipPath>
    <clipPath id="clippath-7">
      <path class="cls-16" d="m103.8,280.39c7.78-1.63,13.64-8.47,13.76-16.7v-3.45s0,0,0,0h1c1.95,0,3.52-1.58,3.52-3.52s-1.58-3.52-3.52-3.52h-3.63l-12.33-17.02c.79-.65,1.29-1.63,1.29-2.72,0-1.95-1.58-3.52-3.52-3.52s-3.52,1.58-3.52,3.52c0,1.09.49,2.06,1.27,2.7l-12.32,17.04h-3.92c-1.95,0-3.52,1.58-3.52,3.52s1.58,3.52,3.52,3.52h1s0,3.28,0,3.28c.15,8.24,6.05,15.3,13.86,16.9"/>
    </clipPath>
    <clipPath id="clippath-8">
      <path class="cls-18" d="m179,130.64v7.58h3.62c1.3,0,2.35,1.05,2.35,2.35,0,.88-.49,1.65-1.21,2.05h1.21c2.67,0,4.84,2.17,4.84,4.84,0,.05,0,.1,0,.15h5.05v4.7h-38.75v-4.7h4.95s0-.1,0-.15c0-2.67,2.17-4.84,4.84-4.84h1.21c-.72-.4-1.21-1.17-1.21-2.05,0-1.3,1.05-2.35,2.35-2.35h3.72v-7.61"/>
    </clipPath>
    <clipPath id="clippath-9">
      <path class="cls-16" d="m179.01,130.63c7.78-1.63,13.64-8.47,13.76-16.7v-3.45s0,0,0,0h1c1.95,0,3.52-1.58,3.52-3.52s-1.58-3.52-3.52-3.52h-3.63l-12.33-17.02c.79-.65,1.29-1.63,1.29-2.72,0-1.95-1.58-3.52-3.52-3.52s-3.52,1.58-3.52,3.52c0,1.09.49,2.06,1.27,2.7l-12.32,17.04h-3.92c-1.95,0-3.52,1.58-3.52,3.52s1.58,3.52,3.52,3.52h1s0,3.28,0,3.28c.15,8.24,6.05,15.3,13.86,16.9"/>
    </clipPath>
    <clipPath id="clippath-10">
      <path class="cls-18" d="m179,280.4v7.58h3.62c1.3,0,2.35,1.05,2.35,2.35,0,.88-.49,1.65-1.21,2.05h1.21c2.67,0,4.84,2.17,4.84,4.84,0,.05,0,.1,0,.15h5.05v4.7h-38.75v-4.7h4.95s0-.1,0-.15c0-2.67,2.17-4.84,4.84-4.84h1.21c-.72-.4-1.21-1.17-1.21-2.05,0-1.3,1.05-2.35,2.35-2.35h3.72v-7.61"/>
    </clipPath>
    <clipPath id="clippath-11">
      <path class="cls-16" d="m179.01,280.39c7.78-1.63,13.64-8.47,13.76-16.7v-3.45s0,0,0,0h1c1.95,0,3.52-1.58,3.52-3.52s-1.58-3.52-3.52-3.52h-3.63l-12.33-17.02c.79-.65,1.29-1.63,1.29-2.72,0-1.95-1.58-3.52-3.52-3.52s-3.52,1.58-3.52,3.52c0,1.09.49,2.06,1.27,2.7l-12.32,17.04h-3.92c-1.95,0-3.52,1.58-3.52,3.52s1.58,3.52,3.52,3.52h1s0,3.28,0,3.28c.15,8.24,6.05,15.3,13.86,16.9"/>
    </clipPath>
    <clipPath id="clippath-12">
      <path class="cls-18" d="m42.5,352.6v4.75h2.27c.81,0,1.47.66,1.47,1.47,0,.55-.31,1.04-.76,1.29h.76c1.67,0,3.03,1.36,3.03,3.03,0,.03,0,.06,0,.09h3.16v2.94h-24.26v-2.94h3.1s0-.06,0-.09c0-1.67,1.36-3.03,3.03-3.03h.76c-.45-.25-.76-.73-.76-1.29,0-.81.66-1.47,1.47-1.47h2.33v-4.77"/>
    </clipPath>
    <clipPath id="clippath-13">
      <path class="cls-16" d="m42.51,352.59c4.87-1.02,8.54-5.3,8.62-10.46v-2.16s0,0,0,0h.63c1.22,0,2.21-.99,2.21-2.21s-.99-2.21-2.21-2.21h-2.27l-7.72-10.66c.49-.4.81-1.02.81-1.7,0-1.22-.99-2.21-2.21-2.21s-2.21.99-2.21,2.21c0,.68.31,1.29.79,1.69l-7.71,10.67h-2.45c-1.22,0-2.21.99-2.21,2.21s.99,2.21,2.21,2.21h.63s0,2.05,0,2.05c.09,5.16,3.79,9.58,8.68,10.58"/>
    </clipPath>
  </defs>
  <g class="cls-10">
    <g id="Capa_2" data-name="Capa 2">
      <g id="Capa_1-2" data-name="Capa 1">
        <rect class="cls-21" x="2" y="2" width="265.74" height="375.43" rx="19.9" ry="19.9"/>
        <path class="cls-17" d="m227.9,342.08c.96-.13,2.56-.19,3.26-.19,8.83,0,14.53,4.42,14.53,11.39s-5.25,11.2-12.8,11.2c-3.46,0-6.4-.96-8.51-2.5-.96-.7-1.66-1.41-1.66-2.11,0-.77.77-1.79,1.73-1.79.58,0,1.02.38,1.98,1.02,1.92,1.34,4.03,1.98,6.4,1.98,5.25,0,8.9-2.94,8.9-7.68s-4.1-8.26-11.07-8.26c-1.6,0-3.39.13-4.16.13-1.79,0-2.24-.7-2.11-2.5l.7-12.74c.06-1.47.77-2.11,2.24-2.11h14.85c1.15,0,1.73.58,1.73,1.73s-.58,1.73-1.73,1.73h-13.7l-.58,10.69Z"/>
        <rect class="cls-20" x="53.76" y="65.05" width="164.22" height="252.58" rx="5.69" ry="5.69"/>
        <g>
          <g>
            <path class="cls-18" d="m236.6,45.95v4.75h2.27c.81,0,1.47.66,1.47,1.47,0,.55-.31,1.04-.76,1.29h.76c1.67,0,3.03,1.36,3.03,3.03,0,.03,0,.06,0,.09h3.16v2.94h-24.26v-2.94h3.1s0-.06,0-.09c0-1.67,1.36-3.03,3.03-3.03h.76c-.45-.25-.76-.73-.76-1.29,0-.81.66-1.47,1.47-1.47h2.33v-4.77"/>
            <g class="cls-15">
              <g>
                <rect class="cls-16" x="227.41" y="50.7" width="14.12" height="2.75"/>
                <rect class="cls-19" x="224.69" y="53.45" width="19.3" height="3.13"/>
              </g>
            </g>
          </g>
          <g>
            <g>
              <path class="cls-16" d="m236.6,45.95c4.87-1.02,8.54-5.3,8.62-10.46v-2.16s0,0,0,0h.63c1.22,0,2.21-.99,2.21-2.21s-.99-2.21-2.21-2.21h-2.27l-7.72-10.66c.49-.4.81-1.02.81-1.7,0-1.22-.99-2.21-2.21-2.21s-2.21.99-2.21,2.21c0,.68.31,1.29.79,1.69l-7.71,10.67h-2.45c-1.22,0-2.21.99-2.21,2.21s.99,2.21,2.21,2.21h.63s0,2.05,0,2.05c.09,5.16,3.79,9.58,8.68,10.58"/>
              <g class="cls-9">
                <g>
                  <rect class="cls-19" x="221.33" y="33.13" width="25.37" height="13.46"/>
                  <rect class="cls-18" x="218.83" y="28.92" width="29.99" height="4.41"/>
                  <circle class="cls-18" cx="234.45" cy="16.57" r="2.21"/>
                </g>
              </g>
            </g>
            <path class="cls-22" d="m245.22,35.49v-2.16s0,0,0,0h.63c1.22,0,2.21-.99,2.21-2.21s-.99-2.21-2.21-2.21h-2.27l-7.72-10.66c.49-.4.81-1.02.81-1.7,0-1.19-.94-2.15-2.11-2.2v31.6h2.06c4.87-1.03,8.54-5.31,8.62-10.46Z"/>
          </g>
          <path class="cls-22" d="m243.37,56.49c0-1.67-1.36-3.03-3.03-3.03h-.76c.45-.25.76-.73.76-1.29,0-.81-.66-1.47-1.47-1.47h-2.27v-4.75h-2.05s0,13.57,0,13.57h11.98v-2.94h-3.16s0-.06,0-.09Z"/>
        </g>
        <g>
          <g>
            <path class="cls-18" d="m103.79,130.64v7.58h3.62c1.3,0,2.35,1.05,2.35,2.35,0,.88-.49,1.65-1.21,2.05h1.21c2.67,0,4.84,2.17,4.84,4.84,0,.05,0,.1,0,.15h5.05v4.7h-38.75v-4.7h4.95s0-.1,0-.15c0-2.67,2.17-4.84,4.84-4.84h1.21c-.72-.4-1.21-1.17-1.21-2.05,0-1.3,1.05-2.35,2.35-2.35h3.72v-7.61"/>
            <g class="cls-8">
              <g>
                <rect class="cls-16" x="89.11" y="138.22" width="22.55" height="4.39"/>
                <rect class="cls-19" x="84.78" y="142.61" width="30.83" height="5"/>
              </g>
            </g>
          </g>
          <g>
            <g>
              <path class="cls-16" d="m103.8,130.63c7.78-1.63,13.64-8.47,13.76-16.7v-3.45s0,0,0,0h1c1.95,0,3.52-1.58,3.52-3.52s-1.58-3.52-3.52-3.52h-3.63l-12.33-17.02c.79-.65,1.29-1.63,1.29-2.72,0-1.95-1.58-3.52-3.52-3.52s-3.52,1.58-3.52,3.52c0,1.09.49,2.06,1.27,2.7l-12.32,17.04h-3.92c-1.95,0-3.52,1.58-3.52,3.52s1.58,3.52,3.52,3.52h1s0,3.28,0,3.28c.15,8.24,6.05,15.3,13.86,16.9"/>
              <g class="cls-6">
                <g>
                  <rect class="cls-19" x="79.4" y="110.15" width="40.51" height="21.5"/>
                  <rect class="cls-18" x="75.42" y="103.44" width="47.9" height="7.04"/>
                  <circle class="cls-18" cx="100.37" cy="83.7" r="3.52"/>
                </g>
              </g>
            </g>
            <path class="cls-22" d="m117.56,113.93v-3.45s0,0,0,0h1c1.95,0,3.52-1.58,3.52-3.52s-1.58-3.52-3.52-3.52h-3.63l-12.33-17.02c.79-.65,1.29-1.63,1.29-2.72,0-1.9-1.5-3.44-3.37-3.51v50.46h3.28c7.78-1.64,13.64-8.48,13.76-16.71Z"/>
          </g>
          <path class="cls-22" d="m114.61,147.47c0-2.67-2.17-4.84-4.84-4.84h-1.21c.72-.4,1.21-1.17,1.21-2.05,0-1.3-1.05-2.35-2.35-2.35h-3.62v-7.58h-3.28s0,21.67,0,21.67h19.13v-4.7h-5.05s0-.1,0-.15Z"/>
        </g>
        <g>
          <g>
            <path class="cls-18" d="m139.44,205.74v7.58h3.62c1.3,0,2.35,1.05,2.35,2.35,0,.88-.49,1.65-1.21,2.05h1.21c2.67,0,4.84,2.17,4.84,4.84,0,.05,0,.1,0,.15h5.05v4.7h-38.75v-4.7h4.95s0-.1,0-.15c0-2.67,2.17-4.84,4.84-4.84h1.21c-.72-.4-1.21-1.17-1.21-2.05,0-1.3,1.05-2.35,2.35-2.35h3.72v-7.61"/>
            <g class="cls-7">
              <g>
                <rect class="cls-16" x="124.76" y="213.32" width="22.55" height="4.39"/>
                <rect class="cls-19" x="120.42" y="217.71" width="30.83" height="5"/>
              </g>
            </g>
          </g>
          <g>
            <g>
              <path class="cls-16" d="m139.45,205.73c7.78-1.63,13.64-8.47,13.76-16.7v-3.45s0,0,0,0h1c1.95,0,3.52-1.58,3.52-3.52s-1.58-3.52-3.52-3.52h-3.63l-12.33-17.02c.79-.65,1.29-1.63,1.29-2.72,0-1.95-1.58-3.52-3.52-3.52s-3.52,1.58-3.52,3.52c0,1.09.49,2.06,1.27,2.7l-12.32,17.04h-3.92c-1.95,0-3.52,1.58-3.52,3.52s1.58,3.52,3.52,3.52h1s0,3.28,0,3.28c.15,8.24,6.05,15.3,13.86,16.9"/>
              <g class="cls-5">
                <g>
                  <rect class="cls-19" x="115.05" y="185.26" width="40.51" height="21.5"/>
                  <rect class="cls-18" x="111.06" y="178.54" width="47.9" height="7.04"/>
                  <circle class="cls-18" cx="136.01" cy="158.81" r="3.52"/>
                </g>
              </g>
            </g>
            <path class="cls-22" d="m153.21,189.03v-3.45s0,0,0,0h1c1.95,0,3.52-1.58,3.52-3.52s-1.58-3.52-3.52-3.52h-3.63l-12.33-17.02c.79-.65,1.29-1.63,1.29-2.72,0-1.9-1.5-3.44-3.37-3.51v50.46h3.28c7.78-1.64,13.64-8.48,13.76-16.71Z"/>
          </g>
          <path class="cls-22" d="m150.25,222.57c0-2.67-2.17-4.84-4.84-4.84h-1.21c.72-.4,1.21-1.17,1.21-2.05,0-1.3-1.05-2.35-2.35-2.35h-3.62v-7.58h-3.28s0,21.67,0,21.67h19.13v-4.7h-5.05s0-.1,0-.15Z"/>
        </g>
        <g>
          <g>
            <path class="cls-18" d="m103.79,280.4v7.58h3.62c1.3,0,2.35,1.05,2.35,2.35,0,.88-.49,1.65-1.21,2.05h1.21c2.67,0,4.84,2.17,4.84,4.84,0,.05,0,.1,0,.15h5.05v4.7h-38.75v-4.7h4.95s0-.1,0-.15c0-2.67,2.17-4.84,4.84-4.84h1.21c-.72-.4-1.21-1.17-1.21-2.05,0-1.3,1.05-2.35,2.35-2.35h3.72v-7.61"/>
            <g class="cls-3">
              <g>
                <rect class="cls-16" x="89.11" y="287.97" width="22.55" height="4.39"/>
                <rect class="cls-19" x="84.78" y="292.37" width="30.83" height="5"/>
              </g>
            </g>
          </g>
          <g>
            <g>
              <path class="cls-16" d="m103.8,280.39c7.78-1.63,13.64-8.47,13.76-16.7v-3.45s0,0,0,0h1c1.95,0,3.52-1.58,3.52-3.52s-1.58-3.52-3.52-3.52h-3.63l-12.33-17.02c.79-.65,1.29-1.63,1.29-2.72,0-1.95-1.58-3.52-3.52-3.52s-3.52,1.58-3.52,3.52c0,1.09.49,2.06,1.27,2.7l-12.32,17.04h-3.92c-1.95,0-3.52,1.58-3.52,3.52s1.58,3.52,3.52,3.52h1s0,3.28,0,3.28c.15,8.24,6.05,15.3,13.86,16.9"/>
              <g class="cls-2">
                <g>
                  <rect class="cls-19" x="79.4" y="259.91" width="40.51" height="21.5"/>
                  <rect class="cls-18" x="75.42" y="253.2" width="47.9" height="7.04"/>
                  <circle class="cls-18" cx="100.37" cy="233.46" r="3.52"/>
                </g>
              </g>
            </g>
            <path class="cls-22" d="m117.56,263.69v-3.45s0,0,0,0h1c1.95,0,3.52-1.58,3.52-3.52s-1.58-3.52-3.52-3.52h-3.63l-12.33-17.02c.79-.65,1.29-1.63,1.29-2.72,0-1.9-1.5-3.44-3.37-3.51v50.46h3.28c7.78-1.64,13.64-8.48,13.76-16.71Z"/>
          </g>
          <path class="cls-22" d="m114.61,297.22c0-2.67-2.17-4.84-4.84-4.84h-1.21c.72-.4,1.21-1.17,1.21-2.05,0-1.3-1.05-2.35-2.35-2.35h-3.62v-7.58h-3.28s0,21.67,0,21.67h19.13v-4.7h-5.05s0-.1,0-.15Z"/>
        </g>
        <g>
          <g>
            <path class="cls-18" d="m179,130.64v7.58h3.62c1.3,0,2.35,1.05,2.35,2.35,0,.88-.49,1.65-1.21,2.05h1.21c2.67,0,4.84,2.17,4.84,4.84,0,.05,0,.1,0,.15h5.05v4.7h-38.75v-4.7h4.95s0-.1,0-.15c0-2.67,2.17-4.84,4.84-4.84h1.21c-.72-.4-1.21-1.17-1.21-2.05,0-1.3,1.05-2.35,2.35-2.35h3.72v-7.61"/>
            <g class="cls-1">
              <g>
                <rect class="cls-16" x="164.32" y="138.22" width="22.55" height="4.39"/>
                <rect class="cls-19" x="159.99" y="142.61" width="30.83" height="5"/>
              </g>
            </g>
          </g>
          <g>
            <g>
              <path class="cls-16" d="m179.01,130.63c7.78-1.63,13.64-8.47,13.76-16.7v-3.45s0,0,0,0h1c1.95,0,3.52-1.58,3.52-3.52s-1.58-3.52-3.52-3.52h-3.63l-12.33-17.02c.79-.65,1.29-1.63,1.29-2.72,0-1.95-1.58-3.52-3.52-3.52s-3.52,1.58-3.52,3.52c0,1.09.49,2.06,1.27,2.7l-12.32,17.04h-3.92c-1.95,0-3.52,1.58-3.52,3.52s1.58,3.52,3.52,3.52h1s0,3.28,0,3.28c.15,8.24,6.05,15.3,13.86,16.9"/>
              <g class="cls-4">
                <g>
                  <rect class="cls-19" x="154.61" y="110.15" width="40.51" height="21.5"/>
                  <rect class="cls-18" x="150.63" y="103.44" width="47.9" height="7.04"/>
                  <circle class="cls-18" cx="175.58" cy="83.7" r="3.52"/>
                </g>
              </g>
            </g>
            <path class="cls-22" d="m192.78,113.93v-3.45s0,0,0,0h1c1.95,0,3.52-1.58,3.52-3.52s-1.58-3.52-3.52-3.52h-3.63l-12.33-17.02c.79-.65,1.29-1.63,1.29-2.72,0-1.9-1.5-3.44-3.37-3.51v50.46h3.28c7.78-1.64,13.64-8.48,13.76-16.71Z"/>
          </g>
          <path class="cls-22" d="m189.82,147.47c0-2.67-2.17-4.84-4.84-4.84h-1.21c.72-.4,1.21-1.17,1.21-2.05,0-1.3-1.05-2.35-2.35-2.35h-3.62v-7.58h-3.28s0,21.67,0,21.67h19.13v-4.7h-5.05s0-.1,0-.15Z"/>
        </g>
        <g>
          <g>
            <path class="cls-18" d="m179,280.4v7.58h3.62c1.3,0,2.35,1.05,2.35,2.35,0,.88-.49,1.65-1.21,2.05h1.21c2.67,0,4.84,2.17,4.84,4.84,0,.05,0,.1,0,.15h5.05v4.7h-38.75v-4.7h4.95s0-.1,0-.15c0-2.67,2.17-4.84,4.84-4.84h1.21c-.72-.4-1.21-1.17-1.21-2.05,0-1.3,1.05-2.35,2.35-2.35h3.72v-7.61"/>
            <g class="cls-14">
              <g>
                <rect class="cls-16" x="164.32" y="287.97" width="22.55" height="4.39"/>
                <rect class="cls-19" x="159.99" y="292.37" width="30.83" height="5"/>
              </g>
            </g>
          </g>
          <g>
            <g>
              <path class="cls-16" d="m179.01,280.39c7.78-1.63,13.64-8.47,13.76-16.7v-3.45s0,0,0,0h1c1.95,0,3.52-1.58,3.52-3.52s-1.58-3.52-3.52-3.52h-3.63l-12.33-17.02c.79-.65,1.29-1.63,1.29-2.72,0-1.95-1.58-3.52-3.52-3.52s-3.52,1.58-3.52,3.52c0,1.09.49,2.06,1.27,2.7l-12.32,17.04h-3.92c-1.95,0-3.52,1.58-3.52,3.52s1.58,3.52,3.52,3.52h1s0,3.28,0,3.28c.15,8.24,6.05,15.3,13.86,16.9"/>
              <g class="cls-13">
                <g>
                  <rect class="cls-19" x="154.61" y="259.91" width="40.51" height="21.5"/>
                  <rect class="cls-18" x="150.63" y="253.2" width="47.9" height="7.04"/>
                  <circle class="cls-18" cx="175.58" cy="233.46" r="3.52"/>
                </g>
              </g>
            </g>
            <path class="cls-22" d="m192.78,263.69v-3.45s0,0,0,0h1c1.95,0,3.52-1.58,3.52-3.52s-1.58-3.52-3.52-3.52h-3.63l-12.33-17.02c.79-.65,1.29-1.63,1.29-2.72,0-1.9-1.5-3.44-3.37-3.51v50.46h3.28c7.78-1.64,13.64-8.48,13.76-16.71Z"/>
          </g>
          <path class="cls-22" d="m189.82,297.22c0-2.67-2.17-4.84-4.84-4.84h-1.21c.72-.4,1.21-1.17,1.21-2.05,0-1.3-1.05-2.35-2.35-2.35h-3.62v-7.58h-3.28s0,21.67,0,21.67h19.13v-4.7h-5.05s0-.1,0-.15Z"/>
        </g>
        <g>
          <g>
            <path class="cls-18" d="m42.5,352.6v4.75h2.27c.81,0,1.47.66,1.47,1.47,0,.55-.31,1.04-.76,1.29h.76c1.67,0,3.03,1.36,3.03,3.03,0,.03,0,.06,0,.09h3.16v2.94h-24.26v-2.94h3.1s0-.06,0-.09c0-1.67,1.36-3.03,3.03-3.03h.76c-.45-.25-.76-.73-.76-1.29,0-.81.66-1.47,1.47-1.47h2.33v-4.77"/>
            <g class="cls-12">
              <g>
                <rect class="cls-16" x="33.31" y="357.34" width="14.12" height="2.75"/>
                <rect class="cls-19" x="30.6" y="360.09" width="19.3" height="3.13"/>
              </g>
            </g>
          </g>
          <g>
            <g>
              <path class="cls-16" d="m42.51,352.59c4.87-1.02,8.54-5.3,8.62-10.46v-2.16s0,0,0,0h.63c1.22,0,2.21-.99,2.21-2.21s-.99-2.21-2.21-2.21h-2.27l-7.72-10.66c.49-.4.81-1.02.81-1.7,0-1.22-.99-2.21-2.21-2.21s-2.21.99-2.21,2.21c0,.68.31,1.29.79,1.69l-7.71,10.67h-2.45c-1.22,0-2.21.99-2.21,2.21s.99,2.21,2.21,2.21h.63s0,2.05,0,2.05c.09,5.16,3.79,9.58,8.68,10.58"/>
              <g class="cls-11">
                <g>
                  <rect class="cls-19" x="27.23" y="339.77" width="25.37" height="13.46"/>
                  <rect class="cls-18" x="24.74" y="335.57" width="29.99" height="4.41"/>
                  <circle class="cls-18" cx="40.36" cy="323.21" r="2.21"/>
                </g>
              </g>
            </g>
            <path class="cls-22" d="m51.13,342.13v-2.16s0,0,0,0h.63c1.22,0,2.21-.99,2.21-2.21s-.99-2.21-2.21-2.21h-2.27l-7.72-10.66c.49-.4.81-1.02.81-1.7,0-1.19-.94-2.15-2.11-2.2v31.6h2.06c4.87-1.03,8.54-5.31,8.62-10.46Z"/>
          </g>
          <path class="cls-22" d="m49.27,363.13c0-1.67-1.36-3.03-3.03-3.03h-.76c.45-.25.76-.73.76-1.29,0-.81-.66-1.47-1.47-1.47h-2.27v-4.75h-2.05s0,13.57,0,13.57h11.98v-2.94h-3.16s0-.06,0-.09Z"/>
        </g>
        <path class="cls-17" d="m33.96,32.81c.96-.13,2.56-.19,3.26-.19,8.83,0,14.53,4.42,14.53,11.39s-5.25,11.2-12.8,11.2c-3.46,0-6.4-.96-8.51-2.5-.96-.7-1.66-1.41-1.66-2.11,0-.77.77-1.79,1.73-1.79.58,0,1.02.38,1.98,1.02,1.92,1.34,4.03,1.98,6.4,1.98,5.25,0,8.9-2.94,8.9-7.68s-4.1-8.26-11.07-8.26c-1.6,0-3.39.13-4.16.13-1.79,0-2.24-.7-2.11-2.5l.7-12.74c.06-1.47.77-2.11,2.24-2.11h14.85c1.15,0,1.73.58,1.73,1.73s-.58,1.73-1.73,1.73h-13.7l-.58,10.69Z"/>
      </g>
    </g>
  </g>
</svg>