<?xml version="1.0" encoding="UTF-8"?>
<svg xmlns="http://www.w3.org/2000/svg" xmlns:xlink="http://www.w3.org/1999/xlink" viewBox="0 0 269.74 379.43">
  <defs>
    <style>
      .cls-1 {
        clip-path: url(#clippath-8);
      }

      .cls-1, .cls-2, .cls-3, .cls-4, .cls-5, .cls-6, .cls-7, .cls-8, .cls-9, .cls-10, .cls-11, .cls-12, .cls-13, .cls-14, .cls-15, .cls-16, .cls-17, .cls-18 {
        fill: none;
      }

      .cls-2 {
        clip-path: url(#clippath-7);
      }

      .cls-3 {
        clip-path: url(#clippath-6);
      }

      .cls-4 {
        clip-path: url(#clippath-9);
      }

      .cls-5 {
        clip-path: url(#clippath-5);
      }

      .cls-6 {
        clip-path: url(#clippath-3);
      }

      .cls-7 {
        clip-path: url(#clippath-4);
      }

      .cls-8 {
        clip-path: url(#clippath-2);
      }

      .cls-9 {
        clip-path: url(#clippath-1);
      }

      .cls-10 {
        isolation: isolate;
      }

      .cls-19, .cls-20, .cls-21 {
        fill: #fff;
      }

      .cls-22 {
        fill: #e5332a;
      }

      .cls-23 {
        fill: #753520;
      }

      .cls-24 {
        fill: #686868;
      }

      .cls-25 {
        fill: #c37b2f;
      }

      .cls-26 {
        fill: #ce6f40;
      }

      .cls-27 {
        fill: #cf7656;
      }

      .cls-28 {
        fill: #ae2423;
      }

      .cls-29 {
        fill: #d1895c;
      }

      .cls-30 {
        fill: #d38836;
      }

      .cls-31 {
        fill: #c79740;
      }

      .cls-32 {
        fill: #daac4f;
      }

      .cls-33 {
        fill: #cc5e3d;
      }

      .cls-34 {
        fill: #c6c6c5;
      }

      .cls-35 {
        fill: #1c5788;
      }

      .cls-36 {
        fill: #1d1d1b;
      }

      .cls-37 {
        fill: #2f475f;
      }

      .cls-20 {
        stroke: #a3a3a3;
        stroke-width: 2px;
      }

      .cls-20, .cls-38, .cls-16, .cls-18 {
        stroke-miterlimit: 10;
      }

      .cls-38 {
        fill: #f2f2f2;
        stroke: #686868;
        stroke-width: 4px;
      }

      .cls-11 {
        clip-path: url(#clippath-13);
      }

      .cls-12 {
        clip-path: url(#clippath-14);
      }

      .cls-13 {
        clip-path: url(#clippath-12);
      }

      .cls-14 {
        clip-path: url(#clippath-11);
      }

      .cls-15 {
        clip-path: url(#clippath-10);
      }

      .cls-39 {
        fill: url(#Degradado_sin_nombre_28);
      }

      .cls-16 {
        stroke-linecap: round;
        stroke-width: 2.49px;
      }

      .cls-16, .cls-18 {
        stroke: #d38836;
      }

      .cls-40 {
        fill: url(#Degradado_sin_nombre_28-2);
      }

      .cls-17 {
        clip-path: url(#clippath);
      }

      .cls-41 {
        mix-blend-mode: multiply;
        opacity: .2;
      }

      .cls-21 {
        opacity: .69;
      }

      .cls-18 {
        stroke-width: 2.74px;
      }
    </style>
    <clipPath id="clippath">
      <path class="cls-35" d="m187.33,290.93h-98.81c-5.64,0-10.21-4.57-10.21-10.21v-68.33c0-26.98,26.42-48.84,59.01-48.84h1.19c32.59,0,59.01,21.87,59.01,48.84v68.33c0,5.64-4.57,10.21-10.21,10.21Z"/>
    </clipPath>
    <clipPath id="clippath-1">
      <path class="cls-22" d="m170.31,317.15h-64.7v-94.89c0-32.59,14.34-59.01,32.03-59.01h.65c17.69,0,32.03,26.42,32.03,59.01v94.89Z"/>
    </clipPath>
    <clipPath id="clippath-2">
      <path class="cls-29" d="m107.58,104h58.32v44.34c0,16.09-13.07,29.16-29.16,29.16h0c-16.09,0-29.16-13.07-29.16-29.16v-44.34h0Z"/>
    </clipPath>
    <clipPath id="clippath-3">
      <path class="cls-22" d="m130.08,85.19c4.42,4.48,6.75,10.25,6.98,16.08.32-5.83,2.72-11.56,7.2-15.98,4.66-4.6,10.7-6.92,16.77-7,.3-6.53-2.02-13.15-6.97-18.17-9.43-9.56-24.81-9.66-34.37-.24-5.02,4.95-7.43,11.54-7.22,18.07,6.38-.08,12.78,2.33,17.62,7.23Z"/>
    </clipPath>
    <clipPath id="clippath-4">
      <path class="cls-19" d="m122.63,139.31c4.3,0,7.78-2.19,7.78-4.88h-15.57c0,2.7,3.48,4.88,7.78,4.88"/>
    </clipPath>
    <radialGradient id="Degradado_sin_nombre_28" data-name="Degradado sin nombre 28" cx="122.96" cy="136.3" fx="122.96" fy="136.3" r="3.8" gradientUnits="userSpaceOnUse">
      <stop offset="0" stop-color="#b6781f"/>
      <stop offset=".15" stop-color="#ad721e"/>
      <stop offset=".38" stop-color="#95611d"/>
      <stop offset=".68" stop-color="#6e471c"/>
      <stop offset="1" stop-color="#3c251a"/>
    </radialGradient>
    <clipPath id="clippath-5">
      <path class="cls-19" d="m150.93,139.31c4.3,0,7.78-2.19,7.78-4.88h-15.57c0,2.7,3.48,4.88,7.78,4.88"/>
    </clipPath>
    <radialGradient id="Degradado_sin_nombre_28-2" data-name="Degradado sin nombre 28" cx="151.27" fx="151.27" xlink:href="#Degradado_sin_nombre_28"/>
    <clipPath id="clippath-6">
      <path class="cls-31" d="m138.65,97.44c0-1.14-.92-2.06-2.06-2.06s-2.06.92-2.06,2.06.92,2.06,2.06,2.06,2.06-.92,2.06-2.06"/>
    </clipPath>
    <clipPath id="clippath-7">
      <circle class="cls-32" cx="136.52" cy="232.67" r="3.17"/>
    </clipPath>
    <clipPath id="clippath-8">
      <circle class="cls-32" cx="136.52" cy="250.98" r="3.17"/>
    </clipPath>
    <clipPath id="clippath-9">
      <rect class="cls-32" x="105.58" y="261.03" width="64.7" height="15.99"/>
    </clipPath>
    <clipPath id="clippath-10">
      <circle class="cls-22" cx="136.52" cy="269.26" r="3.17"/>
    </clipPath>
    <clipPath id="clippath-11">
      <path class="cls-32" d="m236.6,45.95v4.75h2.27c.81,0,1.47.66,1.47,1.47,0,.55-.31,1.04-.76,1.29h.76c1.67,0,3.03,1.36,3.03,3.03,0,.03,0,.06,0,.09h3.16v2.94h-24.26v-2.94h3.1s0-.06,0-.09c0-1.67,1.36-3.03,3.03-3.03h.76c-.45-.25-.76-.73-.76-1.29,0-.81.66-1.47,1.47-1.47h2.33v-4.77"/>
    </clipPath>
    <clipPath id="clippath-12">
      <path class="cls-22" d="m236.6,45.95c4.87-1.02,8.54-5.3,8.62-10.46v-2.16s0,0,0,0h.63c1.22,0,2.21-.99,2.21-2.21s-.99-2.21-2.21-2.21h-2.27l-7.72-10.66c.49-.4.81-1.02.81-1.7,0-1.22-.99-2.21-2.21-2.21s-2.21.99-2.21,2.21c0,.68.31,1.29.79,1.69l-7.71,10.67h-2.45c-1.22,0-2.21.99-2.21,2.21s.99,2.21,2.21,2.21h.63s0,2.05,0,2.05c.09,5.16,3.79,9.58,8.68,10.58"/>
    </clipPath>
    <clipPath id="clippath-13">
      <path class="cls-32" d="m42.5,352.6v4.75h2.27c.81,0,1.47.66,1.47,1.47,0,.55-.31,1.04-.76,1.29h.76c1.67,0,3.03,1.36,3.03,3.03,0,.03,0,.06,0,.09h3.16v2.94h-24.26v-2.94h3.1s0-.06,0-.09c0-1.67,1.36-3.03,3.03-3.03h.76c-.45-.25-.76-.73-.76-1.29,0-.81.66-1.47,1.47-1.47h2.33v-4.77"/>
    </clipPath>
    <clipPath id="clippath-14">
      <path class="cls-22" d="m42.51,352.59c4.87-1.02,8.54-5.3,8.62-10.46v-2.16s0,0,0,0h.63c1.22,0,2.21-.99,2.21-2.21s-.99-2.21-2.21-2.21h-2.27l-7.72-10.66c.49-.4.81-1.02.81-1.7,0-1.22-.99-2.21-2.21-2.21s-2.21.99-2.21,2.21c0,.68.31,1.29.79,1.69l-7.71,10.67h-2.45c-1.22,0-2.21.99-2.21,2.21s.99,2.21,2.21,2.21h.63s0,2.05,0,2.05c.09,5.16,3.79,9.58,8.68,10.58"/>
    </clipPath>
  </defs>
  <g class="cls-10">
    <g id="Capa_2" data-name="Capa 2">
      <g id="Capa_1-2" data-name="Capa 1">
        <rect class="cls-38" x="2" y="2" width="265.74" height="375.43" rx="19.9" ry="19.9"/>
        <rect class="cls-20" x="53.76" y="65.05" width="164.22" height="252.58" rx="5.69" ry="5.69"/>
        <g>
          <g>
            <path class="cls-35" d="m187.33,290.93h-98.81c-5.64,0-10.21-4.57-10.21-10.21v-68.33c0-26.98,26.42-48.84,59.01-48.84h1.19c32.59,0,59.01,21.87,59.01,48.84v68.33c0,5.64-4.57,10.21-10.21,10.21Z"/>
            <g class="cls-17">
              <rect class="cls-37" x="147.06" y="159.31" width="56.98" height="131.33"/>
            </g>
          </g>
          <g>
            <path class="cls-22" d="m170.31,317.15h-64.7v-94.89c0-32.59,14.34-59.01,32.03-59.01h.65c17.69,0,32.03,26.42,32.03,59.01v94.89Z"/>
            <g class="cls-9">
              <rect class="cls-28" x="136.63" y="155.9" width="46.19" height="163.71"/>
            </g>
          </g>
          <path class="cls-23" d="m115.32,77.36h42.83c12.46,0,22.58,10.12,22.58,22.58v40.52c0,10.06-8.17,18.22-18.22,18.22h-51.54c-10.06,0-18.22-8.17-18.22-18.22v-40.52c0-12.46,10.12-22.58,22.58-22.58Z"/>
          <g>
            <path class="cls-29" d="m107.58,104h58.32v44.34c0,16.09-13.07,29.16-29.16,29.16h0c-16.09,0-29.16-13.07-29.16-29.16v-44.34h0Z"/>
            <g class="cls-8">
              <rect class="cls-26" x="136.66" y="103.45" width="39.39" height="74.79"/>
            </g>
          </g>
          <g>
            <circle class="cls-23" cx="114.78" cy="103.45" r="22.14"/>
            <circle class="cls-23" cx="158.61" cy="104.13" r="22.14"/>
          </g>
          <g>
            <path class="cls-22" d="m130.08,85.19c4.42,4.48,6.75,10.25,6.98,16.08.32-5.83,2.72-11.56,7.2-15.98,4.66-4.6,10.7-6.92,16.77-7,.3-6.53-2.02-13.15-6.97-18.17-9.43-9.56-24.81-9.66-34.37-.24-5.02,4.95-7.43,11.54-7.22,18.07,6.38-.08,12.78,2.33,17.62,7.23Z"/>
            <g class="cls-6">
              <rect class="cls-28" x="136.88" y="52.06" width="30.51" height="48.52"/>
            </g>
          </g>
          <path class="cls-27" d="m130.56,150.63c0-4.55-3.68-8.23-8.23-8.23s-8.23,3.68-8.23,8.23,3.68,8.23,8.23,8.23,8.23-3.68,8.23-8.23"/>
          <path class="cls-33" d="m159.48,150.63c0-4.55-3.68-8.23-8.23-8.23s-8.23,3.68-8.23,8.23,3.68,8.23,8.23,8.23,8.23-3.68,8.23-8.23"/>
          <path class="cls-19" d="m136.74,169.32c4.54,0,8.23-3.68,8.23-8.23h-16.46c0,4.55,3.68,8.23,8.23,8.23"/>
          <path class="cls-26" d="m136.74,121.33v2.3c.03-.38.05-.76.05-1.15,0-.25,0-.49-.02-.73,0-.14-.02-.28-.03-.41"/>
          <path class="cls-34" d="m144.97,161.09h-8.23v8.23h0c1.53,0,2.97-.42,4.2-1.15,2.41-1.43,4.03-4.07,4.03-7.08"/>
          <polygon class="cls-23" points="159.47 134.43 136.91 134.43 114.35 134.43 114.35 132.94 114.35 131.44 136.91 133.12 159.47 131.44 159.47 132.94 159.47 134.43"/>
          <g>
            <path class="cls-19" d="m122.63,139.31c4.3,0,7.78-2.19,7.78-4.88h-15.57c0,2.7,3.48,4.88,7.78,4.88"/>
            <g class="cls-7">
              <g>
                <circle class="cls-39" cx="122.96" cy="136.3" r="3.8"/>
                <circle class="cls-36" cx="122.96" cy="136.3" r="1.7"/>
                <circle class="cls-21" cx="124.14" cy="135.22" r=".85"/>
              </g>
            </g>
          </g>
          <g>
            <path class="cls-19" d="m150.93,139.31c4.3,0,7.78-2.19,7.78-4.88h-15.57c0,2.7,3.48,4.88,7.78,4.88"/>
            <g class="cls-5">
              <g>
                <circle class="cls-40" cx="151.27" cy="136.3" r="3.8"/>
                <circle class="cls-36" cx="151.27" cy="136.3" r="1.7"/>
                <circle class="cls-21" cx="152.44" cy="135.22" r=".85"/>
              </g>
            </g>
          </g>
          <g>
            <path class="cls-31" d="m138.65,97.44c0-1.14-.92-2.06-2.06-2.06s-2.06.92-2.06,2.06.92,2.06,2.06,2.06,2.06-.92,2.06-2.06"/>
            <g class="cls-3">
              <rect class="cls-25" x="136.66" y="94.09" width="3.21" height="6.92"/>
            </g>
          </g>
          <g>
            <circle class="cls-32" cx="136.52" cy="232.67" r="3.17"/>
            <g class="cls-2">
              <rect class="cls-30" x="136.64" y="228.57" width="5.21" height="8.45"/>
            </g>
          </g>
          <g>
            <circle class="cls-32" cx="136.52" cy="250.98" r="3.17"/>
            <g class="cls-1">
              <rect class="cls-30" x="136.64" y="246.88" width="5.21" height="8.45"/>
            </g>
          </g>
          <g>
            <rect class="cls-32" x="105.58" y="261.03" width="64.7" height="15.99"/>
            <g class="cls-4">
              <rect class="cls-30" x="136.63" y="260.68" width="34.04" height="17.07"/>
            </g>
          </g>
          <path class="cls-29" d="m99.7,270.37c8.73-.18,15.75-7.31,15.75-16.08s-7.02-15.9-15.75-16.08v32.16Z"/>
          <g>
            <circle class="cls-22" cx="136.52" cy="269.26" r="3.17"/>
            <g class="cls-15">
              <rect class="cls-28" x="136.61" y="265.57" width="5.21" height="7.41"/>
            </g>
          </g>
          <g>
            <line class="cls-18" x1="196.24" y1="180.02" x2="157.32" y2="274.36"/>
            <circle class="cls-30" cx="195.85" cy="180.96" r="4.57"/>
          </g>
          <path class="cls-26" d="m175.64,238.21h0c-2.73.06-5.29.79-7.52,2.04-.8.45-1.55.96-2.26,1.53-1.2.97-2.25,2.11-3.13,3.38h0c-.05.07-.09.14-.14.2-1.71,2.55-2.7,5.62-2.7,8.92,0,3.59,1.17,6.9,3.16,9.57h0c.35.48.73.93,1.13,1.36,2.87,3.09,6.94,5.06,11.46,5.15v-32.16Z"/>
        </g>
        <g>
          <g>
            <path class="cls-32" d="m236.6,45.95v4.75h2.27c.81,0,1.47.66,1.47,1.47,0,.55-.31,1.04-.76,1.29h.76c1.67,0,3.03,1.36,3.03,3.03,0,.03,0,.06,0,.09h3.16v2.94h-24.26v-2.94h3.1s0-.06,0-.09c0-1.67,1.36-3.03,3.03-3.03h.76c-.45-.25-.76-.73-.76-1.29,0-.81.66-1.47,1.47-1.47h2.33v-4.77"/>
            <g class="cls-14">
              <g>
                <rect class="cls-22" x="227.41" y="50.7" width="14.12" height="2.75"/>
                <rect class="cls-35" x="224.69" y="53.45" width="19.3" height="3.13"/>
              </g>
            </g>
          </g>
          <g>
            <g>
              <path class="cls-22" d="m236.6,45.95c4.87-1.02,8.54-5.3,8.62-10.46v-2.16s0,0,0,0h.63c1.22,0,2.21-.99,2.21-2.21s-.99-2.21-2.21-2.21h-2.27l-7.72-10.66c.49-.4.81-1.02.81-1.7,0-1.22-.99-2.21-2.21-2.21s-2.21.99-2.21,2.21c0,.68.31,1.29.79,1.69l-7.71,10.67h-2.45c-1.22,0-2.21.99-2.21,2.21s.99,2.21,2.21,2.21h.63s0,2.05,0,2.05c.09,5.16,3.79,9.58,8.68,10.58"/>
              <g class="cls-13">
                <g>
                  <rect class="cls-35" x="221.33" y="33.13" width="25.37" height="13.46"/>
                  <rect class="cls-32" x="218.83" y="28.92" width="29.99" height="4.41"/>
                  <circle class="cls-32" cx="234.45" cy="16.57" r="2.21"/>
                </g>
              </g>
            </g>
            <path class="cls-41" d="m245.22,35.49v-2.16s0,0,0,0h.63c1.22,0,2.21-.99,2.21-2.21s-.99-2.21-2.21-2.21h-2.27l-7.72-10.66c.49-.4.81-1.02.81-1.7,0-1.19-.94-2.15-2.11-2.2v31.6h2.06c4.87-1.03,8.54-5.31,8.62-10.46Z"/>
          </g>
          <path class="cls-41" d="m243.37,56.49c0-1.67-1.36-3.03-3.03-3.03h-.76c.45-.25.76-.73.76-1.29,0-.81-.66-1.47-1.47-1.47h-2.27v-4.75h-2.05s0,13.57,0,13.57h11.98v-2.94h-3.16s0-.06,0-.09Z"/>
        </g>
        <g>
          <g>
            <path class="cls-32" d="m42.5,352.6v4.75h2.27c.81,0,1.47.66,1.47,1.47,0,.55-.31,1.04-.76,1.29h.76c1.67,0,3.03,1.36,3.03,3.03,0,.03,0,.06,0,.09h3.16v2.94h-24.26v-2.94h3.1s0-.06,0-.09c0-1.67,1.36-3.03,3.03-3.03h.76c-.45-.25-.76-.73-.76-1.29,0-.81.66-1.47,1.47-1.47h2.33v-4.77"/>
            <g class="cls-11">
              <g>
                <rect class="cls-22" x="33.31" y="357.34" width="14.12" height="2.75"/>
                <rect class="cls-35" x="30.6" y="360.09" width="19.3" height="3.13"/>
              </g>
            </g>
          </g>
          <g>
            <g>
              <path class="cls-22" d="m42.51,352.59c4.87-1.02,8.54-5.3,8.62-10.46v-2.16s0,0,0,0h.63c1.22,0,2.21-.99,2.21-2.21s-.99-2.21-2.21-2.21h-2.27l-7.72-10.66c.49-.4.81-1.02.81-1.7,0-1.22-.99-2.21-2.21-2.21s-2.21.99-2.21,2.21c0,.68.31,1.29.79,1.69l-7.71,10.67h-2.45c-1.22,0-2.21.99-2.21,2.21s.99,2.21,2.21,2.21h.63s0,2.05,0,2.05c.09,5.16,3.79,9.58,8.68,10.58"/>
              <g class="cls-12">
                <g>
                  <rect class="cls-35" x="27.23" y="339.77" width="25.37" height="13.46"/>
                  <rect class="cls-32" x="24.74" y="335.57" width="29.99" height="4.41"/>
                  <circle class="cls-32" cx="40.36" cy="323.21" r="2.21"/>
                </g>
              </g>
            </g>
            <path class="cls-41" d="m51.13,342.13v-2.16s0,0,0,0h.63c1.22,0,2.21-.99,2.21-2.21s-.99-2.21-2.21-2.21h-2.27l-7.72-10.66c.49-.4.81-1.02.81-1.7,0-1.19-.94-2.15-2.11-2.2v31.6h2.06c4.87-1.03,8.54-5.31,8.62-10.46Z"/>
          </g>
          <path class="cls-41" d="m49.27,363.13c0-1.67-1.36-3.03-3.03-3.03h-.76c.45-.25.76-.73.76-1.29,0-.81-.66-1.47-1.47-1.47h-2.27v-4.75h-2.05s0,13.57,0,13.57h11.98v-2.94h-3.16s0-.06,0-.09Z"/>
        </g>
        <g>
          <path class="cls-24" d="m25.61,24.25c-.29.12-.62.29-1,.29-.62,0-1-.62-1-1.17,0-.58.42-.83,1.04-1.17l5.5-2.79c.58-.29,1.17-.54,1.83-.54,1.17,0,1.17.83,1.17,1.33v18.5c0,.75-.42,1.12-1.25,1.12-.88,0-1.29-.37-1.29-1.12v-17.04l-5,2.58Z"/>
          <path class="cls-24" d="m44.64,57.87h10.62c.75,0,1.12.38,1.12,1.12s-.38,1.12-1.12,1.12h-12.46c-.83,0-1.29-.42-1.29-1.21,0-.62.25-1.04,1.04-1.71,5.71-4.96,10.37-7.5,10.37-11.62,0-2.46-1.75-4.04-4.83-4.04-1.71,0-3.12.46-4.25,1.33-.71.54-.96.87-1.33.87-.58,0-1.08-.62-1.08-1.17,0-.5.54-1.08,1.12-1.5,1.42-1.12,3.33-1.75,5.67-1.75,4.25,0,7.25,2,7.25,6,0,5.25-5.29,8.08-10.83,12.54Z"/>
          <line class="cls-16" x1="46.24" y1="19.19" x2="29.07" y2="60.06"/>
        </g>
        <g>
          <path class="cls-24" d="m219.71,330.89c-.29.12-.62.29-1,.29-.62,0-1-.62-1-1.17,0-.58.42-.83,1.04-1.17l5.5-2.79c.58-.29,1.17-.54,1.83-.54,1.17,0,1.17.83,1.17,1.33v18.5c0,.75-.42,1.12-1.25,1.12-.88,0-1.29-.37-1.29-1.12v-17.04l-5,2.58Z"/>
          <path class="cls-24" d="m238.73,364.51h10.62c.75,0,1.12.38,1.12,1.12s-.38,1.12-1.12,1.12h-12.46c-.83,0-1.29-.42-1.29-1.21,0-.62.25-1.04,1.04-1.71,5.71-4.96,10.37-7.5,10.37-11.62,0-2.46-1.75-4.04-4.83-4.04-1.71,0-3.12.46-4.25,1.33-.71.54-.96.87-1.33.87-.58,0-1.08-.62-1.08-1.17,0-.5.54-1.08,1.12-1.5,1.42-1.12,3.33-1.75,5.67-1.75,4.25,0,7.25,2,7.25,6,0,5.25-5.29,8.08-10.83,12.54Z"/>
          <line class="cls-16" x1="240.33" y1="325.83" x2="223.17" y2="366.7"/>
        </g>
      </g>
    </g>
  </g>
</svg>