<?xml version="1.0" encoding="UTF-8"?>
<svg xmlns="http://www.w3.org/2000/svg" viewBox="0 0 269.74 379.43">
  <defs>
    <style>
      .cls-1 {
        fill: none;
        isolation: isolate;
      }

      .cls-2 {
        fill: #686868;
      }

      .cls-3 {
        fill: #b3f4ff;
      }

      .cls-4 {
        fill: #daac4f;
      }

      .cls-5 {
        fill: #1c5788;
      }

      .cls-6 {
        fill: #5cba09;
      }

      .cls-7 {
        fill: #fff;
        stroke: #a3a3a3;
        stroke-width: 2px;
      }

      .cls-7, .cls-8 {
        stroke-miterlimit: 10;
      }

      .cls-8 {
        fill: #f2f2f2;
        stroke: #686868;
        stroke-width: 4px;
      }

      .cls-9 {
        mix-blend-mode: multiply;
        opacity: .2;
      }
    </style>
  </defs>
  <g class="cls-1">
    <g id="Capa_2" data-name="Capa 2">
      <g id="Capa_1-2" data-name="Capa 1">
        <rect class="cls-8" x="2" y="2" width="265.74" height="375.43" rx="19.9" ry="19.9"/>
        <path class="cls-2" d="m230.81,343.29c5.89-.19,9.28-2.5,9.28-6.46,0-3.65-2.75-6.02-7.62-6.02-2.5,0-4.61.64-6.4,1.98-1.09.7-1.47,1.28-2.11,1.28-.83,0-1.6-.96-1.6-1.79,0-.77.83-1.6,1.79-2.24,2.05-1.54,4.8-2.62,8.64-2.62,6.91,0,11.26,3.46,11.26,8.83,0,4.29-2.94,7.42-7.81,8.38,5.57.83,8.96,4.35,8.96,9.47,0,6.27-5.25,10.37-12.61,10.37-3.52,0-6.53-1.02-8.7-2.56-1.02-.7-1.6-1.34-1.6-2.05,0-.77.77-1.86,1.66-1.86.58,0,1.02.45,1.98,1.02,2.05,1.41,4.29,2.05,6.66,2.05,5.12,0,8.64-2.75,8.64-7.17,0-2.94-1.6-5.57-6.14-6.78-1.41-.38-2.88-.51-4.99-.51-1.73,0-2.88.06-2.88-1.6s1.34-1.66,3.58-1.73Z"/>
        <rect class="cls-7" x="53.76" y="65.05" width="164.22" height="252.58" rx="5.69" ry="5.69"/>
        <path class="cls-2" d="m37.32,34.28c5.89-.19,9.28-2.5,9.28-6.46,0-3.65-2.75-6.02-7.62-6.02-2.5,0-4.61.64-6.4,1.98-1.09.7-1.47,1.28-2.11,1.28-.83,0-1.6-.96-1.6-1.79,0-.77.83-1.6,1.79-2.24,2.05-1.54,4.8-2.62,8.64-2.62,6.91,0,11.26,3.46,11.26,8.83,0,4.29-2.94,7.42-7.81,8.38,5.57.83,8.96,4.35,8.96,9.47,0,6.27-5.25,10.37-12.61,10.37-3.52,0-6.53-1.02-8.7-2.56-1.02-.7-1.6-1.34-1.6-2.05,0-.77.77-1.86,1.66-1.86.58,0,1.02.45,1.98,1.02,2.05,1.41,4.29,2.05,6.66,2.05,5.12,0,8.64-2.75,8.64-7.17,0-2.94-1.6-5.57-6.14-6.78-1.41-.38-2.88-.51-4.99-.51-1.73,0-2.88.06-2.88-1.6s1.34-1.66,3.58-1.73Z"/>
        <g>
          <g>
            <circle class="cls-4" cx="234.03" cy="16.28" r="2.22"/>
            <path class="cls-5" d="m234.03,18.41h0c1.42,0,2.57,1.15,2.57,2.57v10.89h-5.14v-10.89c0-1.42,1.15-2.57,2.57-2.57Z"/>
            <polygon class="cls-3" points="236.49 55.85 233.92 59.52 231.35 55.85 231.35 29.67 236.49 29.67 236.49 55.85"/>
            <rect class="cls-4" x="225.22" y="28.73" width="17.62" height="4.45" rx="2.22" ry="2.22"/>
            <path class="cls-9" d="m236.49,55.85v-22.67h4.13c1.23,0,2.22-1,2.22-2.22s-1-2.22-2.22-2.22h-4.02v-7.75c0-1.27-.92-2.32-2.13-2.53,1.02-.21,1.78-1.1,1.78-2.18,0-1.23-1-2.22-2.22-2.22-.04,0-.08,0-.11,0v45.46h0s2.57-3.67,2.57-3.67Z"/>
          </g>
          <g>
            <circle class="cls-4" cx="39.93" cy="364.09" r="2.22"/>
            <path class="cls-5" d="m37.37,348.5h5.14v10.89c0,1.42-1.15,2.57-2.57,2.57h0c-1.42,0-2.57-1.15-2.57-2.57v-10.89h0Z"/>
            <polygon class="cls-3" points="42.39 324.52 39.82 320.85 37.25 324.52 37.25 350.7 42.39 350.7 42.39 324.52"/>
            <rect class="cls-4" x="31.13" y="347.19" width="17.62" height="4.45" rx="2.22" ry="2.22"/>
            <path class="cls-9" d="m42.39,324.52v22.67s4.13,0,4.13,0c1.23,0,2.22,1,2.22,2.22,0,1.23-1,2.22-2.22,2.22h-4.02s0,7.75,0,7.75c0,1.27-.92,2.32-2.13,2.53,1.02.21,1.78,1.1,1.78,2.18,0,1.23-1,2.22-2.22,2.22-.04,0-.08,0-.11,0v-45.46h0s2.57,3.67,2.57,3.67Z"/>
          </g>
        </g>
        <g>
          <polygon class="cls-6" points="89.34 251.65 65.8 132.89 112.89 132.89 89.34 251.65"/>
          <polygon class="cls-6" points="177.6 251.65 154.06 132.89 201.15 132.89 177.6 251.65"/>
          <polygon class="cls-6" points="133.41 130.06 156.96 248.83 109.86 248.83 133.41 130.06"/>
        </g>
      </g>
    </g>
  </g>
</svg>