<?xml version="1.0" encoding="UTF-8"?>
<svg xmlns="http://www.w3.org/2000/svg" viewBox="0 0 269.74 379.43">
  <defs>
    <style>
      .cls-1 {
        fill: none;
        isolation: isolate;
      }

      .cls-2 {
        fill: #686868;
      }

      .cls-3 {
        fill: #b3f4ff;
      }

      .cls-4 {
        fill: #daac4f;
      }

      .cls-5 {
        fill: #1c5788;
      }

      .cls-6 {
        fill: #5cba09;
      }

      .cls-7 {
        fill: #fff;
        stroke: #a3a3a3;
        stroke-width: 2px;
      }

      .cls-7, .cls-8 {
        stroke-miterlimit: 10;
      }

      .cls-8 {
        fill: #f2f2f2;
        stroke: #686868;
        stroke-width: 4px;
      }

      .cls-9 {
        mix-blend-mode: multiply;
        opacity: .2;
      }
    </style>
  </defs>
  <g class="cls-1">
    <g id="Capa_2" data-name="Capa 2">
      <g id="Capa_1-2" data-name="Capa 1">
        <rect class="cls-8" x="2" y="2" width="265.74" height="375.43" rx="19.9" ry="19.9"/>
        <path class="cls-2" d="m223.9,331.45c-1.15,0-1.73-.58-1.73-1.79,0-1.15.58-1.73,1.73-1.73h20.03c1.22,0,1.86.58,1.86,1.73,0,.7-.26,1.41-.58,2.24l-13.63,30.4c-.51,1.28-.9,2.11-2.56,2.11-1.34,0-1.79-.45-1.79-1.15,0-.51.26-1.09.51-1.73l13.95-30.08h-17.79Z"/>
        <rect class="cls-7" x="53.76" y="65.05" width="164.22" height="252.58" rx="5.69" ry="5.69"/>
        <path class="cls-2" d="m29.96,22.19c-1.15,0-1.73-.58-1.73-1.79,0-1.15.58-1.73,1.73-1.73h20.03c1.22,0,1.86.58,1.86,1.73,0,.7-.26,1.41-.58,2.24l-13.63,30.4c-.51,1.28-.9,2.11-2.56,2.11-1.34,0-1.79-.45-1.79-1.15,0-.51.26-1.09.51-1.73l13.95-30.08h-17.79Z"/>
        <g>
          <g>
            <circle class="cls-4" cx="234.71" cy="16.28" r="2.22"/>
            <path class="cls-5" d="m234.71,18.41h0c1.42,0,2.57,1.15,2.57,2.57v10.89h-5.14v-10.89c0-1.42,1.15-2.57,2.57-2.57Z"/>
            <polygon class="cls-3" points="237.16 55.85 234.59 59.52 232.02 55.85 232.02 29.67 237.16 29.67 237.16 55.85"/>
            <rect class="cls-4" x="225.9" y="28.73" width="17.62" height="4.45" rx="2.22" ry="2.22"/>
            <path class="cls-9" d="m237.16,55.85v-22.67h4.13c1.23,0,2.22-1,2.22-2.22s-1-2.22-2.22-2.22h-4.02v-7.75c0-1.27-.92-2.32-2.13-2.53,1.02-.21,1.78-1.1,1.78-2.18,0-1.23-1-2.22-2.22-2.22-.04,0-.08,0-.11,0v45.46h0s2.57-3.67,2.57-3.67Z"/>
          </g>
          <g>
            <circle class="cls-4" cx="40.61" cy="364.09" r="2.22"/>
            <path class="cls-5" d="m38.04,348.5h5.14v10.89c0,1.42-1.15,2.57-2.57,2.57h0c-1.42,0-2.57-1.15-2.57-2.57v-10.89h0Z"/>
            <polygon class="cls-3" points="43.06 324.52 40.49 320.85 37.93 324.52 37.93 350.7 43.06 350.7 43.06 324.52"/>
            <rect class="cls-4" x="31.8" y="347.19" width="17.62" height="4.45" rx="2.22" ry="2.22"/>
            <path class="cls-9" d="m43.06,324.52v22.67s4.13,0,4.13,0c1.23,0,2.22,1,2.22,2.22,0,1.23-1,2.22-2.22,2.22h-4.02s0,7.75,0,7.75c0,1.27-.92,2.32-2.13,2.53,1.02.21,1.78,1.1,1.78,2.18,0,1.23-1,2.22-2.22,2.22-.04,0-.08,0-.11,0v-45.46h0s2.57,3.67,2.57,3.67Z"/>
          </g>
        </g>
        <g>
          <polygon class="cls-6" points="87.28 162.87 71.12 81.35 103.45 81.35 87.28 162.87"/>
          <polygon class="cls-6" points="184.61 162.87 168.45 81.35 200.78 81.35 184.61 162.87"/>
          <polygon class="cls-6" points="135.59 81.23 151.75 162.75 119.43 162.75 135.59 81.23"/>
        </g>
        <polygon class="cls-6" points="176.2 187.89 94.68 204.05 94.68 171.73 176.2 187.89"/>
        <g>
          <polygon class="cls-6" points="184.45 212.91 200.62 294.43 168.29 294.43 184.45 212.91"/>
          <polygon class="cls-6" points="87.12 212.91 103.29 294.43 70.96 294.43 87.12 212.91"/>
          <polygon class="cls-6" points="136.15 294.55 119.98 213.03 152.31 213.03 136.15 294.55"/>
        </g>
      </g>
    </g>
  </g>
</svg>