<?xml version="1.0" encoding="UTF-8"?>
<svg xmlns="http://www.w3.org/2000/svg" xmlns:xlink="http://www.w3.org/1999/xlink" viewBox="0 0 269.74 379.43">
  <defs>
    <style>
      .cls-1, .cls-2, .cls-3, .cls-4, .cls-5, .cls-6, .cls-7, .cls-8, .cls-9, .cls-10, .cls-11, .cls-12, .cls-13, .cls-14, .cls-15, .cls-16, .cls-17, .cls-18, .cls-19, .cls-20, .cls-21, .cls-22, .cls-23 {
        fill: none;
      }

      .cls-2 {
        clip-path: url(#clippath-8);
      }

      .cls-3 {
        clip-path: url(#clippath-7);
      }

      .cls-4 {
        clip-path: url(#clippath-6);
      }

      .cls-5 {
        clip-path: url(#clippath-9);
      }

      .cls-6 {
        clip-path: url(#clippath-5);
      }

      .cls-7 {
        clip-path: url(#clippath-3);
      }

      .cls-8 {
        clip-path: url(#clippath-4);
      }

      .cls-9 {
        clip-path: url(#clippath-2);
      }

      .cls-10 {
        clip-path: url(#clippath-1);
      }

      .cls-11 {
        isolation: isolate;
      }

      .cls-24, .cls-25, .cls-26 {
        fill: #fff;
      }

      .cls-27 {
        fill: #e5332a;
      }

      .cls-28 {
        fill: #753520;
      }

      .cls-29 {
        fill: #686868;
      }

      .cls-30 {
        fill: #b3f4ff;
      }

      .cls-31 {
        fill: #c37b2f;
      }

      .cls-32 {
        fill: #ce6f40;
      }

      .cls-33 {
        fill: #cf7656;
      }

      .cls-34 {
        fill: #ae2622;
      }

      .cls-35 {
        fill: #ae2423;
      }

      .cls-36 {
        fill: #d1895c;
      }

      .cls-37 {
        fill: #d38836;
      }

      .cls-38 {
        fill: #c79740;
      }

      .cls-39 {
        fill: #daac4f;
      }

      .cls-40 {
        fill: #cc5e3d;
      }

      .cls-41 {
        fill: #1c5788;
      }

      .cls-42 {
        fill: #1d1d1b;
      }

      .cls-43 {
        fill: #2f475f;
      }

      .cls-44 {
        fill: #5cba09;
      }

      .cls-25 {
        stroke: #a3a3a3;
        stroke-width: 2px;
      }

      .cls-25, .cls-45, .cls-22 {
        stroke-miterlimit: 10;
      }

      .cls-45 {
        fill: #f2f2f2;
        stroke: #686868;
        stroke-width: 4px;
      }

      .cls-12 {
        clip-path: url(#clippath-13);
      }

      .cls-13 {
        clip-path: url(#clippath-14);
      }

      .cls-14 {
        clip-path: url(#clippath-12);
      }

      .cls-15 {
        clip-path: url(#clippath-11);
      }

      .cls-16 {
        clip-path: url(#clippath-18);
      }

      .cls-17 {
        clip-path: url(#clippath-19);
      }

      .cls-18 {
        clip-path: url(#clippath-17);
      }

      .cls-19 {
        clip-path: url(#clippath-16);
      }

      .cls-20 {
        clip-path: url(#clippath-10);
      }

      .cls-21 {
        clip-path: url(#clippath-15);
      }

      .cls-46 {
        fill: url(#Degradado_sin_nombre_28);
      }

      .cls-22 {
        stroke: #d38836;
        stroke-linecap: round;
        stroke-width: 2.49px;
      }

      .cls-47 {
        fill: url(#Degradado_sin_nombre_28-2);
      }

      .cls-23 {
        clip-path: url(#clippath);
      }

      .cls-48 {
        mix-blend-mode: multiply;
        opacity: .2;
      }

      .cls-26 {
        opacity: .69;
      }
    </style>
    <clipPath id="clippath">
      <path class="cls-41" d="m198.58,317.37h-120.05v-95.56c0-32.82,26.61-59.43,59.43-59.43h1.2c32.82,0,59.43,26.61,59.43,59.43v95.56Z"/>
    </clipPath>
    <clipPath id="clippath-1">
      <path class="cls-27" d="m171.16,317.07h-65.15v-95.56c0-32.82,14.44-59.43,32.25-59.43h.65c17.81,0,32.25,26.61,32.25,59.43v95.56Z"/>
    </clipPath>
    <clipPath id="clippath-2">
      <path class="cls-36" d="m108,102.43h58.73v44.65c0,16.21-13.16,29.36-29.36,29.36h0c-16.21,0-29.36-13.16-29.36-29.36v-44.65h0Z"/>
    </clipPath>
    <clipPath id="clippath-3">
      <polygon class="cls-39" points="165.9 35.46 163.93 40.71 165.39 44.62 158.76 68.73 152.12 44.58 153.58 40.71 151.61 35.46 149.64 40.71 151.11 44.65 144.49 68.73 137.86 44.62 139.33 40.71 137.36 35.46 135.39 40.71 136.85 44.62 130.22 68.73 123.58 44.57 125.03 40.71 123.06 35.46 121.09 40.71 122.57 44.66 115.95 68.73 109.32 44.62 110.78 40.71 108.82 35.46 108.82 45.97 108.82 71.48 108.82 72.53 108.82 95.09 165.9 95.09 165.9 72.53 165.9 42.77 165.9 35.46"/>
    </clipPath>
    <clipPath id="clippath-4">
      <path class="cls-27" d="m131.21,73.51c4.45,4.51,6.79,10.32,7.03,16.19.32-5.87,2.74-11.64,7.25-16.09,4.69-4.63,10.78-6.97,16.89-7.05.3-6.57-2.04-13.25-7.02-18.3-9.49-9.62-24.99-9.73-34.61-.24-5.05,4.98-7.48,11.63-7.27,18.2,6.42-.08,12.87,2.35,17.74,7.28Z"/>
    </clipPath>
    <clipPath id="clippath-5">
      <path class="cls-24" d="m123.16,137.99c4.33,0,7.84-2.2,7.84-4.92h-15.67c0,2.72,3.51,4.92,7.84,4.92"/>
    </clipPath>
    <radialGradient id="Degradado_sin_nombre_28" data-name="Degradado sin nombre 28" cx="123.49" cy="134.96" fx="123.49" fy="134.96" r="3.82" gradientUnits="userSpaceOnUse">
      <stop offset="0" stop-color="#b6781f"/>
      <stop offset=".15" stop-color="#ad721e"/>
      <stop offset=".38" stop-color="#95611d"/>
      <stop offset=".68" stop-color="#6e471c"/>
      <stop offset="1" stop-color="#3c251a"/>
    </radialGradient>
    <clipPath id="clippath-6">
      <path class="cls-24" d="m151.66,137.99c4.33,0,7.84-2.2,7.84-4.92h-15.67c0,2.72,3.51,4.92,7.84,4.92"/>
    </clipPath>
    <radialGradient id="Degradado_sin_nombre_28-2" data-name="Degradado sin nombre 28" cx="151.99" fx="151.99" xlink:href="#Degradado_sin_nombre_28"/>
    <clipPath id="clippath-7">
      <circle class="cls-1" cx="151.78" cy="83.04" r="19.01"/>
    </clipPath>
    <clipPath id="clippath-8">
      <rect class="cls-27" x="108.88" y="95.97" width="57.11" height="8.48"/>
    </clipPath>
    <clipPath id="clippath-9">
      <circle class="cls-27" cx="137.46" cy="85.49" r="3.72"/>
    </clipPath>
    <clipPath id="clippath-10">
      <path class="cls-38" d="m139.29,95.82c0-1.14-.93-2.07-2.07-2.07s-2.07.93-2.07,2.07.93,2.07,2.07,2.07,2.07-.93,2.07-2.07"/>
    </clipPath>
    <clipPath id="clippath-11">
      <path class="cls-1" d="m171.14,226.9h-65.15v-5.09c0-32.82,14.44-59.43,32.25-59.43h.65c17.81,0,32.25,26.61,32.25,59.43v5.09Z"/>
    </clipPath>
    <clipPath id="clippath-12">
      <path class="cls-36" d="m139.04,210.62c14.03-5.1,25.19-17.45,30.04-33.16h-61.02c5.04,15.92,16.57,28.34,30.98,33.16Z"/>
    </clipPath>
    <clipPath id="clippath-13">
      <circle class="cls-39" cx="137.14" cy="232" r="3.19"/>
    </clipPath>
    <clipPath id="clippath-14">
      <circle class="cls-39" cx="137.14" cy="250.43" r="3.19"/>
    </clipPath>
    <clipPath id="clippath-15">
      <circle class="cls-39" cx="137.14" cy="287.22" r="3.19"/>
    </clipPath>
    <clipPath id="clippath-16">
      <circle class="cls-39" cx="137.14" cy="305.81" r="3.19"/>
    </clipPath>
    <clipPath id="clippath-17">
      <circle class="cls-39" cx="137.14" cy="208.25" r="7.76" transform="translate(-44.18 37.08) rotate(-13.28)"/>
    </clipPath>
    <clipPath id="clippath-18">
      <rect class="cls-39" x="105.99" y="260.55" width="65.16" height="16.11"/>
    </clipPath>
    <clipPath id="clippath-19">
      <circle class="cls-27" cx="137.14" cy="268.85" r="3.19"/>
    </clipPath>
  </defs>
  <g class="cls-11">
    <g id="Capa_2" data-name="Capa 2">
      <g id="Capa_1-2" data-name="Capa 1">
        <rect class="cls-45" x="2" y="2" width="265.74" height="375.43" rx="19.9" ry="19.9"/>
        <rect class="cls-25" x="53.76" y="65.05" width="164.22" height="252.58" rx="5.69" ry="5.69"/>
        <g>
          <g>
            <path class="cls-41" d="m198.58,317.37h-120.05v-95.56c0-32.82,26.61-59.43,59.43-59.43h1.2c32.82,0,59.43,26.61,59.43,59.43v95.56Z"/>
            <g class="cls-23">
              <rect class="cls-43" x="147.76" y="157.24" width="57.38" height="159.79"/>
            </g>
          </g>
          <g>
            <path class="cls-27" d="m171.16,317.07h-65.15v-95.56c0-32.82,14.44-59.43,32.25-59.43h.65c17.81,0,32.25,26.61,32.25,59.43v95.56Z"/>
            <g class="cls-10">
              <rect class="cls-35" x="137.25" y="186.85" width="46.51" height="132.69"/>
            </g>
          </g>
          <path class="cls-28" d="m118.43,75.6h37.85c14,0,25.37,11.37,25.37,25.37v56.16c0,11.3-9.18,20.48-20.48,20.48h-47.63c-11.3,0-20.48-9.18-20.48-20.48v-56.16c0-14,11.37-25.37,25.37-25.37Z"/>
          <g>
            <path class="cls-36" d="m108,102.43h58.73v44.65c0,16.21-13.16,29.36-29.36,29.36h0c-16.21,0-29.36-13.16-29.36-29.36v-44.65h0Z"/>
            <g class="cls-9">
              <rect class="cls-32" x="137.28" y="101.88" width="39.66" height="75.32"/>
            </g>
          </g>
          <g>
            <circle class="cls-28" cx="115.25" cy="101.88" r="22.29"/>
            <circle class="cls-28" cx="159.39" cy="102.56" r="22.29"/>
          </g>
          <g>
            <polygon class="cls-39" points="165.9 35.46 163.93 40.71 165.39 44.62 158.76 68.73 152.12 44.58 153.58 40.71 151.61 35.46 149.64 40.71 151.11 44.65 144.49 68.73 137.86 44.62 139.33 40.71 137.36 35.46 135.39 40.71 136.85 44.62 130.22 68.73 123.58 44.57 125.03 40.71 123.06 35.46 121.09 40.71 122.57 44.66 115.95 68.73 109.32 44.62 110.78 40.71 108.82 35.46 108.82 45.97 108.82 71.48 108.82 72.53 108.82 95.09 165.9 95.09 165.9 72.53 165.9 42.77 165.9 35.46"/>
            <g class="cls-7">
              <rect class="cls-37" x="137.2" y="30.75" width="30.38" height="66.9"/>
            </g>
          </g>
          <g>
            <path class="cls-27" d="m131.21,73.51c4.45,4.51,6.79,10.32,7.03,16.19.32-5.87,2.74-11.64,7.25-16.09,4.69-4.63,10.78-6.97,16.89-7.05.3-6.57-2.04-13.25-7.02-18.3-9.49-9.62-24.99-9.73-34.61-.24-5.05,4.98-7.48,11.63-7.27,18.2,6.42-.08,12.87,2.35,17.74,7.28Z"/>
            <g class="cls-8">
              <rect class="cls-35" x="137.28" y="40.15" width="30.72" height="32.16"/>
            </g>
          </g>
          <path class="cls-33" d="m131.14,149.38c0-4.58-3.71-8.29-8.29-8.29s-8.29,3.71-8.29,8.29,3.71,8.29,8.29,8.29,8.29-3.71,8.29-8.29"/>
          <path class="cls-40" d="m160.26,149.38c0-4.58-3.71-8.29-8.29-8.29s-8.29,3.71-8.29,8.29,3.71,8.29,8.29,8.29,8.29-3.71,8.29-8.29"/>
          <path class="cls-27" d="m137.37,168.2c4.58,0,8.29-3.71,8.29-8.29h-16.57c0,4.58,3.71,8.29,8.29,8.29"/>
          <path class="cls-32" d="m137.36,119.88v2.31c.03-.38.05-.77.05-1.16,0-.25,0-.49-.02-.74,0-.14-.02-.28-.03-.42"/>
          <path class="cls-34" d="m145.65,159.92h-8.29v8.29h0c1.54,0,2.99-.42,4.23-1.16,2.43-1.44,4.06-4.1,4.06-7.13"/>
          <polygon class="cls-28" points="166.94 133.07 137.35 133.07 107.76 133.07 107.76 131.57 107.76 130.06 137.35 131.76 166.94 130.06 166.94 131.57 166.94 133.07"/>
          <g>
            <path class="cls-24" d="m123.16,137.99c4.33,0,7.84-2.2,7.84-4.92h-15.67c0,2.72,3.51,4.92,7.84,4.92"/>
            <g class="cls-6">
              <g>
                <circle class="cls-46" cx="123.49" cy="134.96" r="3.82"/>
                <circle class="cls-42" cx="123.49" cy="134.96" r="1.71"/>
                <circle class="cls-26" cx="124.67" cy="133.87" r=".85"/>
              </g>
            </g>
          </g>
          <g>
            <path class="cls-24" d="m151.66,137.99c4.33,0,7.84-2.2,7.84-4.92h-15.67c0,2.72,3.51,4.92,7.84,4.92"/>
            <g class="cls-4">
              <g>
                <circle class="cls-47" cx="151.99" cy="134.96" r="3.82"/>
                <circle class="cls-42" cx="151.99" cy="134.96" r="1.71"/>
                <circle class="cls-26" cx="153.17" cy="133.87" r=".85"/>
              </g>
            </g>
          </g>
          <circle class="cls-27" cx="137.36" cy="85.49" r="3.94"/>
          <circle class="cls-39" cx="122.75" cy="83.04" r="19.01"/>
          <g class="cls-3">
            <rect class="cls-37" x="137.28" y="62.67" width="34.26" height="34.73"/>
          </g>
          <g>
            <rect class="cls-27" x="108.88" y="95.97" width="57.11" height="8.48"/>
            <g class="cls-2">
              <rect class="cls-35" x="137.29" y="93.51" width="30.72" height="12.88"/>
            </g>
          </g>
          <g>
            <path class="cls-38" d="m129.11,85.53c0-1.14-.93-2.07-2.07-2.07s-2.07.93-2.07,2.07.93,2.07,2.07,2.07,2.07-.93,2.07-2.07"/>
            <path class="cls-38" d="m118.68,85.53c0-1.14-.93-2.07-2.07-2.07s-2.07.93-2.07,2.07.93,2.07,2.07,2.07,2.07-.93,2.07-2.07"/>
            <path class="cls-31" d="m147.89,83.46c-1.14,0-2.07.93-2.07,2.07s.93,2.07,2.07,2.07,2.07-.93,2.07-2.07-.93-2.07-2.07-2.07"/>
            <path class="cls-31" d="m158.32,83.46c-1.14,0-2.07.93-2.07,2.07s.93,2.07,2.07,2.07,2.07-.93,2.07-2.07-.93-2.07-2.07-2.07"/>
            <g>
              <circle class="cls-27" cx="137.46" cy="85.49" r="3.72"/>
              <g class="cls-5">
                <rect class="cls-35" x="137.32" y="79.22" width="6.64" height="12.34"/>
              </g>
            </g>
          </g>
          <g>
            <path class="cls-38" d="m139.29,95.82c0-1.14-.93-2.07-2.07-2.07s-2.07.93-2.07,2.07.93,2.07,2.07,2.07,2.07-.93,2.07-2.07"/>
            <g class="cls-20">
              <rect class="cls-31" x="137.28" y="92.45" width="3.23" height="6.97"/>
            </g>
          </g>
          <g class="cls-15">
            <g>
              <path class="cls-36" d="m139.04,210.62c14.03-5.1,25.19-17.45,30.04-33.16h-61.02c5.04,15.92,16.57,28.34,30.98,33.16Z"/>
              <g class="cls-14">
                <rect class="cls-32" x="137.25" y="176.74" width="39.66" height="35.24"/>
              </g>
            </g>
          </g>
          <g>
            <circle class="cls-39" cx="137.14" cy="232" r="3.19"/>
            <g class="cls-12">
              <rect class="cls-37" x="137.27" y="227.87" width="5.25" height="8.51"/>
            </g>
          </g>
          <g>
            <circle class="cls-39" cx="137.14" cy="250.43" r="3.19"/>
            <g class="cls-13">
              <rect class="cls-37" x="137.27" y="246.3" width="5.25" height="8.51"/>
            </g>
          </g>
          <g>
            <circle class="cls-39" cx="137.14" cy="287.22" r="3.19"/>
            <g class="cls-21">
              <rect class="cls-37" x="137.27" y="283.1" width="5.25" height="8.51"/>
            </g>
          </g>
          <g>
            <circle class="cls-39" cx="137.14" cy="305.81" r="3.19"/>
            <g class="cls-19">
              <rect class="cls-37" x="137.27" y="301.68" width="5.25" height="8.51"/>
            </g>
          </g>
          <g>
            <circle class="cls-39" cx="137.14" cy="208.25" r="7.76" transform="translate(-44.18 37.08) rotate(-13.28)"/>
            <g class="cls-18">
              <rect class="cls-37" x="137.27" y="197.27" width="9" height="22.18"/>
            </g>
          </g>
          <g>
            <rect class="cls-39" x="105.99" y="260.55" width="65.16" height="16.11"/>
            <g class="cls-16">
              <rect class="cls-37" x="137.25" y="260.21" width="34.28" height="17.19"/>
            </g>
          </g>
          <path class="cls-36" d="m100.07,269.96c8.79-.18,15.86-7.36,15.86-16.19s-7.07-16.02-15.86-16.19v32.39Z"/>
          <g>
            <circle class="cls-27" cx="137.14" cy="268.85" r="3.19"/>
            <g class="cls-17">
              <rect class="cls-35" x="137.23" y="265.13" width="5.25" height="7.47"/>
            </g>
          </g>
          <path class="cls-32" d="m176.54,237.57h0c-2.75.06-5.33.8-7.58,2.06-.8.45-1.57.97-2.28,1.55-1.2.98-2.27,2.12-3.15,3.4h0c-.05.07-.09.14-.14.2-1.72,2.57-2.72,5.66-2.72,8.99,0,3.61,1.18,6.94,3.18,9.64h0c.35.48.74.94,1.14,1.37,2.89,3.11,6.99,5.09,11.54,5.18v-32.39Z"/>
        </g>
        <g>
          <path class="cls-29" d="m23.17,24.25c-.29.12-.62.29-1,.29-.62,0-1-.62-1-1.17,0-.58.42-.83,1.04-1.17l5.5-2.79c.58-.29,1.17-.54,1.83-.54,1.17,0,1.17.83,1.17,1.33v18.5c0,.75-.42,1.12-1.25,1.12-.88,0-1.29-.37-1.29-1.12v-17.04l-5,2.58Z"/>
          <path class="cls-29" d="m42.19,57.87h10.62c.75,0,1.12.38,1.12,1.12s-.38,1.12-1.12,1.12h-12.46c-.83,0-1.29-.42-1.29-1.21,0-.62.25-1.04,1.04-1.71,5.71-4.96,10.37-7.5,10.37-11.62,0-2.46-1.75-4.04-4.83-4.04-1.71,0-3.12.46-4.25,1.33-.71.54-.96.87-1.33.87-.58,0-1.08-.62-1.08-1.17,0-.5.54-1.08,1.12-1.5,1.42-1.12,3.33-1.75,5.67-1.75,4.25,0,7.25,2,7.25,6,0,5.25-5.29,8.08-10.83,12.54Z"/>
          <line class="cls-22" x1="43.79" y1="19.19" x2="26.62" y2="60.06"/>
        </g>
        <g>
          <path class="cls-29" d="m217.26,330.89c-.29.12-.62.29-1,.29-.62,0-1-.62-1-1.17,0-.58.42-.83,1.04-1.17l5.5-2.79c.58-.29,1.17-.54,1.83-.54,1.17,0,1.17.83,1.17,1.33v18.5c0,.75-.42,1.12-1.25,1.12-.88,0-1.29-.37-1.29-1.12v-17.04l-5,2.58Z"/>
          <path class="cls-29" d="m236.29,364.51h10.62c.75,0,1.12.38,1.12,1.12s-.38,1.12-1.12,1.12h-12.46c-.83,0-1.29-.42-1.29-1.21,0-.62.25-1.04,1.04-1.71,5.71-4.96,10.37-7.5,10.37-11.62,0-2.46-1.75-4.04-4.83-4.04-1.71,0-3.12.46-4.25,1.33-.71.54-.96.87-1.33.87-.58,0-1.08-.62-1.08-1.17,0-.5.54-1.08,1.12-1.5,1.42-1.12,3.33-1.75,5.67-1.75,4.25,0,7.25,2,7.25,6,0,5.25-5.29,8.08-10.83,12.54Z"/>
          <line class="cls-22" x1="237.89" y1="325.83" x2="220.72" y2="366.7"/>
        </g>
        <g>
          <g>
            <circle class="cls-39" cx="232.14" cy="16.28" r="2.22"/>
            <path class="cls-41" d="m232.14,18.41h0c1.42,0,2.57,1.15,2.57,2.57v10.89h-5.14v-10.89c0-1.42,1.15-2.57,2.57-2.57Z"/>
            <polygon class="cls-30" points="234.59 55.85 232.02 59.52 229.45 55.85 229.45 29.67 234.59 29.67 234.59 55.85"/>
            <rect class="cls-39" x="223.33" y="28.73" width="17.62" height="4.45" rx="2.22" ry="2.22"/>
            <path class="cls-48" d="m234.59,55.85v-22.67h4.13c1.23,0,2.22-1,2.22-2.22s-1-2.22-2.22-2.22h-4.02v-7.75c0-1.27-.92-2.32-2.13-2.53,1.02-.21,1.78-1.1,1.78-2.18,0-1.23-1-2.22-2.22-2.22-.04,0-.08,0-.11,0v45.46h0s2.57-3.67,2.57-3.67Z"/>
          </g>
          <g>
            <circle class="cls-39" cx="38.04" cy="364.09" r="2.22"/>
            <path class="cls-41" d="m35.47,348.5h5.14v10.89c0,1.42-1.15,2.57-2.57,2.57h0c-1.42,0-2.57-1.15-2.57-2.57v-10.89h0Z"/>
            <polygon class="cls-30" points="40.5 324.52 37.93 320.85 35.36 324.52 35.36 350.7 40.5 350.7 40.5 324.52"/>
            <rect class="cls-39" x="29.23" y="347.19" width="17.62" height="4.45" rx="2.22" ry="2.22"/>
            <path class="cls-48" d="m40.5,324.52v22.67s4.13,0,4.13,0c1.23,0,2.22,1,2.22,2.22,0,1.23-1,2.22-2.22,2.22h-4.02s0,7.75,0,7.75c0,1.27-.92,2.32-2.13,2.53,1.02.21,1.78,1.1,1.78,2.18s-1,2.22-2.22,2.22c-.04,0-.08,0-.11,0v-45.46h0s2.57,3.67,2.57,3.67Z"/>
          </g>
        </g>
        <polygon class="cls-44" points="172.41 164.49 190.45 281.1 144.59 279.16 172.41 164.49"/>
      </g>
    </g>
  </g>
</svg>