<?xml version="1.0" encoding="UTF-8"?>
<svg xmlns="http://www.w3.org/2000/svg" xmlns:xlink="http://www.w3.org/1999/xlink" viewBox="0 0 269.74 379.43">
  <defs>
    <style>
      .cls-1 {
        clip-path: url(#clippath-7);
      }

      .cls-1, .cls-2, .cls-3, .cls-4, .cls-5, .cls-6, .cls-7, .cls-8, .cls-9 {
        fill: none;
      }

      .cls-2 {
        clip-path: url(#clippath-6);
      }

      .cls-3 {
        clip-path: url(#clippath-5);
      }

      .cls-4 {
        clip-path: url(#clippath-3);
      }

      .cls-5 {
        clip-path: url(#clippath-4);
      }

      .cls-6 {
        clip-path: url(#clippath-2);
      }

      .cls-7 {
        clip-path: url(#clippath-1);
      }

      .cls-8 {
        isolation: isolate;
      }

      .cls-10 {
        fill: #e5332a;
      }

      .cls-11 {
        fill: #686868;
      }

      .cls-12 {
        fill: #daac4f;
      }

      .cls-13 {
        fill: #1c5788;
      }

      .cls-14 {
        fill: #fff;
        stroke: #a3a3a3;
        stroke-width: 2px;
      }

      .cls-14, .cls-15 {
        stroke-miterlimit: 10;
      }

      .cls-15 {
        fill: #f2f2f2;
        stroke: #686868;
        stroke-width: 4px;
      }

      .cls-9 {
        clip-path: url(#clippath);
      }

      .cls-16 {
        mix-blend-mode: multiply;
        opacity: .2;
      }
    </style>
    <clipPath id="clippath">
      <path class="cls-12" d="m236.6,45.95v4.75h2.27c.81,0,1.47.66,1.47,1.47,0,.55-.31,1.04-.76,1.29h.76c1.67,0,3.03,1.36,3.03,3.03,0,.03,0,.06,0,.09h3.16v2.94h-24.26v-2.94h3.1s0-.06,0-.09c0-1.67,1.36-3.03,3.03-3.03h.76c-.45-.25-.76-.73-.76-1.29,0-.81.66-1.47,1.47-1.47h2.33v-4.77"/>
    </clipPath>
    <clipPath id="clippath-1">
      <path class="cls-10" d="m236.6,45.95c4.87-1.02,8.54-5.3,8.62-10.46v-2.16s0,0,0,0h.63c1.22,0,2.21-.99,2.21-2.21s-.99-2.21-2.21-2.21h-2.27l-7.72-10.66c.49-.4.81-1.02.81-1.7,0-1.22-.99-2.21-2.21-2.21s-2.21.99-2.21,2.21c0,.68.31,1.29.79,1.69l-7.71,10.67h-2.45c-1.22,0-2.21.99-2.21,2.21s.99,2.21,2.21,2.21h.63s0,2.05,0,2.05c.09,5.16,3.79,9.58,8.68,10.58"/>
    </clipPath>
    <clipPath id="clippath-2">
      <path class="cls-12" d="m140.16,153.02v9.76h4.66c1.67,0,3.02,1.35,3.02,3.02,0,1.14-.63,2.13-1.56,2.64h1.56c3.44,0,6.23,2.79,6.23,6.23,0,.06,0,.13,0,.19h6.49v6.04h-49.86v-6.04h6.37c0-.06,0-.13,0-.19,0-3.44,2.79-6.23,6.23-6.23h1.56c-.93-.52-1.56-1.51-1.56-2.64,0-1.67,1.35-3.02,3.02-3.02h4.78v-9.8"/>
    </clipPath>
    <clipPath id="clippath-3">
      <path class="cls-10" d="m140.16,153.01c10.01-2.1,17.55-10.9,17.71-21.49v-4.44s0,0,0,0h1.29c2.5,0,4.53-2.03,4.53-4.53s-2.03-4.53-4.53-4.53h-4.67l-15.87-21.9c1.01-.83,1.66-2.09,1.66-3.5,0-2.5-2.03-4.53-4.53-4.53s-4.53,2.03-4.53,4.53c0,1.4.63,2.65,1.63,3.48l-15.85,21.92h-5.04c-2.5,0-4.53,2.03-4.53,4.53s2.03,4.53,4.53,4.53h1.29s0,4.21,0,4.21c.19,10.61,7.79,19.69,17.84,21.74"/>
    </clipPath>
    <clipPath id="clippath-4">
      <path class="cls-12" d="m143.15,265.21v9.76h4.66c1.67,0,3.02,1.35,3.02,3.02,0,1.14-.63,2.13-1.56,2.64h1.56c3.44,0,6.23,2.79,6.23,6.23,0,.06,0,.13,0,.19h6.49v6.04h-49.86v-6.04h6.37c0-.06,0-.13,0-.19,0-3.44,2.79-6.23,6.23-6.23h1.56c-.93-.52-1.56-1.51-1.56-2.64,0-1.67,1.35-3.02,3.02-3.02h4.78v-9.8"/>
    </clipPath>
    <clipPath id="clippath-5">
      <path class="cls-10" d="m143.16,265.2c10.01-2.1,17.55-10.9,17.71-21.49v-4.44s0,0,0,0h1.29c2.5,0,4.53-2.03,4.53-4.53s-2.03-4.53-4.53-4.53h-4.67l-15.87-21.9c1.01-.83,1.66-2.09,1.66-3.5,0-2.5-2.03-4.53-4.53-4.53s-4.53,2.03-4.53,4.53c0,1.4.63,2.65,1.63,3.48l-15.85,21.92h-5.04c-2.5,0-4.53,2.03-4.53,4.53s2.03,4.53,4.53,4.53h1.29s0,4.21,0,4.21c.19,10.61,7.79,19.69,17.84,21.74"/>
    </clipPath>
    <clipPath id="clippath-6">
      <path class="cls-12" d="m42.5,352.6v4.75h2.27c.81,0,1.47.66,1.47,1.47,0,.55-.31,1.04-.76,1.29h.76c1.67,0,3.03,1.36,3.03,3.03,0,.03,0,.06,0,.09h3.16v2.94h-24.26v-2.94h3.1s0-.06,0-.09c0-1.67,1.36-3.03,3.03-3.03h.76c-.45-.25-.76-.73-.76-1.29,0-.81.66-1.47,1.47-1.47h2.33v-4.77"/>
    </clipPath>
    <clipPath id="clippath-7">
      <path class="cls-10" d="m42.51,352.59c4.87-1.02,8.54-5.3,8.62-10.46v-2.16s0,0,0,0h.63c1.22,0,2.21-.99,2.21-2.21s-.99-2.21-2.21-2.21h-2.27l-7.72-10.66c.49-.4.81-1.02.81-1.7,0-1.22-.99-2.21-2.21-2.21s-2.21.99-2.21,2.21c0,.68.31,1.29.79,1.69l-7.71,10.67h-2.45c-1.22,0-2.21.99-2.21,2.21s.99,2.21,2.21,2.21h.63s0,2.05,0,2.05c.09,5.16,3.79,9.58,8.68,10.58"/>
    </clipPath>
  </defs>
  <g class="cls-8">
    <g id="Capa_2" data-name="Capa 2">
      <g id="Capa_1-2" data-name="Capa 1">
        <rect class="cls-15" x="2" y="2" width="265.74" height="375.43" rx="19.9" ry="19.9"/>
        <path class="cls-11" d="m227.8,355.9h16.32c1.15,0,1.73.58,1.73,1.73s-.58,1.73-1.73,1.73h-19.13c-1.28,0-1.98-.64-1.98-1.86,0-.96.38-1.6,1.6-2.62,8.77-7.62,15.93-11.52,15.93-17.85,0-3.78-2.69-6.21-7.42-6.21-2.62,0-4.8.7-6.53,2.05-1.09.83-1.47,1.34-2.05,1.34-.9,0-1.66-.96-1.66-1.79,0-.77.83-1.66,1.73-2.3,2.18-1.73,5.12-2.69,8.7-2.69,6.53,0,11.14,3.07,11.14,9.22,0,8.06-8.13,12.42-16.64,19.26Z"/>
        <rect class="cls-14" x="53.76" y="65.05" width="164.22" height="252.58" rx="5.69" ry="5.69"/>
        <g>
          <g>
            <path class="cls-12" d="m236.6,45.95v4.75h2.27c.81,0,1.47.66,1.47,1.47,0,.55-.31,1.04-.76,1.29h.76c1.67,0,3.03,1.36,3.03,3.03,0,.03,0,.06,0,.09h3.16v2.94h-24.26v-2.94h3.1s0-.06,0-.09c0-1.67,1.36-3.03,3.03-3.03h.76c-.45-.25-.76-.73-.76-1.29,0-.81.66-1.47,1.47-1.47h2.33v-4.77"/>
            <g class="cls-9">
              <g>
                <rect class="cls-10" x="227.41" y="50.7" width="14.12" height="2.75"/>
                <rect class="cls-13" x="224.69" y="53.45" width="19.3" height="3.13"/>
              </g>
            </g>
          </g>
          <g>
            <g>
              <path class="cls-10" d="m236.6,45.95c4.87-1.02,8.54-5.3,8.62-10.46v-2.16s0,0,0,0h.63c1.22,0,2.21-.99,2.21-2.21s-.99-2.21-2.21-2.21h-2.27l-7.72-10.66c.49-.4.81-1.02.81-1.7,0-1.22-.99-2.21-2.21-2.21s-2.21.99-2.21,2.21c0,.68.31,1.29.79,1.69l-7.71,10.67h-2.45c-1.22,0-2.21.99-2.21,2.21s.99,2.21,2.21,2.21h.63s0,2.05,0,2.05c.09,5.16,3.79,9.58,8.68,10.58"/>
              <g class="cls-7">
                <g>
                  <rect class="cls-13" x="221.33" y="33.13" width="25.37" height="13.46"/>
                  <rect class="cls-12" x="218.83" y="28.92" width="29.99" height="4.41"/>
                  <circle class="cls-12" cx="234.45" cy="16.57" r="2.21"/>
                </g>
              </g>
            </g>
            <path class="cls-16" d="m245.22,35.49v-2.16s0,0,0,0h.63c1.22,0,2.21-.99,2.21-2.21s-.99-2.21-2.21-2.21h-2.27l-7.72-10.66c.49-.4.81-1.02.81-1.7,0-1.19-.94-2.15-2.11-2.2v31.6h2.06c4.87-1.03,8.54-5.31,8.62-10.46Z"/>
          </g>
          <path class="cls-16" d="m243.37,56.49c0-1.67-1.36-3.03-3.03-3.03h-.76c.45-.25.76-.73.76-1.29,0-.81-.66-1.47-1.47-1.47h-2.27v-4.75h-2.05s0,13.57,0,13.57h11.98v-2.94h-3.16s0-.06,0-.09Z"/>
        </g>
        <g>
          <g>
            <path class="cls-12" d="m140.16,153.02v9.76h4.66c1.67,0,3.02,1.35,3.02,3.02,0,1.14-.63,2.13-1.56,2.64h1.56c3.44,0,6.23,2.79,6.23,6.23,0,.06,0,.13,0,.19h6.49v6.04h-49.86v-6.04h6.37c0-.06,0-.13,0-.19,0-3.44,2.79-6.23,6.23-6.23h1.56c-.93-.52-1.56-1.51-1.56-2.64,0-1.67,1.35-3.02,3.02-3.02h4.78v-9.8"/>
            <g class="cls-6">
              <g>
                <rect class="cls-10" x="121.26" y="162.77" width="29.02" height="5.65"/>
                <rect class="cls-13" x="115.69" y="168.42" width="39.67" height="6.43"/>
              </g>
            </g>
          </g>
          <g>
            <g>
              <path class="cls-10" d="m140.16,153.01c10.01-2.1,17.55-10.9,17.71-21.49v-4.44s0,0,0,0h1.29c2.5,0,4.53-2.03,4.53-4.53s-2.03-4.53-4.53-4.53h-4.67l-15.87-21.9c1.01-.83,1.66-2.09,1.66-3.5,0-2.5-2.03-4.53-4.53-4.53s-4.53,2.03-4.53,4.53c0,1.4.63,2.65,1.63,3.48l-15.85,21.92h-5.04c-2.5,0-4.53,2.03-4.53,4.53s2.03,4.53,4.53,4.53h1.29s0,4.21,0,4.21c.19,10.61,7.79,19.69,17.84,21.74"/>
              <g class="cls-4">
                <g>
                  <rect class="cls-13" x="108.77" y="126.66" width="52.13" height="27.67"/>
                  <rect class="cls-12" x="103.64" y="118.02" width="61.63" height="9.06"/>
                  <circle class="cls-12" cx="135.75" cy="92.63" r="4.53"/>
                </g>
              </g>
            </g>
            <path class="cls-16" d="m157.87,131.52v-4.44s0,0,0,0h1.29c2.5,0,4.53-2.03,4.53-4.53s-2.03-4.53-4.53-4.53h-4.67l-15.87-21.9c1.01-.83,1.66-2.09,1.66-3.5,0-2.44-1.93-4.42-4.34-4.52v64.93h4.22c10.01-2.11,17.55-10.91,17.71-21.5Z"/>
          </g>
          <path class="cls-16" d="m154.07,174.67c0-3.44-2.79-6.23-6.23-6.23h-1.56c.93-.52,1.56-1.51,1.56-2.64,0-1.67-1.35-3.02-3.02-3.02h-4.66v-9.76l-4.22-.02v27.9h24.61v-6.04h-6.49c0-.06,0-.12,0-.19Z"/>
        </g>
        <g>
          <g>
            <path class="cls-12" d="m143.15,265.21v9.76h4.66c1.67,0,3.02,1.35,3.02,3.02,0,1.14-.63,2.13-1.56,2.64h1.56c3.44,0,6.23,2.79,6.23,6.23,0,.06,0,.13,0,.19h6.49v6.04h-49.86v-6.04h6.37c0-.06,0-.13,0-.19,0-3.44,2.79-6.23,6.23-6.23h1.56c-.93-.52-1.56-1.51-1.56-2.64,0-1.67,1.35-3.02,3.02-3.02h4.78v-9.8"/>
            <g class="cls-5">
              <g>
                <rect class="cls-10" x="124.26" y="274.96" width="29.02" height="5.65"/>
                <rect class="cls-13" x="118.68" y="280.61" width="39.67" height="6.43"/>
              </g>
            </g>
          </g>
          <g>
            <g>
              <path class="cls-10" d="m143.16,265.2c10.01-2.1,17.55-10.9,17.71-21.49v-4.44s0,0,0,0h1.29c2.5,0,4.53-2.03,4.53-4.53s-2.03-4.53-4.53-4.53h-4.67l-15.87-21.9c1.01-.83,1.66-2.09,1.66-3.5,0-2.5-2.03-4.53-4.53-4.53s-4.53,2.03-4.53,4.53c0,1.4.63,2.65,1.63,3.48l-15.85,21.92h-5.04c-2.5,0-4.53,2.03-4.53,4.53s2.03,4.53,4.53,4.53h1.29s0,4.21,0,4.21c.19,10.61,7.79,19.69,17.84,21.74"/>
              <g class="cls-3">
                <g>
                  <rect class="cls-13" x="111.77" y="238.85" width="52.13" height="27.67"/>
                  <rect class="cls-12" x="106.64" y="230.21" width="61.63" height="9.06"/>
                  <circle class="cls-12" cx="138.74" cy="204.82" r="4.53"/>
                </g>
              </g>
            </g>
            <path class="cls-16" d="m160.87,243.71v-4.44s0,0,0,0h1.29c2.5,0,4.53-2.03,4.53-4.53s-2.03-4.53-4.53-4.53h-4.67l-15.87-21.9c1.01-.83,1.66-2.09,1.66-3.5,0-2.44-1.93-4.42-4.34-4.52v64.93h4.22c10.01-2.11,17.55-10.91,17.71-21.5Z"/>
          </g>
          <path class="cls-16" d="m157.06,286.86c0-3.44-2.79-6.23-6.23-6.23h-1.56c.93-.52,1.56-1.51,1.56-2.64,0-1.67-1.35-3.02-3.02-3.02h-4.66v-9.76l-4.22-.02v27.9h24.61v-6.04h-6.49c0-.06,0-.12,0-.19Z"/>
        </g>
        <g>
          <g>
            <path class="cls-12" d="m42.5,352.6v4.75h2.27c.81,0,1.47.66,1.47,1.47,0,.55-.31,1.04-.76,1.29h.76c1.67,0,3.03,1.36,3.03,3.03,0,.03,0,.06,0,.09h3.16v2.94h-24.26v-2.94h3.1s0-.06,0-.09c0-1.67,1.36-3.03,3.03-3.03h.76c-.45-.25-.76-.73-.76-1.29,0-.81.66-1.47,1.47-1.47h2.33v-4.77"/>
            <g class="cls-2">
              <g>
                <rect class="cls-10" x="33.31" y="357.34" width="14.12" height="2.75"/>
                <rect class="cls-13" x="30.6" y="360.09" width="19.3" height="3.13"/>
              </g>
            </g>
          </g>
          <g>
            <g>
              <path class="cls-10" d="m42.51,352.59c4.87-1.02,8.54-5.3,8.62-10.46v-2.16s0,0,0,0h.63c1.22,0,2.21-.99,2.21-2.21s-.99-2.21-2.21-2.21h-2.27l-7.72-10.66c.49-.4.81-1.02.81-1.7,0-1.22-.99-2.21-2.21-2.21s-2.21.99-2.21,2.21c0,.68.31,1.29.79,1.69l-7.71,10.67h-2.45c-1.22,0-2.21.99-2.21,2.21s.99,2.21,2.21,2.21h.63s0,2.05,0,2.05c.09,5.16,3.79,9.58,8.68,10.58"/>
              <g class="cls-1">
                <g>
                  <rect class="cls-13" x="27.23" y="339.77" width="25.37" height="13.46"/>
                  <rect class="cls-12" x="24.74" y="335.57" width="29.99" height="4.41"/>
                  <circle class="cls-12" cx="40.36" cy="323.21" r="2.21"/>
                </g>
              </g>
            </g>
            <path class="cls-16" d="m51.13,342.13v-2.16s0,0,0,0h.63c1.22,0,2.21-.99,2.21-2.21s-.99-2.21-2.21-2.21h-2.27l-7.72-10.66c.49-.4.81-1.02.81-1.7,0-1.19-.94-2.15-2.11-2.2v31.6h2.06c4.87-1.03,8.54-5.31,8.62-10.46Z"/>
          </g>
          <path class="cls-16" d="m49.27,363.13c0-1.67-1.36-3.03-3.03-3.03h-.76c.45-.25.76-.73.76-1.29,0-.81-.66-1.47-1.47-1.47h-2.27v-4.75h-2.05s0,13.57,0,13.57h11.98v-2.94h-3.16s0-.06,0-.09Z"/>
        </g>
        <path class="cls-11" d="m33.71,49.45h16.32c1.15,0,1.73.58,1.73,1.73s-.58,1.73-1.73,1.73h-19.13c-1.28,0-1.98-.64-1.98-1.86,0-.96.38-1.6,1.6-2.62,8.77-7.62,15.93-11.52,15.93-17.85,0-3.78-2.69-6.21-7.42-6.21-2.62,0-4.8.7-6.53,2.05-1.09.83-1.47,1.34-2.05,1.34-.9,0-1.66-.96-1.66-1.79,0-.77.83-1.66,1.73-2.3,2.18-1.73,5.12-2.69,8.7-2.69,6.53,0,11.14,3.07,11.14,9.22,0,8.06-8.13,12.42-16.64,19.26Z"/>
      </g>
    </g>
  </g>
</svg>