<?xml version="1.0" encoding="UTF-8"?>
<svg xmlns="http://www.w3.org/2000/svg" xmlns:xlink="http://www.w3.org/1999/xlink" viewBox="0 0 269.74 379.43">
  <defs>
    <style>
      .cls-1 {
        clip-path: url(#clippath-8);
      }

      .cls-1, .cls-2, .cls-3, .cls-4, .cls-5, .cls-6, .cls-7, .cls-8, .cls-9, .cls-10, .cls-11 {
        fill: none;
      }

      .cls-2 {
        clip-path: url(#clippath-7);
      }

      .cls-3 {
        clip-path: url(#clippath-6);
      }

      .cls-4 {
        clip-path: url(#clippath-9);
      }

      .cls-5 {
        clip-path: url(#clippath-5);
      }

      .cls-6 {
        clip-path: url(#clippath-3);
      }

      .cls-7 {
        clip-path: url(#clippath-4);
      }

      .cls-8 {
        clip-path: url(#clippath-2);
      }

      .cls-9 {
        clip-path: url(#clippath-1);
      }

      .cls-10 {
        isolation: isolate;
      }

      .cls-12 {
        fill: #e5332a;
      }

      .cls-13 {
        fill: #686868;
      }

      .cls-14 {
        fill: #daac4f;
      }

      .cls-15 {
        fill: #1c5788;
      }

      .cls-16 {
        fill: #fff;
        stroke: #a3a3a3;
        stroke-width: 2px;
      }

      .cls-16, .cls-17 {
        stroke-miterlimit: 10;
      }

      .cls-17 {
        fill: #f2f2f2;
        stroke: #686868;
        stroke-width: 4px;
      }

      .cls-11 {
        clip-path: url(#clippath);
      }

      .cls-18 {
        mix-blend-mode: multiply;
        opacity: .2;
      }
    </style>
    <clipPath id="clippath">
      <path class="cls-14" d="m236.6,45.95v4.75h2.27c.81,0,1.47.66,1.47,1.47,0,.55-.31,1.04-.76,1.29h.76c1.67,0,3.03,1.36,3.03,3.03,0,.03,0,.06,0,.09h3.16v2.94h-24.26v-2.94h3.1s0-.06,0-.09c0-1.67,1.36-3.03,3.03-3.03h.76c-.45-.25-.76-.73-.76-1.29,0-.81.66-1.47,1.47-1.47h2.33v-4.77"/>
    </clipPath>
    <clipPath id="clippath-1">
      <path class="cls-12" d="m236.6,45.95c4.87-1.02,8.54-5.3,8.62-10.46v-2.16s0,0,0,0h.63c1.22,0,2.21-.99,2.21-2.21s-.99-2.21-2.21-2.21h-2.27l-7.72-10.66c.49-.4.81-1.02.81-1.7,0-1.22-.99-2.21-2.21-2.21s-2.21.99-2.21,2.21c0,.68.31,1.29.79,1.69l-7.71,10.67h-2.45c-1.22,0-2.21.99-2.21,2.21s.99,2.21,2.21,2.21h.63s0,2.05,0,2.05c.09,5.16,3.79,9.58,8.68,10.58"/>
    </clipPath>
    <clipPath id="clippath-2">
      <path class="cls-14" d="m119.04,128.72v7.58h3.62c1.3,0,2.35,1.05,2.35,2.35,0,.88-.49,1.65-1.21,2.05h1.21c2.67,0,4.84,2.17,4.84,4.84,0,.05,0,.1,0,.15h5.05v4.7h-38.75v-4.7h4.95s0-.1,0-.15c0-2.67,2.17-4.84,4.84-4.84h1.21c-.72-.4-1.21-1.17-1.21-2.05,0-1.3,1.05-2.35,2.35-2.35h3.72v-7.61"/>
    </clipPath>
    <clipPath id="clippath-3">
      <path class="cls-12" d="m119.05,128.71c7.78-1.63,13.64-8.47,13.76-16.7v-3.45s0,0,0,0h1c1.95,0,3.52-1.58,3.52-3.52s-1.58-3.52-3.52-3.52h-3.63l-12.33-17.02c.79-.65,1.29-1.63,1.29-2.72,0-1.95-1.58-3.52-3.52-3.52s-3.52,1.58-3.52,3.52c0,1.09.49,2.06,1.27,2.7l-12.32,17.04h-3.92c-1.95,0-3.52,1.58-3.52,3.52s1.58,3.52,3.52,3.52h1s0,3.28,0,3.28c.15,8.24,6.05,15.3,13.86,16.9"/>
    </clipPath>
    <clipPath id="clippath-4">
      <path class="cls-14" d="m170.39,208.98v7.58h3.62c1.3,0,2.35,1.05,2.35,2.35,0,.88-.49,1.65-1.21,2.05h1.21c2.67,0,4.84,2.17,4.84,4.84,0,.05,0,.1,0,.15h5.05v4.7h-38.75v-4.7h4.95s0-.1,0-.15c0-2.67,2.17-4.84,4.84-4.84h1.21c-.72-.4-1.21-1.17-1.21-2.05,0-1.3,1.05-2.35,2.35-2.35h3.72v-7.61"/>
    </clipPath>
    <clipPath id="clippath-5">
      <path class="cls-12" d="m170.4,208.97c7.78-1.63,13.64-8.47,13.76-16.7v-3.45s0,0,0,0h1c1.95,0,3.52-1.58,3.52-3.52s-1.58-3.52-3.52-3.52h-3.63l-12.33-17.02c.79-.65,1.29-1.63,1.29-2.72,0-1.95-1.58-3.52-3.52-3.52s-3.52,1.58-3.52,3.52c0,1.09.49,2.06,1.27,2.7l-12.32,17.04h-3.92c-1.95,0-3.52,1.58-3.52,3.52s1.58,3.52,3.52,3.52h1s0,3.28,0,3.28c.15,8.24,6.05,15.3,13.86,16.9"/>
    </clipPath>
    <clipPath id="clippath-6">
      <path class="cls-14" d="m119.04,282.63v7.58h3.62c1.3,0,2.35,1.05,2.35,2.35,0,.88-.49,1.65-1.21,2.05h1.21c2.67,0,4.84,2.17,4.84,4.84,0,.05,0,.1,0,.15h5.05v4.7h-38.75v-4.7h4.95s0-.1,0-.15c0-2.67,2.17-4.84,4.84-4.84h1.21c-.72-.4-1.21-1.17-1.21-2.05,0-1.3,1.05-2.35,2.35-2.35h3.72v-7.61"/>
    </clipPath>
    <clipPath id="clippath-7">
      <path class="cls-12" d="m119.05,282.62c7.78-1.63,13.64-8.47,13.76-16.7v-3.45s0,0,0,0h1c1.95,0,3.52-1.58,3.52-3.52s-1.58-3.52-3.52-3.52h-3.63l-12.33-17.02c.79-.65,1.29-1.63,1.29-2.72,0-1.95-1.58-3.52-3.52-3.52s-3.52,1.58-3.52,3.52c0,1.09.49,2.06,1.27,2.7l-12.32,17.04h-3.92c-1.95,0-3.52,1.58-3.52,3.52s1.58,3.52,3.52,3.52h1s0,3.28,0,3.28c.15,8.24,6.05,15.3,13.86,16.9"/>
    </clipPath>
    <clipPath id="clippath-8">
      <path class="cls-14" d="m42.5,352.6v4.75h2.27c.81,0,1.47.66,1.47,1.47,0,.55-.31,1.04-.76,1.29h.76c1.67,0,3.03,1.36,3.03,3.03,0,.03,0,.06,0,.09h3.16v2.94h-24.26v-2.94h3.1s0-.06,0-.09c0-1.67,1.36-3.03,3.03-3.03h.76c-.45-.25-.76-.73-.76-1.29,0-.81.66-1.47,1.47-1.47h2.33v-4.77"/>
    </clipPath>
    <clipPath id="clippath-9">
      <path class="cls-12" d="m42.51,352.59c4.87-1.02,8.54-5.3,8.62-10.46v-2.16s0,0,0,0h.63c1.22,0,2.21-.99,2.21-2.21s-.99-2.21-2.21-2.21h-2.27l-7.72-10.66c.49-.4.81-1.02.81-1.7,0-1.22-.99-2.21-2.21-2.21s-2.21.99-2.21,2.21c0,.68.31,1.29.79,1.69l-7.71,10.67h-2.45c-1.22,0-2.21.99-2.21,2.21s.99,2.21,2.21,2.21h.63s0,2.05,0,2.05c.09,5.16,3.79,9.58,8.68,10.58"/>
    </clipPath>
  </defs>
  <g class="cls-10">
    <g id="Capa_2" data-name="Capa 2">
      <g id="Capa_1-2" data-name="Capa 1">
        <rect class="cls-17" x="2" y="2" width="265.74" height="375.43" rx="19.9" ry="19.9"/>
        <path class="cls-13" d="m230.81,343.29c5.89-.19,9.28-2.5,9.28-6.46,0-3.65-2.75-6.02-7.62-6.02-2.5,0-4.61.64-6.4,1.98-1.09.7-1.47,1.28-2.11,1.28-.83,0-1.6-.96-1.6-1.79,0-.77.83-1.6,1.79-2.24,2.05-1.54,4.8-2.62,8.64-2.62,6.91,0,11.26,3.46,11.26,8.83,0,4.29-2.94,7.42-7.81,8.38,5.57.83,8.96,4.35,8.96,9.47,0,6.27-5.25,10.37-12.61,10.37-3.52,0-6.53-1.02-8.7-2.56-1.02-.7-1.6-1.34-1.6-2.05,0-.77.77-1.86,1.66-1.86.58,0,1.02.45,1.98,1.02,2.05,1.41,4.29,2.05,6.66,2.05,5.12,0,8.64-2.75,8.64-7.17,0-2.94-1.6-5.57-6.14-6.78-1.41-.38-2.88-.51-4.99-.51-1.73,0-2.88.06-2.88-1.6s1.34-1.66,3.58-1.73Z"/>
        <rect class="cls-16" x="53.76" y="65.05" width="164.22" height="252.58" rx="5.69" ry="5.69"/>
        <g>
          <g>
            <path class="cls-14" d="m236.6,45.95v4.75h2.27c.81,0,1.47.66,1.47,1.47,0,.55-.31,1.04-.76,1.29h.76c1.67,0,3.03,1.36,3.03,3.03,0,.03,0,.06,0,.09h3.16v2.94h-24.26v-2.94h3.1s0-.06,0-.09c0-1.67,1.36-3.03,3.03-3.03h.76c-.45-.25-.76-.73-.76-1.29,0-.81.66-1.47,1.47-1.47h2.33v-4.77"/>
            <g class="cls-11">
              <g>
                <rect class="cls-12" x="227.41" y="50.7" width="14.12" height="2.75"/>
                <rect class="cls-15" x="224.69" y="53.45" width="19.3" height="3.13"/>
              </g>
            </g>
          </g>
          <g>
            <g>
              <path class="cls-12" d="m236.6,45.95c4.87-1.02,8.54-5.3,8.62-10.46v-2.16s0,0,0,0h.63c1.22,0,2.21-.99,2.21-2.21s-.99-2.21-2.21-2.21h-2.27l-7.72-10.66c.49-.4.81-1.02.81-1.7,0-1.22-.99-2.21-2.21-2.21s-2.21.99-2.21,2.21c0,.68.31,1.29.79,1.69l-7.71,10.67h-2.45c-1.22,0-2.21.99-2.21,2.21s.99,2.21,2.21,2.21h.63s0,2.05,0,2.05c.09,5.16,3.79,9.58,8.68,10.58"/>
              <g class="cls-9">
                <g>
                  <rect class="cls-15" x="221.33" y="33.13" width="25.37" height="13.46"/>
                  <rect class="cls-14" x="218.83" y="28.92" width="29.99" height="4.41"/>
                  <circle class="cls-14" cx="234.45" cy="16.57" r="2.21"/>
                </g>
              </g>
            </g>
            <path class="cls-18" d="m245.22,35.49v-2.16s0,0,0,0h.63c1.22,0,2.21-.99,2.21-2.21s-.99-2.21-2.21-2.21h-2.27l-7.72-10.66c.49-.4.81-1.02.81-1.7,0-1.19-.94-2.15-2.11-2.2v31.6h2.06c4.87-1.03,8.54-5.31,8.62-10.46Z"/>
          </g>
          <path class="cls-18" d="m243.37,56.49c0-1.67-1.36-3.03-3.03-3.03h-.76c.45-.25.76-.73.76-1.29,0-.81-.66-1.47-1.47-1.47h-2.27v-4.75h-2.05s0,13.57,0,13.57h11.98v-2.94h-3.16s0-.06,0-.09Z"/>
        </g>
        <g>
          <g>
            <path class="cls-14" d="m119.04,128.72v7.58h3.62c1.3,0,2.35,1.05,2.35,2.35,0,.88-.49,1.65-1.21,2.05h1.21c2.67,0,4.84,2.17,4.84,4.84,0,.05,0,.1,0,.15h5.05v4.7h-38.75v-4.7h4.95s0-.1,0-.15c0-2.67,2.17-4.84,4.84-4.84h1.21c-.72-.4-1.21-1.17-1.21-2.05,0-1.3,1.05-2.35,2.35-2.35h3.72v-7.61"/>
            <g class="cls-8">
              <g>
                <rect class="cls-12" x="104.36" y="136.29" width="22.55" height="4.39"/>
                <rect class="cls-15" x="100.02" y="140.69" width="30.83" height="5"/>
              </g>
            </g>
          </g>
          <g>
            <g>
              <path class="cls-12" d="m119.05,128.71c7.78-1.63,13.64-8.47,13.76-16.7v-3.45s0,0,0,0h1c1.95,0,3.52-1.58,3.52-3.52s-1.58-3.52-3.52-3.52h-3.63l-12.33-17.02c.79-.65,1.29-1.63,1.29-2.72,0-1.95-1.58-3.52-3.52-3.52s-3.52,1.58-3.52,3.52c0,1.09.49,2.06,1.27,2.7l-12.32,17.04h-3.92c-1.95,0-3.52,1.58-3.52,3.52s1.58,3.52,3.52,3.52h1s0,3.28,0,3.28c.15,8.24,6.05,15.3,13.86,16.9"/>
              <g class="cls-6">
                <g>
                  <rect class="cls-15" x="94.65" y="108.23" width="40.51" height="21.5"/>
                  <rect class="cls-14" x="90.66" y="101.52" width="47.9" height="7.04"/>
                  <circle class="cls-14" cx="115.61" cy="81.78" r="3.52"/>
                </g>
              </g>
            </g>
            <path class="cls-18" d="m132.81,112.01v-3.45s0,0,0,0h1c1.95,0,3.52-1.58,3.52-3.52s-1.58-3.52-3.52-3.52h-3.63l-12.33-17.02c.79-.65,1.29-1.63,1.29-2.72,0-1.9-1.5-3.44-3.37-3.51v50.46h3.28c7.78-1.64,13.64-8.48,13.76-16.71Z"/>
          </g>
          <path class="cls-18" d="m129.85,145.54c0-2.67-2.17-4.84-4.84-4.84h-1.21c.72-.4,1.21-1.17,1.21-2.05,0-1.3-1.05-2.35-2.35-2.35h-3.62v-7.58h-3.28s0,21.67,0,21.67h19.13v-4.7h-5.05s0-.1,0-.15Z"/>
        </g>
        <g>
          <g>
            <path class="cls-14" d="m170.39,208.98v7.58h3.62c1.3,0,2.35,1.05,2.35,2.35,0,.88-.49,1.65-1.21,2.05h1.21c2.67,0,4.84,2.17,4.84,4.84,0,.05,0,.1,0,.15h5.05v4.7h-38.75v-4.7h4.95s0-.1,0-.15c0-2.67,2.17-4.84,4.84-4.84h1.21c-.72-.4-1.21-1.17-1.21-2.05,0-1.3,1.05-2.35,2.35-2.35h3.72v-7.61"/>
            <g class="cls-7">
              <g>
                <rect class="cls-12" x="155.71" y="216.56" width="22.55" height="4.39"/>
                <rect class="cls-15" x="151.38" y="220.95" width="30.83" height="5"/>
              </g>
            </g>
          </g>
          <g>
            <g>
              <path class="cls-12" d="m170.4,208.97c7.78-1.63,13.64-8.47,13.76-16.7v-3.45s0,0,0,0h1c1.95,0,3.52-1.58,3.52-3.52s-1.58-3.52-3.52-3.52h-3.63l-12.33-17.02c.79-.65,1.29-1.63,1.29-2.72,0-1.95-1.58-3.52-3.52-3.52s-3.52,1.58-3.52,3.52c0,1.09.49,2.06,1.27,2.7l-12.32,17.04h-3.92c-1.95,0-3.52,1.58-3.52,3.52s1.58,3.52,3.52,3.52h1s0,3.28,0,3.28c.15,8.24,6.05,15.3,13.86,16.9"/>
              <g class="cls-5">
                <g>
                  <rect class="cls-15" x="146" y="188.5" width="40.51" height="21.5"/>
                  <rect class="cls-14" x="142.02" y="181.78" width="47.9" height="7.04"/>
                  <circle class="cls-14" cx="166.97" cy="162.05" r="3.52"/>
                </g>
              </g>
            </g>
            <path class="cls-18" d="m184.17,192.27v-3.45s0,0,0,0h1c1.95,0,3.52-1.58,3.52-3.52s-1.58-3.52-3.52-3.52h-3.63l-12.33-17.02c.79-.65,1.29-1.63,1.29-2.72,0-1.9-1.5-3.44-3.37-3.51v50.46h3.28c7.78-1.64,13.64-8.48,13.76-16.71Z"/>
          </g>
          <path class="cls-18" d="m181.21,225.81c0-2.67-2.17-4.84-4.84-4.84h-1.21c.72-.4,1.21-1.17,1.21-2.05,0-1.3-1.05-2.35-2.35-2.35h-3.62v-7.58h-3.28s0,21.67,0,21.67h19.13v-4.7h-5.05s0-.1,0-.15Z"/>
        </g>
        <g>
          <g>
            <path class="cls-14" d="m119.04,282.63v7.58h3.62c1.3,0,2.35,1.05,2.35,2.35,0,.88-.49,1.65-1.21,2.05h1.21c2.67,0,4.84,2.17,4.84,4.84,0,.05,0,.1,0,.15h5.05v4.7h-38.75v-4.7h4.95s0-.1,0-.15c0-2.67,2.17-4.84,4.84-4.84h1.21c-.72-.4-1.21-1.17-1.21-2.05,0-1.3,1.05-2.35,2.35-2.35h3.72v-7.61"/>
            <g class="cls-3">
              <g>
                <rect class="cls-12" x="104.36" y="290.21" width="22.55" height="4.39"/>
                <rect class="cls-15" x="100.02" y="294.6" width="30.83" height="5"/>
              </g>
            </g>
          </g>
          <g>
            <g>
              <path class="cls-12" d="m119.05,282.62c7.78-1.63,13.64-8.47,13.76-16.7v-3.45s0,0,0,0h1c1.95,0,3.52-1.58,3.52-3.52s-1.58-3.52-3.52-3.52h-3.63l-12.33-17.02c.79-.65,1.29-1.63,1.29-2.72,0-1.95-1.58-3.52-3.52-3.52s-3.52,1.58-3.52,3.52c0,1.09.49,2.06,1.27,2.7l-12.32,17.04h-3.92c-1.95,0-3.52,1.58-3.52,3.52s1.58,3.52,3.52,3.52h1s0,3.28,0,3.28c.15,8.24,6.05,15.3,13.86,16.9"/>
              <g class="cls-2">
                <g>
                  <rect class="cls-15" x="94.65" y="262.15" width="40.51" height="21.5"/>
                  <rect class="cls-14" x="90.66" y="255.43" width="47.9" height="7.04"/>
                  <circle class="cls-14" cx="115.61" cy="235.7" r="3.52"/>
                </g>
              </g>
            </g>
            <path class="cls-18" d="m132.81,265.92v-3.45s0,0,0,0h1c1.95,0,3.52-1.58,3.52-3.52s-1.58-3.52-3.52-3.52h-3.63l-12.33-17.02c.79-.65,1.29-1.63,1.29-2.72,0-1.9-1.5-3.44-3.37-3.51v50.46h3.28c7.78-1.64,13.64-8.48,13.76-16.71Z"/>
          </g>
          <path class="cls-18" d="m129.85,299.46c0-2.67-2.17-4.84-4.84-4.84h-1.21c.72-.4,1.21-1.17,1.21-2.05,0-1.3-1.05-2.35-2.35-2.35h-3.62v-7.58h-3.28s0,21.67,0,21.67h19.13v-4.7h-5.05s0-.1,0-.15Z"/>
        </g>
        <g>
          <g>
            <path class="cls-14" d="m42.5,352.6v4.75h2.27c.81,0,1.47.66,1.47,1.47,0,.55-.31,1.04-.76,1.29h.76c1.67,0,3.03,1.36,3.03,3.03,0,.03,0,.06,0,.09h3.16v2.94h-24.26v-2.94h3.1s0-.06,0-.09c0-1.67,1.36-3.03,3.03-3.03h.76c-.45-.25-.76-.73-.76-1.29,0-.81.66-1.47,1.47-1.47h2.33v-4.77"/>
            <g class="cls-1">
              <g>
                <rect class="cls-12" x="33.31" y="357.34" width="14.12" height="2.75"/>
                <rect class="cls-15" x="30.6" y="360.09" width="19.3" height="3.13"/>
              </g>
            </g>
          </g>
          <g>
            <g>
              <path class="cls-12" d="m42.51,352.59c4.87-1.02,8.54-5.3,8.62-10.46v-2.16s0,0,0,0h.63c1.22,0,2.21-.99,2.21-2.21s-.99-2.21-2.21-2.21h-2.27l-7.72-10.66c.49-.4.81-1.02.81-1.7,0-1.22-.99-2.21-2.21-2.21s-2.21.99-2.21,2.21c0,.68.31,1.29.79,1.69l-7.71,10.67h-2.45c-1.22,0-2.21.99-2.21,2.21s.99,2.21,2.21,2.21h.63s0,2.05,0,2.05c.09,5.16,3.79,9.58,8.68,10.58"/>
              <g class="cls-4">
                <g>
                  <rect class="cls-15" x="27.23" y="339.77" width="25.37" height="13.46"/>
                  <rect class="cls-14" x="24.74" y="335.57" width="29.99" height="4.41"/>
                  <circle class="cls-14" cx="40.36" cy="323.21" r="2.21"/>
                </g>
              </g>
            </g>
            <path class="cls-18" d="m51.13,342.13v-2.16s0,0,0,0h.63c1.22,0,2.21-.99,2.21-2.21s-.99-2.21-2.21-2.21h-2.27l-7.72-10.66c.49-.4.81-1.02.81-1.7,0-1.19-.94-2.15-2.11-2.2v31.6h2.06c4.87-1.03,8.54-5.31,8.62-10.46Z"/>
          </g>
          <path class="cls-18" d="m49.27,363.13c0-1.67-1.36-3.03-3.03-3.03h-.76c.45-.25.76-.73.76-1.29,0-.81-.66-1.47-1.47-1.47h-2.27v-4.75h-2.05s0,13.57,0,13.57h11.98v-2.94h-3.16s0-.06,0-.09Z"/>
        </g>
        <path class="cls-13" d="m37.32,34.28c5.89-.19,9.28-2.5,9.28-6.46,0-3.65-2.75-6.02-7.62-6.02-2.5,0-4.61.64-6.4,1.98-1.09.7-1.47,1.28-2.11,1.28-.83,0-1.6-.96-1.6-1.79,0-.77.83-1.6,1.79-2.24,2.05-1.54,4.8-2.62,8.64-2.62,6.91,0,11.26,3.46,11.26,8.83,0,4.29-2.94,7.42-7.81,8.38,5.57.83,8.96,4.35,8.96,9.47,0,6.27-5.25,10.37-12.61,10.37-3.52,0-6.53-1.02-8.7-2.56-1.02-.7-1.6-1.34-1.6-2.05,0-.77.77-1.86,1.66-1.86.58,0,1.02.45,1.98,1.02,2.05,1.41,4.29,2.05,6.66,2.05,5.12,0,8.64-2.75,8.64-7.17,0-2.94-1.6-5.57-6.14-6.78-1.41-.38-2.88-.51-4.99-.51-1.73,0-2.88.06-2.88-1.6s1.34-1.66,3.58-1.73Z"/>
      </g>
    </g>
  </g>
</svg>