<?xml version="1.0" encoding="UTF-8"?>
<svg xmlns="http://www.w3.org/2000/svg" xmlns:xlink="http://www.w3.org/1999/xlink" viewBox="0 0 269.74 379.43">
  <defs>
    <style>
      .cls-1 {
        clip-path: url(#clippath-8);
      }

      .cls-1, .cls-2, .cls-3, .cls-4, .cls-5, .cls-6, .cls-7, .cls-8, .cls-9, .cls-10, .cls-11, .cls-12, .cls-13, .cls-14, .cls-15, .cls-16, .cls-17, .cls-18, .cls-19 {
        fill: none;
      }

      .cls-2 {
        clip-path: url(#clippath-7);
      }

      .cls-3 {
        clip-path: url(#clippath-6);
      }

      .cls-4 {
        clip-path: url(#clippath-9);
      }

      .cls-5 {
        clip-path: url(#clippath-5);
      }

      .cls-6 {
        clip-path: url(#clippath-3);
      }

      .cls-7 {
        clip-path: url(#clippath-4);
      }

      .cls-8 {
        clip-path: url(#clippath-2);
      }

      .cls-9 {
        clip-path: url(#clippath-1);
      }

      .cls-10 {
        isolation: isolate;
      }

      .cls-20 {
        fill: #e5332a;
      }

      .cls-21 {
        fill: #686868;
      }

      .cls-22 {
        fill: #daac4f;
      }

      .cls-23 {
        fill: #1c5788;
      }

      .cls-24 {
        fill: #fff;
        stroke: #a3a3a3;
        stroke-width: 2px;
      }

      .cls-24, .cls-25 {
        stroke-miterlimit: 10;
      }

      .cls-25 {
        fill: #f2f2f2;
        stroke: #686868;
        stroke-width: 4px;
      }

      .cls-11 {
        clip-path: url(#clippath-13);
      }

      .cls-12 {
        clip-path: url(#clippath-14);
      }

      .cls-13 {
        clip-path: url(#clippath-12);
      }

      .cls-14 {
        clip-path: url(#clippath-11);
      }

      .cls-15 {
        clip-path: url(#clippath-17);
      }

      .cls-16 {
        clip-path: url(#clippath-16);
      }

      .cls-17 {
        clip-path: url(#clippath-10);
      }

      .cls-18 {
        clip-path: url(#clippath-15);
      }

      .cls-19 {
        clip-path: url(#clippath);
      }

      .cls-26 {
        mix-blend-mode: multiply;
        opacity: .2;
      }
    </style>
    <clipPath id="clippath">
      <path class="cls-22" d="m236.6,45.95v4.75h2.27c.81,0,1.47.66,1.47,1.47,0,.55-.31,1.04-.76,1.29h.76c1.67,0,3.03,1.36,3.03,3.03,0,.03,0,.06,0,.09h3.16v2.94h-24.26v-2.94h3.1s0-.06,0-.09c0-1.67,1.36-3.03,3.03-3.03h.76c-.45-.25-.76-.73-.76-1.29,0-.81.66-1.47,1.47-1.47h2.33v-4.77"/>
    </clipPath>
    <clipPath id="clippath-1">
      <path class="cls-20" d="m236.6,45.95c4.87-1.02,8.54-5.3,8.62-10.46v-2.16s0,0,0,0h.63c1.22,0,2.21-.99,2.21-2.21s-.99-2.21-2.21-2.21h-2.27l-7.72-10.66c.49-.4.81-1.02.81-1.7,0-1.22-.99-2.21-2.21-2.21s-2.21.99-2.21,2.21c0,.68.31,1.29.79,1.69l-7.71,10.67h-2.45c-1.22,0-2.21.99-2.21,2.21s.99,2.21,2.21,2.21h.63s0,2.05,0,2.05c.09,5.16,3.79,9.58,8.68,10.58"/>
    </clipPath>
    <clipPath id="clippath-2">
      <path class="cls-22" d="m89.21,131.33v5.81h2.77c.99,0,1.8.81,1.8,1.8,0,.68-.37,1.27-.93,1.57h.93c2.05,0,3.71,1.66,3.71,3.71,0,.04,0,.07,0,.11h3.86v3.6h-29.67v-3.6h3.79s0-.07,0-.11c0-2.05,1.66-3.71,3.71-3.71h.93c-.55-.31-.93-.9-.93-1.57,0-.99.81-1.8,1.8-1.8h2.85v-5.83"/>
    </clipPath>
    <clipPath id="clippath-3">
      <path class="cls-20" d="m89.22,131.32c5.95-1.25,10.44-6.49,10.54-12.79v-2.65s0,0,0,0h.76c1.49,0,2.7-1.21,2.7-2.7s-1.21-2.7-2.7-2.7h-2.78l-9.44-13.03c.6-.49.99-1.24.99-2.08,0-1.49-1.21-2.7-2.7-2.7s-2.7,1.21-2.7,2.7c0,.83.38,1.58.97,2.07l-9.43,13.05h-3c-1.49,0-2.7,1.21-2.7,2.7s1.21,2.7,2.7,2.7h.77s0,2.51,0,2.51c.11,6.31,4.64,11.72,10.62,12.94"/>
    </clipPath>
    <clipPath id="clippath-4">
      <path class="cls-22" d="m138.31,131.33v5.81h2.77c.99,0,1.8.81,1.8,1.8,0,.68-.37,1.27-.93,1.57h.93c2.05,0,3.71,1.66,3.71,3.71,0,.04,0,.07,0,.11h3.86v3.6h-29.67v-3.6h3.79s0-.07,0-.11c0-2.05,1.66-3.71,3.71-3.71h.93c-.55-.31-.93-.9-.93-1.57,0-.99.81-1.8,1.8-1.8h2.85v-5.83"/>
    </clipPath>
    <clipPath id="clippath-5">
      <path class="cls-20" d="m138.31,131.32c5.95-1.25,10.44-6.49,10.54-12.79v-2.65s0,0,0,0h.76c1.49,0,2.7-1.21,2.7-2.7s-1.21-2.7-2.7-2.7h-2.78l-9.44-13.03c.6-.49.99-1.24.99-2.08,0-1.49-1.21-2.7-2.7-2.7s-2.7,1.21-2.7,2.7c0,.83.38,1.58.97,2.07l-9.43,13.05h-3c-1.49,0-2.7,1.21-2.7,2.7s1.21,2.7,2.7,2.7h.77s0,2.51,0,2.51c.11,6.31,4.64,11.72,10.62,12.94"/>
    </clipPath>
    <clipPath id="clippath-6">
      <path class="cls-22" d="m187.4,131.33v5.81h2.77c.99,0,1.8.81,1.8,1.8,0,.68-.37,1.27-.93,1.57h.93c2.05,0,3.71,1.66,3.71,3.71,0,.04,0,.07,0,.11h3.86v3.6h-29.67v-3.6h3.79s0-.07,0-.11c0-2.05,1.66-3.71,3.71-3.71h.93c-.55-.31-.93-.9-.93-1.57,0-.99.81-1.8,1.8-1.8h2.85v-5.83"/>
    </clipPath>
    <clipPath id="clippath-7">
      <path class="cls-20" d="m187.41,131.32c5.95-1.25,10.44-6.49,10.54-12.79v-2.65s0,0,0,0h.76c1.49,0,2.7-1.21,2.7-2.7s-1.21-2.7-2.7-2.7h-2.78l-9.44-13.03c.6-.49.99-1.24.99-2.08,0-1.49-1.21-2.7-2.7-2.7s-2.7,1.21-2.7,2.7c0,.83.38,1.58.97,2.07l-9.43,13.05h-3c-1.49,0-2.7,1.21-2.7,2.7s1.21,2.7,2.7,2.7h.77s0,2.51,0,2.51c.11,6.31,4.64,11.72,10.62,12.94"/>
    </clipPath>
    <clipPath id="clippath-8">
      <path class="cls-22" d="m89.21,271.9v5.81h2.77c.99,0,1.8.81,1.8,1.8,0,.68-.37,1.27-.93,1.57h.93c2.05,0,3.71,1.66,3.71,3.71,0,.04,0,.07,0,.11h3.86v3.6h-29.67v-3.6h3.79s0-.07,0-.11c0-2.05,1.66-3.71,3.71-3.71h.93c-.55-.31-.93-.9-.93-1.57,0-.99.81-1.8,1.8-1.8h2.85v-5.83"/>
    </clipPath>
    <clipPath id="clippath-9">
      <path class="cls-20" d="m89.22,271.89c5.95-1.25,10.44-6.49,10.54-12.79v-2.65s0,0,0,0h.76c1.49,0,2.7-1.21,2.7-2.7s-1.21-2.7-2.7-2.7h-2.78l-9.44-13.03c.6-.49.99-1.24.99-2.08,0-1.49-1.21-2.7-2.7-2.7s-2.7,1.21-2.7,2.7c0,.83.38,1.58.97,2.07l-9.43,13.05h-3c-1.49,0-2.7,1.21-2.7,2.7s1.21,2.7,2.7,2.7h.77s0,2.51,0,2.51c.11,6.31,4.64,11.72,10.62,12.94"/>
    </clipPath>
    <clipPath id="clippath-10">
      <path class="cls-22" d="m138.31,271.9v5.81h2.77c.99,0,1.8.81,1.8,1.8,0,.68-.37,1.27-.93,1.57h.93c2.05,0,3.71,1.66,3.71,3.71,0,.04,0,.07,0,.11h3.86v3.6h-29.67v-3.6h3.79s0-.07,0-.11c0-2.05,1.66-3.71,3.71-3.71h.93c-.55-.31-.93-.9-.93-1.57,0-.99.81-1.8,1.8-1.8h2.85v-5.83"/>
    </clipPath>
    <clipPath id="clippath-11">
      <path class="cls-20" d="m138.31,271.89c5.95-1.25,10.44-6.49,10.54-12.79v-2.65s0,0,0,0h.76c1.49,0,2.7-1.21,2.7-2.7s-1.21-2.7-2.7-2.7h-2.78l-9.44-13.03c.6-.49.99-1.24.99-2.08,0-1.49-1.21-2.7-2.7-2.7s-2.7,1.21-2.7,2.7c0,.83.38,1.58.97,2.07l-9.43,13.05h-3c-1.49,0-2.7,1.21-2.7,2.7s1.21,2.7,2.7,2.7h.77s0,2.51,0,2.51c.11,6.31,4.64,11.72,10.62,12.94"/>
    </clipPath>
    <clipPath id="clippath-12">
      <path class="cls-22" d="m138.31,201.98v5.81h2.77c.99,0,1.8.81,1.8,1.8,0,.68-.37,1.27-.93,1.57h.93c2.05,0,3.71,1.66,3.71,3.71,0,.04,0,.07,0,.11h3.86v3.6h-29.67v-3.6h3.79s0-.07,0-.11c0-2.05,1.66-3.71,3.71-3.71h.93c-.55-.31-.93-.9-.93-1.57,0-.99.81-1.8,1.8-1.8h2.85v-5.83"/>
    </clipPath>
    <clipPath id="clippath-13">
      <path class="cls-20" d="m138.31,201.98c5.95-1.25,10.44-6.49,10.54-12.79v-2.65s0,0,0,0h.76c1.49,0,2.7-1.21,2.7-2.7s-1.21-2.7-2.7-2.7h-2.78l-9.44-13.03c.6-.49.99-1.24.99-2.08,0-1.49-1.21-2.7-2.7-2.7s-2.7,1.21-2.7,2.7c0,.83.38,1.58.97,2.07l-9.43,13.05h-3c-1.49,0-2.7,1.21-2.7,2.7s1.21,2.7,2.7,2.7h.77s0,2.51,0,2.51c.11,6.31,4.64,11.72,10.62,12.94"/>
    </clipPath>
    <clipPath id="clippath-14">
      <path class="cls-22" d="m187.4,271.9v5.81h2.77c.99,0,1.8.81,1.8,1.8,0,.68-.37,1.27-.93,1.57h.93c2.05,0,3.71,1.66,3.71,3.71,0,.04,0,.07,0,.11h3.86v3.6h-29.67v-3.6h3.79s0-.07,0-.11c0-2.05,1.66-3.71,3.71-3.71h.93c-.55-.31-.93-.9-.93-1.57,0-.99.81-1.8,1.8-1.8h2.85v-5.83"/>
    </clipPath>
    <clipPath id="clippath-15">
      <path class="cls-20" d="m187.41,271.89c5.95-1.25,10.44-6.49,10.54-12.79v-2.65s0,0,0,0h.76c1.49,0,2.7-1.21,2.7-2.7s-1.21-2.7-2.7-2.7h-2.78l-9.44-13.03c.6-.49.99-1.24.99-2.08,0-1.49-1.21-2.7-2.7-2.7s-2.7,1.21-2.7,2.7c0,.83.38,1.58.97,2.07l-9.43,13.05h-3c-1.49,0-2.7,1.21-2.7,2.7s1.21,2.7,2.7,2.7h.77s0,2.51,0,2.51c.11,6.31,4.64,11.72,10.62,12.94"/>
    </clipPath>
    <clipPath id="clippath-16">
      <path class="cls-22" d="m42.5,352.6v4.75h2.27c.81,0,1.47.66,1.47,1.47,0,.55-.31,1.04-.76,1.29h.76c1.67,0,3.03,1.36,3.03,3.03,0,.03,0,.06,0,.09h3.16v2.94h-24.26v-2.94h3.1s0-.06,0-.09c0-1.67,1.36-3.03,3.03-3.03h.76c-.45-.25-.76-.73-.76-1.29,0-.81.66-1.47,1.47-1.47h2.33v-4.77"/>
    </clipPath>
    <clipPath id="clippath-17">
      <path class="cls-20" d="m42.51,352.59c4.87-1.02,8.54-5.3,8.62-10.46v-2.16s0,0,0,0h.63c1.22,0,2.21-.99,2.21-2.21s-.99-2.21-2.21-2.21h-2.27l-7.72-10.66c.49-.4.81-1.02.81-1.7,0-1.22-.99-2.21-2.21-2.21s-2.21.99-2.21,2.21c0,.68.31,1.29.79,1.69l-7.71,10.67h-2.45c-1.22,0-2.21.99-2.21,2.21s.99,2.21,2.21,2.21h.63s0,2.05,0,2.05c.09,5.16,3.79,9.58,8.68,10.58"/>
    </clipPath>
  </defs>
  <g class="cls-10">
    <g id="Capa_2" data-name="Capa 2">
      <g id="Capa_1-2" data-name="Capa 1">
        <rect class="cls-25" x="2" y="2" width="265.74" height="375.43" rx="19.9" ry="19.9"/>
        <path class="cls-21" d="m223.9,331.45c-1.15,0-1.73-.58-1.73-1.79,0-1.15.58-1.73,1.73-1.73h20.03c1.22,0,1.86.58,1.86,1.73,0,.7-.26,1.41-.58,2.24l-13.63,30.4c-.51,1.28-.9,2.11-2.56,2.11-1.34,0-1.79-.45-1.79-1.15,0-.51.26-1.09.51-1.73l13.95-30.08h-17.79Z"/>
        <rect class="cls-24" x="53.76" y="65.05" width="164.22" height="252.58" rx="5.69" ry="5.69"/>
        <g>
          <g>
            <path class="cls-22" d="m236.6,45.95v4.75h2.27c.81,0,1.47.66,1.47,1.47,0,.55-.31,1.04-.76,1.29h.76c1.67,0,3.03,1.36,3.03,3.03,0,.03,0,.06,0,.09h3.16v2.94h-24.26v-2.94h3.1s0-.06,0-.09c0-1.67,1.36-3.03,3.03-3.03h.76c-.45-.25-.76-.73-.76-1.29,0-.81.66-1.47,1.47-1.47h2.33v-4.77"/>
            <g class="cls-19">
              <g>
                <rect class="cls-20" x="227.41" y="50.7" width="14.12" height="2.75"/>
                <rect class="cls-23" x="224.69" y="53.45" width="19.3" height="3.13"/>
              </g>
            </g>
          </g>
          <g>
            <g>
              <path class="cls-20" d="m236.6,45.95c4.87-1.02,8.54-5.3,8.62-10.46v-2.16s0,0,0,0h.63c1.22,0,2.21-.99,2.21-2.21s-.99-2.21-2.21-2.21h-2.27l-7.72-10.66c.49-.4.81-1.02.81-1.7,0-1.22-.99-2.21-2.21-2.21s-2.21.99-2.21,2.21c0,.68.31,1.29.79,1.69l-7.71,10.67h-2.45c-1.22,0-2.21.99-2.21,2.21s.99,2.21,2.21,2.21h.63s0,2.05,0,2.05c.09,5.16,3.79,9.58,8.68,10.58"/>
              <g class="cls-9">
                <g>
                  <rect class="cls-23" x="221.33" y="33.13" width="25.37" height="13.46"/>
                  <rect class="cls-22" x="218.83" y="28.92" width="29.99" height="4.41"/>
                  <circle class="cls-22" cx="234.45" cy="16.57" r="2.21"/>
                </g>
              </g>
            </g>
            <path class="cls-26" d="m245.22,35.49v-2.16s0,0,0,0h.63c1.22,0,2.21-.99,2.21-2.21s-.99-2.21-2.21-2.21h-2.27l-7.72-10.66c.49-.4.81-1.02.81-1.7,0-1.19-.94-2.15-2.11-2.2v31.6h2.06c4.87-1.03,8.54-5.31,8.62-10.46Z"/>
          </g>
          <path class="cls-26" d="m243.37,56.49c0-1.67-1.36-3.03-3.03-3.03h-.76c.45-.25.76-.73.76-1.29,0-.81-.66-1.47-1.47-1.47h-2.27v-4.75h-2.05s0,13.57,0,13.57h11.98v-2.94h-3.16s0-.06,0-.09Z"/>
        </g>
        <g>
          <g>
            <path class="cls-22" d="m89.21,131.33v5.81h2.77c.99,0,1.8.81,1.8,1.8,0,.68-.37,1.27-.93,1.57h.93c2.05,0,3.71,1.66,3.71,3.71,0,.04,0,.07,0,.11h3.86v3.6h-29.67v-3.6h3.79s0-.07,0-.11c0-2.05,1.66-3.71,3.71-3.71h.93c-.55-.31-.93-.9-.93-1.57,0-.99.81-1.8,1.8-1.8h2.85v-5.83"/>
            <g class="cls-8">
              <g>
                <rect class="cls-20" x="77.97" y="137.13" width="17.27" height="3.36"/>
                <rect class="cls-23" x="74.65" y="140.49" width="23.61" height="3.83"/>
              </g>
            </g>
          </g>
          <g>
            <g>
              <path class="cls-20" d="m89.22,131.32c5.95-1.25,10.44-6.49,10.54-12.79v-2.65s0,0,0,0h.76c1.49,0,2.7-1.21,2.7-2.7s-1.21-2.7-2.7-2.7h-2.78l-9.44-13.03c.6-.49.99-1.24.99-2.08,0-1.49-1.21-2.7-2.7-2.7s-2.7,1.21-2.7,2.7c0,.83.38,1.58.97,2.07l-9.43,13.05h-3c-1.49,0-2.7,1.21-2.7,2.7s1.21,2.7,2.7,2.7h.77s0,2.51,0,2.51c.11,6.31,4.64,11.72,10.62,12.94"/>
              <g class="cls-6">
                <g>
                  <rect class="cls-23" x="70.53" y="115.64" width="31.02" height="16.47"/>
                  <rect class="cls-22" x="67.48" y="110.5" width="36.68" height="5.39"/>
                  <circle class="cls-22" cx="86.59" cy="95.39" r="2.7"/>
                </g>
              </g>
            </g>
            <path class="cls-26" d="m99.76,118.53v-2.65s0,0,0,0h.77c1.49,0,2.7-1.21,2.7-2.7s-1.21-2.7-2.7-2.7h-2.78l-9.44-13.03c.6-.49.99-1.24.99-2.08,0-1.45-1.15-2.63-2.58-2.69v38.64h2.51c5.95-1.26,10.44-6.49,10.54-12.79Z"/>
          </g>
          <path class="cls-26" d="m97.49,144.22c0-2.05-1.66-3.71-3.71-3.71h-.93c.55-.31.93-.9.93-1.57,0-.99-.8-1.8-1.8-1.8h-2.77v-5.81h-2.51s0,16.6,0,16.6h14.65v-3.6h-3.86s0-.07,0-.11Z"/>
        </g>
        <g>
          <g>
            <path class="cls-22" d="m138.31,131.33v5.81h2.77c.99,0,1.8.81,1.8,1.8,0,.68-.37,1.27-.93,1.57h.93c2.05,0,3.71,1.66,3.71,3.71,0,.04,0,.07,0,.11h3.86v3.6h-29.67v-3.6h3.79s0-.07,0-.11c0-2.05,1.66-3.71,3.71-3.71h.93c-.55-.31-.93-.9-.93-1.57,0-.99.81-1.8,1.8-1.8h2.85v-5.83"/>
            <g class="cls-7">
              <g>
                <rect class="cls-20" x="127.06" y="137.13" width="17.27" height="3.36"/>
                <rect class="cls-23" x="123.74" y="140.49" width="23.61" height="3.83"/>
              </g>
            </g>
          </g>
          <g>
            <g>
              <path class="cls-20" d="m138.31,131.32c5.95-1.25,10.44-6.49,10.54-12.79v-2.65s0,0,0,0h.76c1.49,0,2.7-1.21,2.7-2.7s-1.21-2.7-2.7-2.7h-2.78l-9.44-13.03c.6-.49.99-1.24.99-2.08,0-1.49-1.21-2.7-2.7-2.7s-2.7,1.21-2.7,2.7c0,.83.38,1.58.97,2.07l-9.43,13.05h-3c-1.49,0-2.7,1.21-2.7,2.7s1.21,2.7,2.7,2.7h.77s0,2.51,0,2.51c.11,6.31,4.64,11.72,10.62,12.94"/>
              <g class="cls-5">
                <g>
                  <rect class="cls-23" x="119.63" y="115.64" width="31.02" height="16.47"/>
                  <rect class="cls-22" x="116.58" y="110.5" width="36.68" height="5.39"/>
                  <circle class="cls-22" cx="135.68" cy="95.39" r="2.7"/>
                </g>
              </g>
            </g>
            <path class="cls-26" d="m148.85,118.53v-2.65s0,0,0,0h.77c1.49,0,2.7-1.21,2.7-2.7s-1.21-2.7-2.7-2.7h-2.78l-9.44-13.03c.6-.49.99-1.24.99-2.08,0-1.45-1.15-2.63-2.58-2.69v38.64h2.51c5.95-1.26,10.44-6.49,10.54-12.79Z"/>
          </g>
          <path class="cls-26" d="m146.59,144.22c0-2.05-1.66-3.71-3.71-3.71h-.93c.55-.31.93-.9.93-1.57,0-.99-.8-1.8-1.8-1.8h-2.77v-5.81h-2.51s0,16.6,0,16.6h14.65v-3.6h-3.86s0-.07,0-.11Z"/>
        </g>
        <g>
          <g>
            <path class="cls-22" d="m187.4,131.33v5.81h2.77c.99,0,1.8.81,1.8,1.8,0,.68-.37,1.27-.93,1.57h.93c2.05,0,3.71,1.66,3.71,3.71,0,.04,0,.07,0,.11h3.86v3.6h-29.67v-3.6h3.79s0-.07,0-.11c0-2.05,1.66-3.71,3.71-3.71h.93c-.55-.31-.93-.9-.93-1.57,0-.99.81-1.8,1.8-1.8h2.85v-5.83"/>
            <g class="cls-3">
              <g>
                <rect class="cls-20" x="176.16" y="137.13" width="17.27" height="3.36"/>
                <rect class="cls-23" x="172.84" y="140.49" width="23.61" height="3.83"/>
              </g>
            </g>
          </g>
          <g>
            <g>
              <path class="cls-20" d="m187.41,131.32c5.95-1.25,10.44-6.49,10.54-12.79v-2.65s0,0,0,0h.76c1.49,0,2.7-1.21,2.7-2.7s-1.21-2.7-2.7-2.7h-2.78l-9.44-13.03c.6-.49.99-1.24.99-2.08,0-1.49-1.21-2.7-2.7-2.7s-2.7,1.21-2.7,2.7c0,.83.38,1.58.97,2.07l-9.43,13.05h-3c-1.49,0-2.7,1.21-2.7,2.7s1.21,2.7,2.7,2.7h.77s0,2.51,0,2.51c.11,6.31,4.64,11.72,10.62,12.94"/>
              <g class="cls-2">
                <g>
                  <rect class="cls-23" x="168.72" y="115.64" width="31.02" height="16.47"/>
                  <rect class="cls-22" x="165.67" y="110.5" width="36.68" height="5.39"/>
                  <circle class="cls-22" cx="184.78" cy="95.39" r="2.7"/>
                </g>
              </g>
            </g>
            <path class="cls-26" d="m197.95,118.53v-2.65s0,0,0,0h.77c1.49,0,2.7-1.21,2.7-2.7s-1.21-2.7-2.7-2.7h-2.78l-9.44-13.03c.6-.49.99-1.24.99-2.08,0-1.45-1.15-2.63-2.58-2.69v38.64h2.51c5.95-1.26,10.44-6.49,10.54-12.79Z"/>
          </g>
          <path class="cls-26" d="m195.68,144.22c0-2.05-1.66-3.71-3.71-3.71h-.93c.55-.31.93-.9.93-1.57,0-.99-.8-1.8-1.8-1.8h-2.77v-5.81h-2.51s0,16.6,0,16.6h14.65v-3.6h-3.86s0-.07,0-.11Z"/>
        </g>
        <g>
          <g>
            <path class="cls-22" d="m89.21,271.9v5.81h2.77c.99,0,1.8.81,1.8,1.8,0,.68-.37,1.27-.93,1.57h.93c2.05,0,3.71,1.66,3.71,3.71,0,.04,0,.07,0,.11h3.86v3.6h-29.67v-3.6h3.79s0-.07,0-.11c0-2.05,1.66-3.71,3.71-3.71h.93c-.55-.31-.93-.9-.93-1.57,0-.99.81-1.8,1.8-1.8h2.85v-5.83"/>
            <g class="cls-1">
              <g>
                <rect class="cls-20" x="77.97" y="277.7" width="17.27" height="3.36"/>
                <rect class="cls-23" x="74.65" y="281.07" width="23.61" height="3.83"/>
              </g>
            </g>
          </g>
          <g>
            <g>
              <path class="cls-20" d="m89.22,271.89c5.95-1.25,10.44-6.49,10.54-12.79v-2.65s0,0,0,0h.76c1.49,0,2.7-1.21,2.7-2.7s-1.21-2.7-2.7-2.7h-2.78l-9.44-13.03c.6-.49.99-1.24.99-2.08,0-1.49-1.21-2.7-2.7-2.7s-2.7,1.21-2.7,2.7c0,.83.38,1.58.97,2.07l-9.43,13.05h-3c-1.49,0-2.7,1.21-2.7,2.7s1.21,2.7,2.7,2.7h.77s0,2.51,0,2.51c.11,6.31,4.64,11.72,10.62,12.94"/>
              <g class="cls-4">
                <g>
                  <rect class="cls-23" x="70.53" y="256.22" width="31.02" height="16.47"/>
                  <rect class="cls-22" x="67.48" y="251.07" width="36.68" height="5.39"/>
                  <circle class="cls-22" cx="86.59" cy="235.96" r="2.7"/>
                </g>
              </g>
            </g>
            <path class="cls-26" d="m99.76,259.11v-2.65s0,0,0,0h.77c1.49,0,2.7-1.21,2.7-2.7s-1.21-2.7-2.7-2.7h-2.78l-9.44-13.03c.6-.49.99-1.24.99-2.08,0-1.45-1.15-2.63-2.58-2.69v38.64h2.51c5.95-1.26,10.44-6.49,10.54-12.79Z"/>
          </g>
          <path class="cls-26" d="m97.49,284.79c0-2.05-1.66-3.71-3.71-3.71h-.93c.55-.31.93-.9.93-1.57,0-.99-.8-1.8-1.8-1.8h-2.77v-5.81h-2.51s0,16.6,0,16.6h14.65v-3.6h-3.86s0-.07,0-.11Z"/>
        </g>
        <g>
          <g>
            <path class="cls-22" d="m138.31,271.9v5.81h2.77c.99,0,1.8.81,1.8,1.8,0,.68-.37,1.27-.93,1.57h.93c2.05,0,3.71,1.66,3.71,3.71,0,.04,0,.07,0,.11h3.86v3.6h-29.67v-3.6h3.79s0-.07,0-.11c0-2.05,1.66-3.71,3.71-3.71h.93c-.55-.31-.93-.9-.93-1.57,0-.99.81-1.8,1.8-1.8h2.85v-5.83"/>
            <g class="cls-17">
              <g>
                <rect class="cls-20" x="127.06" y="277.7" width="17.27" height="3.36"/>
                <rect class="cls-23" x="123.74" y="281.07" width="23.61" height="3.83"/>
              </g>
            </g>
          </g>
          <g>
            <g>
              <path class="cls-20" d="m138.31,271.89c5.95-1.25,10.44-6.49,10.54-12.79v-2.65s0,0,0,0h.76c1.49,0,2.7-1.21,2.7-2.7s-1.21-2.7-2.7-2.7h-2.78l-9.44-13.03c.6-.49.99-1.24.99-2.08,0-1.49-1.21-2.7-2.7-2.7s-2.7,1.21-2.7,2.7c0,.83.38,1.58.97,2.07l-9.43,13.05h-3c-1.49,0-2.7,1.21-2.7,2.7s1.21,2.7,2.7,2.7h.77s0,2.51,0,2.51c.11,6.31,4.64,11.72,10.62,12.94"/>
              <g class="cls-14">
                <g>
                  <rect class="cls-23" x="119.63" y="256.22" width="31.02" height="16.47"/>
                  <rect class="cls-22" x="116.58" y="251.07" width="36.68" height="5.39"/>
                  <circle class="cls-22" cx="135.68" cy="235.96" r="2.7"/>
                </g>
              </g>
            </g>
            <path class="cls-26" d="m148.85,259.11v-2.65s0,0,0,0h.77c1.49,0,2.7-1.21,2.7-2.7s-1.21-2.7-2.7-2.7h-2.78l-9.44-13.03c.6-.49.99-1.24.99-2.08,0-1.45-1.15-2.63-2.58-2.69v38.64h2.51c5.95-1.26,10.44-6.49,10.54-12.79Z"/>
          </g>
          <path class="cls-26" d="m146.59,284.79c0-2.05-1.66-3.71-3.71-3.71h-.93c.55-.31.93-.9.93-1.57,0-.99-.8-1.8-1.8-1.8h-2.77v-5.81h-2.51s0,16.6,0,16.6h14.65v-3.6h-3.86s0-.07,0-.11Z"/>
        </g>
        <g>
          <g>
            <path class="cls-22" d="m138.31,201.98v5.81h2.77c.99,0,1.8.81,1.8,1.8,0,.68-.37,1.27-.93,1.57h.93c2.05,0,3.71,1.66,3.71,3.71,0,.04,0,.07,0,.11h3.86v3.6h-29.67v-3.6h3.79s0-.07,0-.11c0-2.05,1.66-3.71,3.71-3.71h.93c-.55-.31-.93-.9-.93-1.57,0-.99.81-1.8,1.8-1.8h2.85v-5.83"/>
            <g class="cls-13">
              <g>
                <rect class="cls-20" x="127.06" y="207.79" width="17.27" height="3.36"/>
                <rect class="cls-23" x="123.74" y="211.15" width="23.61" height="3.83"/>
              </g>
            </g>
          </g>
          <g>
            <g>
              <path class="cls-20" d="m138.31,201.98c5.95-1.25,10.44-6.49,10.54-12.79v-2.65s0,0,0,0h.76c1.49,0,2.7-1.21,2.7-2.7s-1.21-2.7-2.7-2.7h-2.78l-9.44-13.03c.6-.49.99-1.24.99-2.08,0-1.49-1.21-2.7-2.7-2.7s-2.7,1.21-2.7,2.7c0,.83.38,1.58.97,2.07l-9.43,13.05h-3c-1.49,0-2.7,1.21-2.7,2.7s1.21,2.7,2.7,2.7h.77s0,2.51,0,2.51c.11,6.31,4.64,11.72,10.62,12.94"/>
              <g class="cls-11">
                <g>
                  <rect class="cls-23" x="119.63" y="186.3" width="31.02" height="16.47"/>
                  <rect class="cls-22" x="116.58" y="181.16" width="36.68" height="5.39"/>
                  <circle class="cls-22" cx="135.68" cy="166.04" r="2.7"/>
                </g>
              </g>
            </g>
            <path class="cls-26" d="m148.85,189.19v-2.65s0,0,0,0h.77c1.49,0,2.7-1.21,2.7-2.7s-1.21-2.7-2.7-2.7h-2.78l-9.44-13.03c.6-.49.99-1.24.99-2.08,0-1.45-1.15-2.63-2.58-2.69v38.64h2.51c5.95-1.26,10.44-6.49,10.54-12.79Z"/>
          </g>
          <path class="cls-26" d="m146.59,214.87c0-2.05-1.66-3.71-3.71-3.71h-.93c.55-.31.93-.9.93-1.57,0-.99-.8-1.8-1.8-1.8h-2.77v-5.81h-2.51s0,16.6,0,16.6h14.65v-3.6h-3.86s0-.07,0-.11Z"/>
        </g>
        <g>
          <g>
            <path class="cls-22" d="m187.4,271.9v5.81h2.77c.99,0,1.8.81,1.8,1.8,0,.68-.37,1.27-.93,1.57h.93c2.05,0,3.71,1.66,3.71,3.71,0,.04,0,.07,0,.11h3.86v3.6h-29.67v-3.6h3.79s0-.07,0-.11c0-2.05,1.66-3.71,3.71-3.71h.93c-.55-.31-.93-.9-.93-1.57,0-.99.81-1.8,1.8-1.8h2.85v-5.83"/>
            <g class="cls-12">
              <g>
                <rect class="cls-20" x="176.16" y="277.7" width="17.27" height="3.36"/>
                <rect class="cls-23" x="172.84" y="281.07" width="23.61" height="3.83"/>
              </g>
            </g>
          </g>
          <g>
            <g>
              <path class="cls-20" d="m187.41,271.89c5.95-1.25,10.44-6.49,10.54-12.79v-2.65s0,0,0,0h.76c1.49,0,2.7-1.21,2.7-2.7s-1.21-2.7-2.7-2.7h-2.78l-9.44-13.03c.6-.49.99-1.24.99-2.08,0-1.49-1.21-2.7-2.7-2.7s-2.7,1.21-2.7,2.7c0,.83.38,1.58.97,2.07l-9.43,13.05h-3c-1.49,0-2.7,1.21-2.7,2.7s1.21,2.7,2.7,2.7h.77s0,2.51,0,2.51c.11,6.31,4.64,11.72,10.62,12.94"/>
              <g class="cls-18">
                <g>
                  <rect class="cls-23" x="168.72" y="256.22" width="31.02" height="16.47"/>
                  <rect class="cls-22" x="165.67" y="251.07" width="36.68" height="5.39"/>
                  <circle class="cls-22" cx="184.78" cy="235.96" r="2.7"/>
                </g>
              </g>
            </g>
            <path class="cls-26" d="m197.95,259.11v-2.65s0,0,0,0h.77c1.49,0,2.7-1.21,2.7-2.7s-1.21-2.7-2.7-2.7h-2.78l-9.44-13.03c.6-.49.99-1.24.99-2.08,0-1.45-1.15-2.63-2.58-2.69v38.64h2.51c5.95-1.26,10.44-6.49,10.54-12.79Z"/>
          </g>
          <path class="cls-26" d="m195.68,284.79c0-2.05-1.66-3.71-3.71-3.71h-.93c.55-.31.93-.9.93-1.57,0-.99-.8-1.8-1.8-1.8h-2.77v-5.81h-2.51s0,16.6,0,16.6h14.65v-3.6h-3.86s0-.07,0-.11Z"/>
        </g>
        <g>
          <g>
            <path class="cls-22" d="m42.5,352.6v4.75h2.27c.81,0,1.47.66,1.47,1.47,0,.55-.31,1.04-.76,1.29h.76c1.67,0,3.03,1.36,3.03,3.03,0,.03,0,.06,0,.09h3.16v2.94h-24.26v-2.94h3.1s0-.06,0-.09c0-1.67,1.36-3.03,3.03-3.03h.76c-.45-.25-.76-.73-.76-1.29,0-.81.66-1.47,1.47-1.47h2.33v-4.77"/>
            <g class="cls-16">
              <g>
                <rect class="cls-20" x="33.31" y="357.34" width="14.12" height="2.75"/>
                <rect class="cls-23" x="30.6" y="360.09" width="19.3" height="3.13"/>
              </g>
            </g>
          </g>
          <g>
            <g>
              <path class="cls-20" d="m42.51,352.59c4.87-1.02,8.54-5.3,8.62-10.46v-2.16s0,0,0,0h.63c1.22,0,2.21-.99,2.21-2.21s-.99-2.21-2.21-2.21h-2.27l-7.72-10.66c.49-.4.81-1.02.81-1.7,0-1.22-.99-2.21-2.21-2.21s-2.21.99-2.21,2.21c0,.68.31,1.29.79,1.69l-7.71,10.67h-2.45c-1.22,0-2.21.99-2.21,2.21s.99,2.21,2.21,2.21h.63s0,2.05,0,2.05c.09,5.16,3.79,9.58,8.68,10.58"/>
              <g class="cls-15">
                <g>
                  <rect class="cls-23" x="27.23" y="339.77" width="25.37" height="13.46"/>
                  <rect class="cls-22" x="24.74" y="335.57" width="29.99" height="4.41"/>
                  <circle class="cls-22" cx="40.36" cy="323.21" r="2.21"/>
                </g>
              </g>
            </g>
            <path class="cls-26" d="m51.13,342.13v-2.16s0,0,0,0h.63c1.22,0,2.21-.99,2.21-2.21s-.99-2.21-2.21-2.21h-2.27l-7.72-10.66c.49-.4.81-1.02.81-1.7,0-1.19-.94-2.15-2.11-2.2v31.6h2.06c4.87-1.03,8.54-5.31,8.62-10.46Z"/>
          </g>
          <path class="cls-26" d="m49.27,363.13c0-1.67-1.36-3.03-3.03-3.03h-.76c.45-.25.76-.73.76-1.29,0-.81-.66-1.47-1.47-1.47h-2.27v-4.75h-2.05s0,13.57,0,13.57h11.98v-2.94h-3.16s0-.06,0-.09Z"/>
        </g>
        <path class="cls-21" d="m29.96,22.19c-1.15,0-1.73-.58-1.73-1.79,0-1.15.58-1.73,1.73-1.73h20.03c1.22,0,1.86.58,1.86,1.73,0,.7-.26,1.41-.58,2.24l-13.63,30.4c-.51,1.28-.9,2.11-2.56,2.11-1.34,0-1.79-.45-1.79-1.15,0-.51.26-1.09.51-1.73l13.95-30.08h-17.79Z"/>
      </g>
    </g>
  </g>
</svg>