<?xml version="1.0" encoding="UTF-8"?>
<svg xmlns="http://www.w3.org/2000/svg" xmlns:xlink="http://www.w3.org/1999/xlink" viewBox="0 0 269.74 379.43">
  <defs>
    <style>
      .cls-1 {
        clip-path: url(#clippath-8);
      }

      .cls-1, .cls-2, .cls-3, .cls-4, .cls-5, .cls-6, .cls-7, .cls-8, .cls-9, .cls-10, .cls-11, .cls-12, .cls-13 {
        fill: none;
      }

      .cls-2 {
        clip-path: url(#clippath-7);
      }

      .cls-3 {
        clip-path: url(#clippath-6);
      }

      .cls-4 {
        clip-path: url(#clippath-9);
      }

      .cls-5 {
        clip-path: url(#clippath-5);
      }

      .cls-6 {
        clip-path: url(#clippath-3);
      }

      .cls-7 {
        clip-path: url(#clippath-4);
      }

      .cls-8 {
        clip-path: url(#clippath-2);
      }

      .cls-9 {
        clip-path: url(#clippath-1);
      }

      .cls-10 {
        isolation: isolate;
      }

      .cls-14, .cls-15, .cls-16 {
        fill: #fff;
      }

      .cls-17 {
        fill: #e5332a;
      }

      .cls-18 {
        fill: #753520;
      }

      .cls-19 {
        fill: #686868;
      }

      .cls-20 {
        fill: #c37b2f;
      }

      .cls-21 {
        fill: #742c1a;
      }

      .cls-22 {
        fill: #ce6f40;
      }

      .cls-23 {
        fill: #cf7656;
      }

      .cls-24 {
        fill: #ae2423;
      }

      .cls-25 {
        fill: #d1895c;
      }

      .cls-26 {
        fill: #d38836;
      }

      .cls-27 {
        fill: #c79740;
      }

      .cls-28 {
        fill: #daac4f;
      }

      .cls-29 {
        fill: #cc5e3d;
      }

      .cls-30 {
        fill: #1c5788;
      }

      .cls-31 {
        fill: #1d1d1b;
      }

      .cls-32 {
        fill: #592815;
      }

      .cls-33 {
        fill: #2f475f;
      }

      .cls-34 {
        fill: #59210f;
      }

      .cls-15 {
        stroke: #a3a3a3;
        stroke-width: 2px;
      }

      .cls-15, .cls-35, .cls-11, .cls-12 {
        stroke-miterlimit: 10;
      }

      .cls-35 {
        fill: #f2f2f2;
        stroke: #686868;
        stroke-width: 4px;
      }

      .cls-11 {
        stroke: #daac4f;
        stroke-width: 2.75px;
      }

      .cls-11, .cls-12 {
        stroke-linecap: round;
      }

      .cls-36 {
        fill: url(#Degradado_sin_nombre_28);
      }

      .cls-12 {
        stroke: #d38836;
        stroke-width: 2.49px;
      }

      .cls-37 {
        fill: url(#Degradado_sin_nombre_28-2);
      }

      .cls-13 {
        clip-path: url(#clippath);
      }

      .cls-38 {
        mix-blend-mode: multiply;
        opacity: .2;
      }

      .cls-16 {
        opacity: .69;
      }
    </style>
    <clipPath id="clippath">
      <path class="cls-17" d="m170.68,317.14h-65.02v-95.36c0-32.75,14.41-59.3,32.18-59.3h.65c17.77,0,32.18,26.55,32.18,59.3v95.36Z"/>
    </clipPath>
    <clipPath id="clippath-1">
      <polygon class="cls-28" points="165.46 35.81 163.5 41.05 164.96 44.95 158.34 69.01 151.72 44.91 153.16 41.05 151.2 35.81 149.23 41.05 150.71 44.98 144.1 69.01 137.48 44.94 138.95 41.05 136.98 35.81 135.01 41.05 136.47 44.95 129.86 69.01 123.23 44.9 124.67 41.05 122.71 35.81 120.74 41.05 122.22 44.99 115.62 69.01 109 44.95 110.46 41.05 108.5 35.81 108.5 46.29 108.5 71.76 108.5 72.8 108.5 95.31 165.46 95.31 165.46 72.8 165.46 43.11 165.46 35.81"/>
    </clipPath>
    <clipPath id="clippath-2">
      <path class="cls-14" d="m122.8,138.13c4.32,0,7.82-2.2,7.82-4.91h-15.64c0,2.71,3.5,4.91,7.82,4.91"/>
    </clipPath>
    <radialGradient id="Degradado_sin_nombre_28" data-name="Degradado sin nombre 28" cx="123.13" cy="135.1" fx="123.13" fy="135.1" r="3.82" gradientUnits="userSpaceOnUse">
      <stop offset="0" stop-color="#b6781f"/>
      <stop offset=".15" stop-color="#ad721e"/>
      <stop offset=".38" stop-color="#95611d"/>
      <stop offset=".68" stop-color="#6e471c"/>
      <stop offset="1" stop-color="#3c251a"/>
    </radialGradient>
    <clipPath id="clippath-3">
      <path class="cls-14" d="m151.24,138.13c4.32,0,7.82-2.2,7.82-4.91h-15.64c0,2.71,3.5,4.91,7.82,4.91"/>
    </clipPath>
    <radialGradient id="Degradado_sin_nombre_28-2" data-name="Degradado sin nombre 28" cx="151.57" fx="151.57" r="3.82" xlink:href="#Degradado_sin_nombre_28"/>
    <clipPath id="clippath-4">
      <rect class="cls-17" x="108.48" y="95.22" width="56.99" height="8.59"/>
    </clipPath>
    <clipPath id="clippath-5">
      <circle class="cls-17" cx="136.97" cy="85.73" r="3.71"/>
    </clipPath>
    <clipPath id="clippath-6">
      <path class="cls-28" d="m234.16,45.95v4.75h2.27c.81,0,1.47.66,1.47,1.47,0,.55-.31,1.04-.76,1.29h.76c1.67,0,3.03,1.36,3.03,3.03,0,.03,0,.06,0,.09h3.16v2.94h-24.26v-2.94h3.1s0-.06,0-.09c0-1.67,1.36-3.03,3.03-3.03h.76c-.45-.25-.76-.73-.76-1.29,0-.81.66-1.47,1.47-1.47h2.33v-4.77"/>
    </clipPath>
    <clipPath id="clippath-7">
      <path class="cls-17" d="m234.16,45.95c4.87-1.02,8.54-5.3,8.62-10.46v-2.16s0,0,0,0h.63c1.22,0,2.21-.99,2.21-2.21s-.99-2.21-2.21-2.21h-2.27l-7.72-10.66c.49-.4.81-1.02.81-1.7,0-1.22-.99-2.21-2.21-2.21s-2.21.99-2.21,2.21c0,.68.31,1.29.79,1.69l-7.71,10.67h-2.45c-1.22,0-2.21.99-2.21,2.21s.99,2.21,2.21,2.21h.63s0,2.05,0,2.05c.09,5.16,3.79,9.58,8.68,10.58"/>
    </clipPath>
    <clipPath id="clippath-8">
      <path class="cls-28" d="m40.06,352.6v4.75h2.27c.81,0,1.47.66,1.47,1.47,0,.55-.31,1.04-.76,1.29h.76c1.67,0,3.03,1.36,3.03,3.03,0,.03,0,.06,0,.09h3.16v2.94h-24.26v-2.94h3.1s0-.06,0-.09c0-1.67,1.36-3.03,3.03-3.03h.76c-.45-.25-.76-.73-.76-1.29,0-.81.66-1.47,1.47-1.47h2.33v-4.77"/>
    </clipPath>
    <clipPath id="clippath-9">
      <path class="cls-17" d="m40.06,352.59c4.87-1.02,8.54-5.3,8.62-10.46v-2.16s0,0,0,0h.63c1.22,0,2.21-.99,2.21-2.21s-.99-2.21-2.21-2.21h-2.27l-7.72-10.66c.49-.4.81-1.02.81-1.7,0-1.22-.99-2.21-2.21-2.21s-2.21.99-2.21,2.21c0,.68.31,1.29.79,1.69l-7.71,10.67h-2.45c-1.22,0-2.21.99-2.21,2.21s.99,2.21,2.21,2.21h.63s0,2.05,0,2.05c.09,5.16,3.79,9.58,8.68,10.58"/>
    </clipPath>
  </defs>
  <g class="cls-10">
    <g id="Capa_2" data-name="Capa 2">
      <g id="Capa_1-2" data-name="Capa 1">
        <rect class="cls-35" x="2" y="2" width="265.74" height="375.43" rx="19.9" ry="19.9"/>
        <rect class="cls-15" x="53.76" y="65.05" width="164.22" height="252.58" rx="5.69" ry="5.69"/>
        <g>
          <path class="cls-30" d="m198.07,317.14h-119.81v-95.36c0-32.75,26.55-59.3,59.3-59.3h1.2c32.75,0,59.3,26.55,59.3,59.3v95.36Z"/>
          <g>
            <path class="cls-17" d="m170.68,317.14h-65.02v-95.36c0-32.75,14.41-59.3,32.18-59.3h.65c17.77,0,32.18,26.55,32.18,59.3v95.36Z"/>
            <g class="cls-13">
              <rect class="cls-24" x="136.83" y="187.19" width="46.42" height="132.41"/>
            </g>
          </g>
          <path class="cls-18" d="m111.29,159.97c-1.79,3.7-2.79,7.86-2.79,12.25v20.94c0,15.57,12.62,28.2,28.2,28.2h.57c15.57,0,28.2-12.62,28.2-28.2v-20.94c0-4.39-1-8.54-2.79-12.25h-51.38Z"/>
          <path class="cls-18" d="m181.3,185.04v-87.22c0-10.42-8.29-19.06-18.71-19.26-.16,0-.32,0-.48,0h-.5c-13.51,0-24.47,10.89-24.59,24.38-.11-13.48-11.08-24.38-24.59-24.38h-.5c-.16,0-.32,0-.48,0-10.42.2-18.71,8.83-18.71,19.26v87.22c0,5.11-1.56,9.85-4.22,13.78h97c-2.67-3.93-4.22-8.67-4.22-13.78"/>
          <polygon class="cls-25" points="125.07 173.59 108.5 173.59 108.5 120.47 137.03 120.47 137.03 159.1 125.07 173.59"/>
          <g>
            <path class="cls-25" d="m165.46,121.21c0-7.85-6.37-14.22-14.22-14.22s-14.22,6.37-14.22,14.22,6.37,14.22,14.22,14.22,14.22-6.37,14.22-14.22"/>
            <path class="cls-25" d="m137.02,121.21c0-7.85-6.37-14.22-14.22-14.22s-14.22,6.37-14.22,14.22,6.37,14.22,14.22,14.22,14.22-6.37,14.22-14.22"/>
          </g>
          <path class="cls-23" d="m130.77,149.5c0-4.57-3.7-8.27-8.27-8.27s-8.27,3.7-8.27,8.27,3.7,8.27,8.27,8.27,8.27-3.7,8.27-8.27"/>
          <path class="cls-23" d="m159.83,149.5c0-4.57-3.7-8.27-8.27-8.27s-8.27,3.7-8.27,8.27,3.7,8.27,8.27,8.27,8.27-3.7,8.27-8.27"/>
          <path class="cls-32" d="m136.98,159.12l.08-.14c5.35-10.04,19.75-10.06,25.1-.02,2.11,3.95,3.3,8.46,3.3,13.25v20.94c0,15.57-28.48-34.03-28.48-34.03"/>
          <path class="cls-32" d="m145.25,195.04c0-4.57-3.7-8.27-8.27-8.27s-8.27,3.7-8.27,8.27,3.7,8.27,8.27,8.27,8.27-3.7,8.27-8.27"/>
          <path class="cls-21" d="m165.46,78.84v24.94h-28.49v16.27c.01.14.02.28.03.42h.04c.38-7.51,6.6-13.48,14.2-13.48s13.82,5.97,14.2,13.48h.02v72.68h0v.03c0,1.93-.2,3.82-.57,5.64h20.63c-2.67-3.93-4.22-8.67-4.22-13.78v-87.22c0-9.45-6.81-17.42-15.84-18.98"/>
          <path class="cls-22" d="m165.46,120.47h-.02c.01.24.02.49.02.74v-.74Zm-28.42,0h-.04c.01.24.02.49.02.74,0,.39-.02.77-.05,1.15v6.8h0s2.21-.4,2.21-.4c-1.37-2.19-2.17-4.77-2.17-7.55,0-.25,0-.49.02-.74m28.42.74c0,.95-.09,1.88-.27,2.78l.27-.05v-2.73Zm0,12.01h-6.4c0,2.71-3.5,4.91-7.82,4.91s-7.82-2.2-7.82-4.91h-6.45v25.91h0s0,0,0,0l.08-.14c1.62-3.04,4.07-5.16,6.84-6.36-.39-.96-.61-2.02-.61-3.12,0-4.57,3.7-8.27,8.27-8.27s8.27,3.7,8.27,8.27c0,1.81-.58,3.48-1.56,4.84,1.54,1.18,2.88,2.72,3.89,4.62,2.09,3.92,3.29,8.4,3.3,13.15h0s0,.04,0,.05h0v.05-38.99Z"/>
          <path class="cls-22" d="m151.24,106.99c-7.61,0-13.82,5.97-14.2,13.48-.01.24-.02.49-.02.74,0,2.77.79,5.36,2.17,7.55l26-4.77c.18-.9.27-1.83.27-2.78,0-.25,0-.49-.02-.74-.38-7.51-6.6-13.48-14.2-13.48"/>
          <path class="cls-22" d="m136.98,120.05v2.31c.03-.38.05-.77.05-1.15,0-.25,0-.49-.02-.74,0-.14-.02-.28-.03-.42"/>
          <path class="cls-29" d="m151.56,141.23c-4.57,0-8.27,3.7-8.27,8.27,0,1.11.22,2.16.61,3.12,1.81-.79,3.77-1.18,5.72-1.18,3.06,0,6.12.96,8.64,2.9.98-1.36,1.56-3.03,1.56-4.84,0-4.57-3.7-8.27-8.27-8.27"/>
          <g>
            <path class="cls-32" d="m136.98,159.12l-.08-.14c-5.35-10.04-19.75-10.06-25.1-.02-2.11,3.95-3.3,8.46-3.3,13.25v20.94c0,15.57,28.48-34.03,28.48-34.03"/>
            <path class="cls-25" d="m136.98,167.39c4.57,0,8.27-3.7,8.27-8.27h-16.54c0,4.57,3.7,8.27,8.27,8.27"/>
            <path class="cls-34" d="m149.62,151.44c-1.95,0-3.91.39-5.72,1.18-2.78,1.2-5.22,3.32-6.84,6.36l-.08.14s0,0,0,0h8.26c0,3.03-1.63,5.67-4.05,7.11,6.51,10.76,18.68,29.94,22.83,29.94.9,0,1.43-.9,1.43-2.99v-.03h0v-20.98h0s0-.04,0-.06h0c-.02-4.76-1.21-9.24-3.3-13.16-1.01-1.9-2.35-3.44-3.89-4.62-2.52-1.93-5.58-2.9-8.64-2.9"/>
            <path class="cls-22" d="m145.25,159.12h-8.27v8.27h0c1.54,0,2.98-.42,4.22-1.16,2.43-1.44,4.05-4.09,4.05-7.11"/>
          </g>
          <path class="cls-34" d="m136.98,186.77h0v16.54h0c4.57,0,8.27-3.7,8.27-8.27s-3.7-8.27-8.27-8.27"/>
          <g>
            <polygon class="cls-28" points="165.46 35.81 163.5 41.05 164.96 44.95 158.34 69.01 151.72 44.91 153.16 41.05 151.2 35.81 149.23 41.05 150.71 44.98 144.1 69.01 137.48 44.94 138.95 41.05 136.98 35.81 135.01 41.05 136.47 44.95 129.86 69.01 123.23 44.9 124.67 41.05 122.71 35.81 120.74 41.05 122.22 44.99 115.62 69.01 109 44.95 110.46 41.05 108.5 35.81 108.5 46.29 108.5 71.76 108.5 72.8 108.5 95.31 165.46 95.31 165.46 72.8 165.46 43.11 165.46 35.81"/>
            <g class="cls-9">
              <rect class="cls-26" x="136.82" y="31.11" width="30.32" height="66.77"/>
            </g>
          </g>
          <path class="cls-27" d="m149.45,85.78c0-1.14-.92-2.07-2.07-2.07s-2.07.93-2.07,2.07.93,2.07,2.07,2.07,2.07-.92,2.07-2.07"/>
          <path class="cls-27" d="m159.86,85.78c0-1.14-.92-2.07-2.07-2.07s-2.07.93-2.07,2.07.93,2.07,2.07,2.07,2.07-.92,2.07-2.07"/>
          <path class="cls-33" d="m170.4,221.78v95.36h27.39v-95.36c0-16.07-6.39-30.64-16.77-41.32v4.59c0,5.11,1.56,9.85,4.22,13.78h-17.35c1.61,7.06,2.5,14.82,2.5,22.95Z"/>
          <polygon class="cls-18" points="165.46 133.22 136.98 133.22 108.5 133.22 108.5 128.58 108.5 123.94 136.98 129.16 165.46 123.94 165.46 128.58 165.46 133.22"/>
          <polygon class="cls-21" points="165.46 123.94 165.46 123.94 165.19 123.99 139.19 128.75 136.98 129.16 136.98 129.16 136.98 133.22 136.98 133.22 143.42 133.22 159.06 133.22 165.46 133.22 165.46 128.58 165.46 123.94"/>
          <g>
            <path class="cls-14" d="m122.8,138.13c4.32,0,7.82-2.2,7.82-4.91h-15.64c0,2.71,3.5,4.91,7.82,4.91"/>
            <g class="cls-8">
              <g>
                <circle class="cls-36" cx="123.13" cy="135.1" r="3.82"/>
                <circle class="cls-31" cx="123.13" cy="135.1" r="1.71"/>
                <circle class="cls-16" cx="124.31" cy="134.02" r=".85"/>
              </g>
            </g>
          </g>
          <g>
            <path class="cls-14" d="m151.24,138.13c4.32,0,7.82-2.2,7.82-4.91h-15.64c0,2.71,3.5,4.91,7.82,4.91"/>
            <g class="cls-6">
              <g>
                <circle class="cls-37" cx="151.57" cy="135.1" r="3.82"/>
                <circle class="cls-31" cx="151.57" cy="135.1" r="1.71"/>
                <circle class="cls-16" cx="152.75" cy="134.02" r=".85"/>
              </g>
            </g>
          </g>
          <circle class="cls-28" cx="136.62" cy="231.94" r="3.19"/>
          <circle class="cls-28" cx="136.62" cy="250.33" r="3.19"/>
          <circle class="cls-28" cx="136.62" cy="287.1" r="3.19"/>
          <circle class="cls-28" cx="136.62" cy="305.49" r="3.19"/>
          <rect class="cls-28" x="105.56" y="260.44" width="64.95" height="16.07"/>
          <g>
            <line class="cls-11" x1="80.97" y1="185.95" x2="120.08" y2="280.75"/>
            <path class="cls-17" d="m78.31,170.34c-3.07-1.28-5.38-3.6-6.68-6.39,1.04,2.9,1.04,6.18-.23,9.24-1.33,3.19-3.79,5.56-6.72,6.83,1.19,3.23,3.67,5.98,7.11,7.41,6.54,2.72,14.04-.38,16.76-6.91,1.43-3.43,1.25-7.13-.18-10.27-3.09,1.34-6.69,1.48-10.05.09Z"/>
            <circle class="cls-28" cx="81.36" cy="186.89" r="4.6"/>
            <g>
              <circle class="cls-28" cx="85.06" cy="181.64" r="5.44"/>
              <circle class="cls-28" cx="75.04" cy="185.78" r="5.44"/>
            </g>
          </g>
          <path class="cls-25" d="m99.76,269.83c8.77-.18,15.83-7.35,15.83-16.16s-7.06-15.98-15.83-16.16v32.32Z"/>
          <path class="cls-22" d="m176.07,237.51h0c-2.74.06-5.32.79-7.56,2.05-.8.45-1.56.97-2.27,1.54-1.2.97-2.26,2.12-3.14,3.39h0c-.05.07-.09.14-.14.2-1.71,2.57-2.71,5.65-2.71,8.97,0,3.6,1.18,6.93,3.17,9.62h0c.35.48.73.94,1.14,1.37,2.88,3.11,6.97,5.08,11.52,5.17v-32.32Z"/>
          <circle class="cls-17" cx="136.62" cy="268.72" r="3.19"/>
          <g>
            <rect class="cls-17" x="108.48" y="95.22" width="56.99" height="8.59"/>
            <g class="cls-7">
              <rect class="cls-24" x="136.83" y="92.73" width="30.65" height="13.06"/>
            </g>
          </g>
          <g>
            <path class="cls-27" d="m128.64,85.78c0-1.14-.92-2.07-2.07-2.07s-2.07.92-2.07,2.07.92,2.07,2.07,2.07,2.07-.92,2.07-2.07"/>
            <path class="cls-27" d="m118.23,85.78c0-1.14-.92-2.07-2.07-2.07s-2.07.92-2.07,2.07.92,2.07,2.07,2.07,2.07-.92,2.07-2.07"/>
            <path class="cls-20" d="m147.38,83.71c-1.14,0-2.07.93-2.07,2.07s.93,2.07,2.07,2.07,2.07-.92,2.07-2.07-.92-2.07-2.07-2.07"/>
            <path class="cls-20" d="m157.79,83.71c-1.14,0-2.07.93-2.07,2.07s.93,2.07,2.07,2.07,2.07-.92,2.07-2.07-.92-2.07-2.07-2.07"/>
            <g>
              <circle class="cls-17" cx="136.97" cy="85.73" r="3.71"/>
              <g class="cls-5">
                <rect class="cls-24" x="136.84" y="79.48" width="6.63" height="12.31"/>
              </g>
            </g>
          </g>
        </g>
        <g>
          <g>
            <path class="cls-28" d="m234.16,45.95v4.75h2.27c.81,0,1.47.66,1.47,1.47,0,.55-.31,1.04-.76,1.29h.76c1.67,0,3.03,1.36,3.03,3.03,0,.03,0,.06,0,.09h3.16v2.94h-24.26v-2.94h3.1s0-.06,0-.09c0-1.67,1.36-3.03,3.03-3.03h.76c-.45-.25-.76-.73-.76-1.29,0-.81.66-1.47,1.47-1.47h2.33v-4.77"/>
            <g class="cls-3">
              <g>
                <rect class="cls-17" x="224.96" y="50.7" width="14.12" height="2.75"/>
                <rect class="cls-30" x="222.25" y="53.45" width="19.3" height="3.13"/>
              </g>
            </g>
          </g>
          <g>
            <g>
              <path class="cls-17" d="m234.16,45.95c4.87-1.02,8.54-5.3,8.62-10.46v-2.16s0,0,0,0h.63c1.22,0,2.21-.99,2.21-2.21s-.99-2.21-2.21-2.21h-2.27l-7.72-10.66c.49-.4.81-1.02.81-1.7,0-1.22-.99-2.21-2.21-2.21s-2.21.99-2.21,2.21c0,.68.31,1.29.79,1.69l-7.71,10.67h-2.45c-1.22,0-2.21.99-2.21,2.21s.99,2.21,2.21,2.21h.63s0,2.05,0,2.05c.09,5.16,3.79,9.58,8.68,10.58"/>
              <g class="cls-2">
                <g>
                  <rect class="cls-30" x="218.88" y="33.13" width="25.37" height="13.46"/>
                  <rect class="cls-28" x="216.39" y="28.92" width="29.99" height="4.41"/>
                  <circle class="cls-28" cx="232.01" cy="16.57" r="2.21"/>
                </g>
              </g>
            </g>
            <path class="cls-38" d="m242.78,35.49v-2.16s0,0,0,0h.63c1.22,0,2.21-.99,2.21-2.21s-.99-2.21-2.21-2.21h-2.27l-7.72-10.66c.49-.4.81-1.02.81-1.7,0-1.19-.94-2.15-2.11-2.2v31.6h2.06c4.87-1.03,8.54-5.31,8.62-10.46Z"/>
          </g>
          <path class="cls-38" d="m240.93,56.49c0-1.67-1.36-3.03-3.03-3.03h-.76c.45-.25.76-.73.76-1.29,0-.81-.66-1.47-1.47-1.47h-2.27v-4.75h-2.05s0,13.57,0,13.57h11.98v-2.94h-3.16s0-.06,0-.09Z"/>
        </g>
        <g>
          <g>
            <path class="cls-28" d="m40.06,352.6v4.75h2.27c.81,0,1.47.66,1.47,1.47,0,.55-.31,1.04-.76,1.29h.76c1.67,0,3.03,1.36,3.03,3.03,0,.03,0,.06,0,.09h3.16v2.94h-24.26v-2.94h3.1s0-.06,0-.09c0-1.67,1.36-3.03,3.03-3.03h.76c-.45-.25-.76-.73-.76-1.29,0-.81.66-1.47,1.47-1.47h2.33v-4.77"/>
            <g class="cls-1">
              <g>
                <rect class="cls-17" x="30.87" y="357.34" width="14.12" height="2.75"/>
                <rect class="cls-30" x="28.15" y="360.09" width="19.3" height="3.13"/>
              </g>
            </g>
          </g>
          <g>
            <g>
              <path class="cls-17" d="m40.06,352.59c4.87-1.02,8.54-5.3,8.62-10.46v-2.16s0,0,0,0h.63c1.22,0,2.21-.99,2.21-2.21s-.99-2.21-2.21-2.21h-2.27l-7.72-10.66c.49-.4.81-1.02.81-1.7,0-1.22-.99-2.21-2.21-2.21s-2.21.99-2.21,2.21c0,.68.31,1.29.79,1.69l-7.71,10.67h-2.45c-1.22,0-2.21.99-2.21,2.21s.99,2.21,2.21,2.21h.63s0,2.05,0,2.05c.09,5.16,3.79,9.58,8.68,10.58"/>
              <g class="cls-4">
                <g>
                  <rect class="cls-30" x="24.78" y="339.77" width="25.37" height="13.46"/>
                  <rect class="cls-28" x="22.29" y="335.57" width="29.99" height="4.41"/>
                  <circle class="cls-28" cx="37.91" cy="323.21" r="2.21"/>
                </g>
              </g>
            </g>
            <path class="cls-38" d="m48.68,342.13v-2.16s0,0,0,0h.63c1.22,0,2.21-.99,2.21-2.21s-.99-2.21-2.21-2.21h-2.27l-7.72-10.66c.49-.4.81-1.02.81-1.7,0-1.19-.94-2.15-2.11-2.2v31.6h2.06c4.87-1.03,8.54-5.31,8.62-10.46Z"/>
          </g>
          <path class="cls-38" d="m46.83,363.13c0-1.67-1.36-3.03-3.03-3.03h-.76c.45-.25.76-.73.76-1.29,0-.81-.66-1.47-1.47-1.47h-2.27v-4.75h-2.05s0,13.57,0,13.57h11.98v-2.94h-3.16s0-.06,0-.09Z"/>
        </g>
        <g>
          <path class="cls-19" d="m23.17,24.25c-.29.12-.62.29-1,.29-.62,0-1-.62-1-1.17,0-.58.42-.83,1.04-1.17l5.5-2.79c.58-.29,1.17-.54,1.83-.54,1.17,0,1.17.83,1.17,1.33v18.5c0,.75-.42,1.12-1.25,1.12-.88,0-1.29-.37-1.29-1.12v-17.04l-5,2.58Z"/>
          <path class="cls-19" d="m42.19,57.87h10.62c.75,0,1.12.38,1.12,1.12s-.38,1.12-1.12,1.12h-12.46c-.83,0-1.29-.42-1.29-1.21,0-.62.25-1.04,1.04-1.71,5.71-4.96,10.37-7.5,10.37-11.62,0-2.46-1.75-4.04-4.83-4.04-1.71,0-3.12.46-4.25,1.33-.71.54-.96.87-1.33.87-.58,0-1.08-.62-1.08-1.17,0-.5.54-1.08,1.12-1.5,1.42-1.12,3.33-1.75,5.67-1.75,4.25,0,7.25,2,7.25,6,0,5.25-5.29,8.08-10.83,12.54Z"/>
          <line class="cls-12" x1="43.79" y1="19.19" x2="26.62" y2="60.06"/>
        </g>
        <g>
          <path class="cls-19" d="m217.26,330.89c-.29.12-.62.29-1,.29-.62,0-1-.62-1-1.17,0-.58.42-.83,1.04-1.17l5.5-2.79c.58-.29,1.17-.54,1.83-.54,1.17,0,1.17.83,1.17,1.33v18.5c0,.75-.42,1.12-1.25,1.12-.88,0-1.29-.37-1.29-1.12v-17.04l-5,2.58Z"/>
          <path class="cls-19" d="m236.29,364.51h10.62c.75,0,1.12.38,1.12,1.12s-.38,1.12-1.12,1.12h-12.46c-.83,0-1.29-.42-1.29-1.21,0-.62.25-1.04,1.04-1.71,5.71-4.96,10.37-7.5,10.37-11.62,0-2.46-1.75-4.04-4.83-4.04-1.71,0-3.12.46-4.25,1.33-.71.54-.96.87-1.33.87-.58,0-1.08-.62-1.08-1.17,0-.5.54-1.08,1.12-1.5,1.42-1.12,3.33-1.75,5.67-1.75,4.25,0,7.25,2,7.25,6,0,5.25-5.29,8.08-10.83,12.54Z"/>
          <line class="cls-12" x1="237.89" y1="325.83" x2="220.72" y2="366.7"/>
        </g>
      </g>
    </g>
  </g>
</svg>