<?xml version="1.0" encoding="UTF-8"?>
<svg id="Capa_2" data-name="Capa 2" xmlns="http://www.w3.org/2000/svg" xmlns:xlink="http://www.w3.org/1999/xlink" viewBox="0 0 269.74 379.43">
  <defs>
    <style>
      .cls-1, .cls-2, .cls-3, .cls-4, .cls-5, .cls-6, .cls-7, .cls-8, .cls-9, .cls-10, .cls-11, .cls-12, .cls-13, .cls-14, .cls-15 {
        fill: none;
      }

      .cls-2 {
        clip-path: url(#clippath-8);
      }

      .cls-3 {
        clip-path: url(#clippath-7);
      }

      .cls-4 {
        clip-path: url(#clippath-6);
      }

      .cls-5 {
        clip-path: url(#clippath-9);
      }

      .cls-6 {
        clip-path: url(#clippath-5);
      }

      .cls-7 {
        clip-path: url(#clippath-3);
      }

      .cls-8 {
        clip-path: url(#clippath-4);
      }

      .cls-9 {
        clip-path: url(#clippath-2);
      }

      .cls-10 {
        clip-path: url(#clippath-1);
      }

      .cls-16, .cls-17 {
        fill: #f2f2f2;
      }

      .cls-17, .cls-11, .cls-13, .cls-14 {
        stroke-miterlimit: 10;
      }

      .cls-17, .cls-14 {
        stroke: #686868;
        stroke-width: 4px;
      }

      .cls-11 {
        stroke: #c18a00;
        stroke-width: 5px;
      }

      .cls-12 {
        clip-path: url(#clippath-10);
      }

      .cls-13 {
        stroke: #b51a19;
        stroke-width: 2px;
      }

      .cls-15 {
        clip-path: url(#clippath);
      }
    </style>
    <clipPath id="clippath">
      <rect class="cls-17" x="2" y="2" width="265.74" height="375.43" rx="19.9" ry="19.9"/>
    </clipPath>
    <clipPath id="clippath-1">
      <path class="cls-1" d="m-15.29,76.84v294.1h294.1V76.84H-15.29ZM1.44,98.52l-1.42-1.42,4.95-4.95,1.42,1.42-4.95,4.95Zm74.81,74.81l-1.42-1.42,4.95-4.95,1.42,1.42-4.95,4.95Zm75.79,75.79l-1.42-1.42,4.95-4.95,1.42,1.42-4.95,4.95Z"/>
    </clipPath>
    <clipPath id="clippath-2">
      <path class="cls-1" d="m-14.44,2.22v298.97h298.97V2.22H-14.44Zm91.02,95.97l-1.42-1.42,4.95-4.95,1.42,1.42-4.95,4.95Z"/>
    </clipPath>
    <clipPath id="clippath-3">
      <path class="cls-1" d="m-13.52,267.43v119.76h119.76v-119.76H-13.52Zm16.6,19.43l-3.54-3.54,2.83-2.83,3.54,3.54-2.83,2.83Zm75.47,75.47l-3.54-3.54,2.83-2.83,3.54,3.54-2.83,2.83Z"/>
    </clipPath>
    <clipPath id="clippath-4">
      <path class="cls-1" d="m158.97-12.22v119.76h119.76V-12.22h-119.76Zm70.18,73.01l-3.54-3.54,2.83-2.83,3.54,3.54-2.83,2.83Z"/>
    </clipPath>
    <clipPath id="clippath-5">
      <path class="cls-1" d="m-11.73,193.76v194.25h194.25v-194.25H-11.73Zm14.64,17.47l-3.54-3.54,2.83-2.83,3.54,3.54-2.83,2.83Zm75.63,75.63l-3.54-3.54,2.83-2.83,3.54,3.54-2.83,2.83Zm75.47,75.47l-3.54-3.54,2.83-2.83,3.54,3.54-2.83,2.83Z"/>
    </clipPath>
    <clipPath id="clippath-6">
      <path class="cls-1" d="m84.98-11.4v194.25h194.25V-11.4H84.98Zm68.87,71.7l-3.54-3.54,2.83-2.83,3.54,3.54-2.83,2.83Zm75.63,75.63l-3.54-3.54,2.83-2.83,3.54,3.54-2.83,2.83Z"/>
    </clipPath>
    <clipPath id="clippath-7">
      <path class="cls-1" d="m-11.89,118.13v269.39h269.39V118.13H-11.89Zm14.96,17.79l-3.54-3.54,2.83-2.83,3.54,3.54-2.83,2.83Zm75.47,75.47l-3.54-3.54,2.83-2.83,3.54,3.54-2.83,2.83Zm75.47,75.47l-3.54-3.54,2.83-2.83,3.54,3.54-2.83,2.83Zm75.47,75.47l-3.54-3.54,2.83-2.83,3.54,3.54-2.83,2.83Z"/>
    </clipPath>
    <clipPath id="clippath-8">
      <path class="cls-1" d="m10.98-10.59v269.39h269.39V-10.59H10.98ZM78.87,60.13l-3.54-3.54,2.83-2.83,3.54,3.54-2.83,2.83Zm75.47,75.47l-3.54-3.54,2.83-2.83,3.54,3.54-2.83,2.83Zm75.47,75.47l-3.54-3.54,2.83-2.83,3.54,3.54-2.83,2.83Z"/>
    </clipPath>
    <clipPath id="clippath-9">
      <path class="cls-1" d="m-14.34,40.21v295.52h295.52V40.21H-14.34ZM3.24,60.62l-3.54-3.54,2.83-2.83,3.54,3.54-2.83,2.83Zm75.14,75.14l-3.54-3.54,2.83-2.83,3.54,3.54-2.83,2.83Zm75.63,75.63l-3.54-3.54,2.83-2.83,3.54,3.54-2.83,2.83Zm75.47,75.47l-3.54-3.54,2.83-2.83,3.54,3.54-2.83,2.83Z"/>
    </clipPath>
    <clipPath id="clippath-10">
      <path class="cls-1" d="m45.28-13.85v242.29h242.29V-13.85H45.28Zm31.79,36.74l-1.42-1.42,4.95-4.95,1.42,1.42-4.95,4.95Zm74.81,74.81l-1.42-1.42,4.95-4.95,1.42,1.42-4.95,4.95Zm.16-74.98l-1.42-1.42,4.95-4.95,1.42,1.42-4.95,4.95Zm75.63,150.77l-1.42-1.42,4.95-4.95,1.42,1.42-4.95,4.95Z"/>
    </clipPath>
  </defs>
  <g id="Capa_1-2" data-name="Capa 1">
    <g>
      <rect class="cls-16" x="2" y="2" width="265.74" height="375.43" rx="19.9" ry="19.9"/>
      <g class="cls-15">
        <g>
          <g>
            <line class="cls-11" x1="-11.52" y1="80.61" x2="275.05" y2="367.17"/>
            <line class="cls-11" x1="-10.67" y1="5.99" x2="280.76" y2="297.42"/>
            <line class="cls-13" x1="-10.81" y1="270.14" x2="103.53" y2="384.49"/>
            <line class="cls-13" x1="161.68" y1="-9.51" x2="276.03" y2="104.83"/>
            <line class="cls-13" x1="-9.02" y1="196.47" x2="179.81" y2="385.3"/>
            <line class="cls-13" x1="87.68" y1="-8.7" x2="276.52" y2="180.14"/>
            <line class="cls-13" x1="-9.18" y1="120.84" x2="254.79" y2="384.81"/>
            <line class="cls-13" x1="13.69" y1="-7.88" x2="277.66" y2="256.09"/>
            <line class="cls-13" x1="-11.63" y1="42.92" x2="278.48" y2="333.03"/>
            <g>
              <line class="cls-11" x1="199.6" y1="-9.82" x2="282.46" y2="73.04"/>
              <line class="cls-11" x1="124.32" y1="-9.95" x2="283.13" y2="148.85"/>
              <line class="cls-11" x1="49.05" y1="-10.09" x2="283.81" y2="224.67"/>
            </g>
          </g>
          <line class="cls-11" x1="283.81" y1="304.46" x2="200.95" y2="387.32"/>
          <line class="cls-11" x1="282.96" y1="229.84" x2="129.3" y2="383.51"/>
          <line class="cls-11" x1="282.11" y1="155.22" x2="55.3" y2="382.04"/>
          <line class="cls-11" x1="281.26" y1="80.61" x2="-5.3" y2="367.17"/>
          <line class="cls-11" x1="280.41" y1="5.99" x2="-11.02" y2="297.42"/>
          <line class="cls-13" x1="279.09" y1="347.08" x2="241.19" y2="384.98"/>
          <line class="cls-13" x1="30.8" y1="-8.37" x2="-7.1" y2="29.53"/>
          <line class="cls-13" x1="280.56" y1="270.14" x2="166.21" y2="384.49"/>
          <line class="cls-13" x1="108.06" y1="-9.51" x2="-6.28" y2="104.83"/>
          <line class="cls-13" x1="278.76" y1="196.47" x2="89.93" y2="385.3"/>
          <line class="cls-13" x1="182.06" y1="-8.7" x2="-6.77" y2="180.14"/>
          <line class="cls-13" x1="278.92" y1="120.84" x2="14.95" y2="384.81"/>
          <line class="cls-13" x1="256.05" y1="-7.88" x2="-7.92" y2="256.09"/>
          <line class="cls-13" x1="281.37" y1="42.92" x2="-8.73" y2="333.03"/>
          <g>
            <line class="cls-11" x1="70.15" y1="-9.82" x2="-12.72" y2="73.04"/>
            <line class="cls-11" x1="145.42" y1="-9.95" x2="-13.39" y2="148.85"/>
            <line class="cls-11" x1="220.69" y1="-10.09" x2="-14.06" y2="224.67"/>
          </g>
          <line class="cls-11" x1="-14.06" y1="304.46" x2="68.8" y2="387.32"/>
          <line class="cls-11" x1="-13.22" y1="229.84" x2="140.45" y2="383.51"/>
          <line class="cls-11" x1="-12.37" y1="155.22" x2="214.44" y2="382.04"/>
          <g class="cls-10">
            <line class="cls-11" x1="-11.52" y1="80.61" x2="275.05" y2="367.17"/>
          </g>
          <g class="cls-9">
            <line class="cls-11" x1="-10.67" y1="5.99" x2="280.76" y2="297.42"/>
          </g>
          <line class="cls-13" x1="-9.34" y1="347.08" x2="28.55" y2="384.98"/>
          <line class="cls-13" x1="238.95" y1="-8.37" x2="276.84" y2="29.53"/>
          <g class="cls-7">
            <line class="cls-13" x1="-10.81" y1="270.14" x2="103.53" y2="384.49"/>
          </g>
          <g class="cls-8">
            <line class="cls-13" x1="161.68" y1="-9.51" x2="276.03" y2="104.83"/>
          </g>
          <g class="cls-6">
            <line class="cls-13" x1="-9.02" y1="196.47" x2="179.81" y2="385.3"/>
          </g>
          <g class="cls-4">
            <line class="cls-13" x1="87.68" y1="-8.7" x2="276.52" y2="180.14"/>
          </g>
          <g class="cls-3">
            <line class="cls-13" x1="-9.18" y1="120.84" x2="254.79" y2="384.81"/>
          </g>
          <g class="cls-2">
            <line class="cls-13" x1="13.69" y1="-7.88" x2="277.66" y2="256.09"/>
          </g>
          <g class="cls-5">
            <line class="cls-13" x1="-11.63" y1="42.92" x2="278.48" y2="333.03"/>
          </g>
          <g class="cls-12">
            <g>
              <line class="cls-11" x1="199.6" y1="-9.82" x2="282.46" y2="73.04"/>
              <line class="cls-11" x1="124.32" y1="-9.95" x2="283.13" y2="148.85"/>
              <line class="cls-11" x1="49.05" y1="-10.09" x2="283.81" y2="224.67"/>
            </g>
          </g>
        </g>
      </g>
      <rect class="cls-14" x="2" y="2" width="265.74" height="375.43" rx="19.9" ry="19.9"/>
    </g>
  </g>
</svg>