<?xml version="1.0" encoding="UTF-8"?>
<svg xmlns="http://www.w3.org/2000/svg" viewBox="0 0 269.74 379.43">
  <defs>
    <style>
      .cls-1 {
        fill: none;
        isolation: isolate;
      }

      .cls-2 {
        fill: #686868;
      }

      .cls-3 {
        fill: #b3f4ff;
      }

      .cls-4 {
        fill: #daac4f;
      }

      .cls-5 {
        fill: #1c5788;
      }

      .cls-6 {
        fill: #fff;
        stroke: #a3a3a3;
        stroke-width: 2px;
      }

      .cls-6, .cls-7 {
        stroke-miterlimit: 10;
      }

      .cls-7 {
        fill: #f2f2f2;
        stroke: #686868;
        stroke-width: 4px;
      }

      .cls-8 {
        mix-blend-mode: multiply;
        opacity: .2;
      }
    </style>
  </defs>
  <g class="cls-1">
    <g id="Capa_2" data-name="Capa 2">
      <g id="Capa_1-2" data-name="Capa 1">
        <rect class="cls-7" x="2" y="2" width="265.74" height="375.43" rx="19.9" ry="19.9"/>
        <path class="cls-2" d="m36.01,29.1c-.45.19-.96.45-1.54.45-.96,0-1.54-.96-1.54-1.79,0-.9.64-1.28,1.6-1.79l8.45-4.29c.9-.45,1.79-.83,2.82-.83,1.79,0,1.79,1.28,1.79,2.05v28.41c0,1.15-.64,1.73-1.92,1.73-1.34,0-1.98-.58-1.98-1.73v-26.17l-7.68,3.97Z"/>
        <path class="cls-2" d="m230.11,335.74c-.45.19-.96.45-1.54.45-.96,0-1.54-.96-1.54-1.79,0-.9.64-1.28,1.6-1.79l8.45-4.29c.9-.45,1.79-.83,2.82-.83,1.79,0,1.79,1.28,1.79,2.05v28.41c0,1.15-.64,1.73-1.92,1.73-1.34,0-1.98-.58-1.98-1.73v-26.17l-7.68,3.97Z"/>
        <rect class="cls-6" x="53.76" y="65.05" width="164.22" height="252.58" rx="5.69" ry="5.69"/>
        <g>
          <circle class="cls-4" cx="135.87" cy="107.52" r="9.09"/>
          <path class="cls-5" d="m135.87,116.26h0c5.8,0,10.5,4.7,10.5,10.5v44.5h-21v-44.5c0-5.8,4.7-10.5,10.5-10.5Z"/>
          <polygon class="cls-3" points="145.9 269.26 135.4 284.26 124.9 269.26 124.9 162.26 145.9 162.26 145.9 269.26"/>
          <rect class="cls-4" x="99.87" y="158.43" width="72" height="18.17" rx="9.09" ry="9.09"/>
          <path class="cls-8" d="m145.91,269.26v-92.66h16.88c5.02,0,9.09-4.07,9.09-9.09s-4.07-9.09-9.09-9.09h-16.41v-31.67c0-5.18-3.76-9.48-8.69-10.33,4.15-.84,7.28-4.51,7.28-8.91,0-5.02-4.07-9.09-9.09-9.09-.16,0-.31.02-.46.02v185.8h0s10.5-15,10.5-15Z"/>
        </g>
        <g>
          <g>
            <circle class="cls-4" cx="234.36" cy="16.28" r="2.22"/>
            <path class="cls-5" d="m234.36,18.41h0c1.42,0,2.57,1.15,2.57,2.57v10.89h-5.14v-10.89c0-1.42,1.15-2.57,2.57-2.57Z"/>
            <polygon class="cls-3" points="236.82 55.85 234.25 59.52 231.68 55.85 231.68 29.67 236.82 29.67 236.82 55.85"/>
            <rect class="cls-4" x="225.56" y="28.73" width="17.62" height="4.45" rx="2.22" ry="2.22"/>
            <path class="cls-8" d="m236.82,55.85v-22.67h4.13c1.23,0,2.22-1,2.22-2.22s-1-2.22-2.22-2.22h-4.02v-7.75c0-1.27-.92-2.32-2.13-2.53,1.02-.21,1.78-1.1,1.78-2.18,0-1.23-1-2.22-2.22-2.22-.04,0-.08,0-.11,0v45.46h0s2.57-3.67,2.57-3.67Z"/>
          </g>
          <g>
            <circle class="cls-4" cx="40.27" cy="364.09" r="2.22"/>
            <path class="cls-5" d="m37.7,348.5h5.14v10.89c0,1.42-1.15,2.57-2.57,2.57h0c-1.42,0-2.57-1.15-2.57-2.57v-10.89h0Z"/>
            <polygon class="cls-3" points="42.72 324.52 40.15 320.85 37.58 324.52 37.58 350.7 42.72 350.7 42.72 324.52"/>
            <rect class="cls-4" x="31.46" y="347.19" width="17.62" height="4.45" rx="2.22" ry="2.22"/>
            <path class="cls-8" d="m42.72,324.52v22.67s4.13,0,4.13,0c1.23,0,2.22,1,2.22,2.22,0,1.23-1,2.22-2.22,2.22h-4.02s0,7.75,0,7.75c0,1.27-.92,2.32-2.13,2.53,1.02.21,1.78,1.1,1.78,2.18s-1,2.22-2.22,2.22c-.04,0-.08,0-.11,0v-45.46h0s2.57,3.67,2.57,3.67Z"/>
          </g>
        </g>
      </g>
    </g>
  </g>
</svg>