<?xml version="1.0" encoding="UTF-8"?>
<svg xmlns="http://www.w3.org/2000/svg" viewBox="0 0 269.74 379.43">
  <defs>
    <style>
      .cls-1 {
        fill: none;
        isolation: isolate;
      }

      .cls-2 {
        fill: #686868;
      }

      .cls-3 {
        fill: #b3f4ff;
      }

      .cls-4 {
        fill: #daac4f;
      }

      .cls-5 {
        fill: #1c5788;
      }

      .cls-6 {
        fill: #fff;
        stroke: #a3a3a3;
        stroke-width: 2px;
      }

      .cls-6, .cls-7 {
        stroke-miterlimit: 10;
      }

      .cls-7 {
        fill: #f2f2f2;
        stroke: #686868;
        stroke-width: 4px;
      }

      .cls-8 {
        mix-blend-mode: multiply;
        opacity: .2;
      }
    </style>
  </defs>
  <g class="cls-1">
    <g id="Capa_2" data-name="Capa 2">
      <g id="Capa_1-2" data-name="Capa 1">
        <rect class="cls-7" x="2" y="2" width="265.74" height="375.43" rx="19.9" ry="19.9"/>
        <path class="cls-2" d="m227.8,355.9h16.32c1.15,0,1.73.58,1.73,1.73s-.58,1.73-1.73,1.73h-19.13c-1.28,0-1.98-.64-1.98-1.86,0-.96.38-1.6,1.6-2.62,8.77-7.62,15.93-11.52,15.93-17.85,0-3.78-2.69-6.21-7.42-6.21-2.62,0-4.8.7-6.53,2.05-1.09.83-1.47,1.34-2.05,1.34-.9,0-1.66-.96-1.66-1.79,0-.77.83-1.66,1.73-2.3,2.18-1.73,5.12-2.69,8.7-2.69,6.53,0,11.14,3.07,11.14,9.22,0,8.06-8.13,12.42-16.64,19.26Z"/>
        <rect class="cls-6" x="53.76" y="65.05" width="164.22" height="252.58" rx="5.69" ry="5.69"/>
        <path class="cls-2" d="m33.71,49.45h16.32c1.15,0,1.73.58,1.73,1.73s-.58,1.73-1.73,1.73h-19.13c-1.28,0-1.98-.64-1.98-1.86,0-.96.38-1.6,1.6-2.62,8.77-7.62,15.93-11.52,15.93-17.85,0-3.78-2.69-6.21-7.42-6.21-2.62,0-4.8.7-6.53,2.05-1.09.83-1.47,1.34-2.05,1.34-.9,0-1.66-.96-1.66-1.79,0-.77.83-1.66,1.73-2.3,2.18-1.73,5.12-2.69,8.7-2.69,6.53,0,11.14,3.07,11.14,9.22,0,8.06-8.13,12.42-16.64,19.26Z"/>
        <g>
          <circle class="cls-4" cx="109.62" cy="137.21" r="5.87"/>
          <path class="cls-5" d="m109.62,142.85h0c3.74,0,6.78,3.04,6.78,6.78v28.74h-13.56v-28.74c0-3.74,3.04-6.78,6.78-6.78Z"/>
          <polygon class="cls-3" points="116.1 241.66 109.32 251.35 102.54 241.66 102.54 172.56 116.1 172.56 116.1 241.66"/>
          <rect class="cls-4" x="86.37" y="170.09" width="46.5" height="11.74" rx="5.87" ry="5.87"/>
          <path class="cls-8" d="m116.1,241.66v-59.84h10.9c3.24,0,5.87-2.63,5.87-5.87s-2.63-5.87-5.87-5.87h-10.6v-20.45c0-3.35-2.43-6.12-5.61-6.67,2.68-.54,4.7-2.91,4.7-5.75,0-3.24-2.63-5.87-5.87-5.87-.1,0-.2.01-.3.02v120h0s6.78-9.69,6.78-9.69Z"/>
        </g>
        <g>
          <circle class="cls-4" cx="162.11" cy="245.48" r="5.87"/>
          <path class="cls-5" d="m155.33,204.32h13.56v28.74c0,3.74-3.04,6.78-6.78,6.78h0c-3.74,0-6.78-3.04-6.78-6.78v-28.74h0Z"/>
          <polygon class="cls-3" points="168.6 141.02 161.81 131.34 155.03 141.02 155.03 210.13 168.6 210.13 168.6 141.02"/>
          <rect class="cls-4" x="138.86" y="200.87" width="46.5" height="11.74" rx="5.87" ry="5.87"/>
          <path class="cls-8" d="m168.6,141.02v59.84s10.9,0,10.9,0c3.24,0,5.87,2.63,5.87,5.87,0,3.24-2.63,5.87-5.87,5.87h-10.6s0,20.45,0,20.45c0,3.35-2.43,6.12-5.61,6.67,2.68.54,4.7,2.91,4.7,5.75,0,3.24-2.63,5.87-5.87,5.87-.1,0-.2-.01-.3-.02v-120h0s6.78,9.69,6.78,9.69Z"/>
        </g>
        <g>
          <g>
            <circle class="cls-4" cx="234.92" cy="16.28" r="2.22"/>
            <path class="cls-5" d="m234.92,18.41h0c1.42,0,2.57,1.15,2.57,2.57v10.89h-5.14v-10.89c0-1.42,1.15-2.57,2.57-2.57Z"/>
            <polygon class="cls-3" points="237.38 55.85 234.81 59.52 232.24 55.85 232.24 29.67 237.38 29.67 237.38 55.85"/>
            <rect class="cls-4" x="226.12" y="28.73" width="17.62" height="4.45" rx="2.22" ry="2.22"/>
            <path class="cls-8" d="m237.38,55.85v-22.67h4.13c1.23,0,2.22-1,2.22-2.22s-1-2.22-2.22-2.22h-4.02v-7.75c0-1.27-.92-2.32-2.13-2.53,1.02-.21,1.78-1.1,1.78-2.18,0-1.23-1-2.22-2.22-2.22-.04,0-.08,0-.11,0v45.46h0s2.57-3.67,2.57-3.67Z"/>
          </g>
          <g>
            <circle class="cls-4" cx="40.83" cy="364.09" r="2.22"/>
            <path class="cls-5" d="m38.26,348.5h5.14v10.89c0,1.42-1.15,2.57-2.57,2.57h0c-1.42,0-2.57-1.15-2.57-2.57v-10.89h0Z"/>
            <polygon class="cls-3" points="43.28 324.52 40.71 320.85 38.14 324.52 38.14 350.7 43.28 350.7 43.28 324.52"/>
            <rect class="cls-4" x="32.02" y="347.19" width="17.62" height="4.45" rx="2.22" ry="2.22"/>
            <path class="cls-8" d="m43.28,324.52v22.67s4.13,0,4.13,0c1.23,0,2.22,1,2.22,2.22,0,1.23-1,2.22-2.22,2.22h-4.02s0,7.75,0,7.75c0,1.27-.92,2.32-2.13,2.53,1.02.21,1.78,1.1,1.78,2.18s-1,2.22-2.22,2.22c-.04,0-.08,0-.11,0v-45.46h0s2.57,3.67,2.57,3.67Z"/>
          </g>
        </g>
      </g>
    </g>
  </g>
</svg>