<?xml version="1.0" encoding="UTF-8"?>
<svg xmlns="http://www.w3.org/2000/svg" viewBox="0 0 269.74 379.43">
  <defs>
    <style>
      .cls-1 {
        fill: none;
        isolation: isolate;
      }

      .cls-2 {
        fill: #686868;
      }

      .cls-3 {
        fill: #b3f4ff;
      }

      .cls-4 {
        fill: #daac4f;
      }

      .cls-5 {
        fill: #1c5788;
      }

      .cls-6 {
        fill: #fff;
        stroke: #a3a3a3;
        stroke-width: 2px;
      }

      .cls-6, .cls-7 {
        stroke-miterlimit: 10;
      }

      .cls-7 {
        fill: #f2f2f2;
        stroke: #686868;
        stroke-width: 4px;
      }

      .cls-8 {
        mix-blend-mode: multiply;
        opacity: .2;
      }
    </style>
  </defs>
  <g class="cls-1">
    <g id="Capa_2" data-name="Capa 2">
      <g id="Capa_1-2" data-name="Capa 1">
        <rect class="cls-7" x="2" y="2" width="265.74" height="375.43" rx="19.9" ry="19.9"/>
        <path class="cls-2" d="m247.1,352.19c1.15,0,1.73.58,1.73,1.66s-.58,1.66-1.73,1.66h-5.25v7.17c0,1.15-.64,1.73-1.86,1.73-1.28,0-1.92-.58-1.92-1.73v-7.17h-16.32c-.9,0-1.92-.26-1.92-1.86,0-.96.38-1.66,1.02-2.56l15.81-21.63c.96-1.28,1.73-1.98,3.2-1.98s1.98.58,1.98,1.73v22.97h5.25Zm-8.96-19.33l-14.02,19.39h14.02v-19.39Z"/>
        <path class="cls-2" d="m53.03,43.18c1.15,0,1.73.58,1.73,1.66s-.58,1.66-1.73,1.66h-5.25v7.17c0,1.15-.64,1.73-1.86,1.73-1.28,0-1.92-.58-1.92-1.73v-7.17h-16.32c-.9,0-1.92-.26-1.92-1.86,0-.96.38-1.66,1.02-2.56l15.81-21.63c.96-1.28,1.73-1.98,3.2-1.98s1.98.58,1.98,1.73v22.97h5.25Zm-8.96-19.33l-14.02,19.39h14.02v-19.39Z"/>
        <rect class="cls-6" x="53.76" y="65.05" width="164.22" height="252.58" rx="5.69" ry="5.69"/>
        <g>
          <circle class="cls-4" cx="100.72" cy="94.72" r="3.95"/>
          <path class="cls-5" d="m100.72,98.52h0c2.52,0,4.56,2.04,4.56,4.56v19.33h-9.12v-19.33c0-2.52,2.04-4.56,4.56-4.56Z"/>
          <polygon class="cls-3" points="105.08 164.98 100.52 171.49 95.96 164.98 95.96 118.5 105.08 118.5 105.08 164.98"/>
          <rect class="cls-4" x="85.08" y="116.84" width="31.28" height="7.89" rx="3.95" ry="3.95"/>
          <path class="cls-8" d="m105.08,164.98v-40.25h7.33c2.18,0,3.95-1.77,3.95-3.95s-1.77-3.95-3.95-3.95h-7.13v-13.76c0-2.25-1.63-4.12-3.78-4.49,1.8-.36,3.16-1.96,3.16-3.87,0-2.18-1.77-3.95-3.95-3.95-.07,0-.13,0-.2.01v80.71h0s4.56-6.52,4.56-6.52Z"/>
        </g>
        <g>
          <circle class="cls-4" cx="175.43" cy="167.55" r="3.95"/>
          <path class="cls-5" d="m170.87,139.86h9.12v19.33c0,2.52-2.04,4.56-4.56,4.56h0c-2.52,0-4.56-2.04-4.56-4.56v-19.33h0Z"/>
          <polygon class="cls-3" points="179.79 97.29 175.23 90.77 170.67 97.29 170.67 143.77 179.79 143.77 179.79 97.29"/>
          <rect class="cls-4" x="159.8" y="137.54" width="31.28" height="7.89" rx="3.95" ry="3.95"/>
          <path class="cls-8" d="m179.79,97.29v40.25s7.33,0,7.33,0c2.18,0,3.95,1.77,3.95,3.95,0,2.18-1.77,3.95-3.95,3.95h-7.13s0,13.76,0,13.76c0,2.25-1.63,4.12-3.78,4.49,1.8.36,3.16,1.96,3.16,3.87,0,2.18-1.77,3.95-3.95,3.95-.07,0-.13,0-.2-.01v-80.71h0s4.56,6.52,4.56,6.52Z"/>
        </g>
        <g>
          <circle class="cls-4" cx="100.72" cy="284.02" r="3.95"/>
          <path class="cls-5" d="m96.16,256.33h9.12v19.33c0,2.52-2.04,4.56-4.56,4.56h0c-2.52,0-4.56-2.04-4.56-4.56v-19.33h0Z"/>
          <polygon class="cls-3" points="105.08 213.76 100.52 207.25 95.96 213.76 95.96 260.24 105.08 260.24 105.08 213.76"/>
          <rect class="cls-4" x="85.08" y="254.01" width="31.28" height="7.89" rx="3.95" ry="3.95"/>
          <path class="cls-8" d="m105.08,213.76v40.25s7.33,0,7.33,0c2.18,0,3.95,1.77,3.95,3.95s-1.77,3.95-3.95,3.95h-7.13s0,13.76,0,13.76c0,2.25-1.63,4.12-3.78,4.49,1.8.36,3.16,1.96,3.16,3.87,0,2.18-1.77,3.95-3.95,3.95-.07,0-.13,0-.2-.01v-80.71h0s4.56,6.52,4.56,6.52Z"/>
        </g>
        <g>
          <circle class="cls-4" cx="175.23" cy="211.19" r="3.95"/>
          <path class="cls-5" d="m175.23,214.99h0c2.52,0,4.56,2.04,4.56,4.56v19.33h-9.12v-19.33c0-2.52,2.04-4.56,4.56-4.56Z"/>
          <polygon class="cls-3" points="179.59 281.45 175.03 287.97 170.47 281.45 170.47 234.97 179.59 234.97 179.59 281.45"/>
          <rect class="cls-4" x="159.59" y="233.31" width="31.28" height="7.89" rx="3.95" ry="3.95"/>
          <path class="cls-8" d="m179.59,281.45v-40.25h7.33c2.18,0,3.95-1.77,3.95-3.95s-1.77-3.95-3.95-3.95h-7.13v-13.76c0-2.25-1.63-4.12-3.78-4.49,1.8-.36,3.16-1.96,3.16-3.87,0-2.18-1.77-3.95-3.95-3.95-.07,0-.13,0-.2.01v80.71h0s4.56-6.52,4.56-6.52Z"/>
        </g>
        <g>
          <g>
            <circle class="cls-4" cx="234.52" cy="16.28" r="2.22"/>
            <path class="cls-5" d="m234.52,18.41h0c1.42,0,2.57,1.15,2.57,2.57v10.89h-5.14v-10.89c0-1.42,1.15-2.57,2.57-2.57Z"/>
            <polygon class="cls-3" points="236.98 55.85 234.41 59.52 231.84 55.85 231.84 29.67 236.98 29.67 236.98 55.85"/>
            <rect class="cls-4" x="225.72" y="28.73" width="17.62" height="4.45" rx="2.22" ry="2.22"/>
            <path class="cls-8" d="m236.98,55.85v-22.67h4.13c1.23,0,2.22-1,2.22-2.22s-1-2.22-2.22-2.22h-4.02v-7.75c0-1.27-.92-2.32-2.13-2.53,1.02-.21,1.78-1.1,1.78-2.18,0-1.23-1-2.22-2.22-2.22-.04,0-.08,0-.11,0v45.46h0s2.57-3.67,2.57-3.67Z"/>
          </g>
          <g>
            <circle class="cls-4" cx="40.43" cy="364.09" r="2.22"/>
            <path class="cls-5" d="m37.86,348.5h5.14v10.89c0,1.42-1.15,2.57-2.57,2.57h0c-1.42,0-2.57-1.15-2.57-2.57v-10.89h0Z"/>
            <polygon class="cls-3" points="42.88 324.52 40.31 320.85 37.75 324.52 37.75 350.7 42.88 350.7 42.88 324.52"/>
            <rect class="cls-4" x="31.62" y="347.19" width="17.62" height="4.45" rx="2.22" ry="2.22"/>
            <path class="cls-8" d="m42.88,324.52v22.67s4.13,0,4.13,0c1.23,0,2.22,1,2.22,2.22,0,1.23-1,2.22-2.22,2.22h-4.02s0,7.75,0,7.75c0,1.27-.92,2.32-2.13,2.53,1.02.21,1.78,1.1,1.78,2.18s-1,2.22-2.22,2.22c-.04,0-.08,0-.11,0v-45.46h0s2.57,3.67,2.57,3.67Z"/>
          </g>
        </g>
      </g>
    </g>
  </g>
</svg>