<?xml version="1.0" encoding="UTF-8"?>
<svg xmlns="http://www.w3.org/2000/svg" viewBox="0 0 269.74 379.43">
  <defs>
    <style>
      .cls-1 {
        fill: none;
        isolation: isolate;
      }

      .cls-2 {
        fill: #686868;
      }

      .cls-3 {
        fill: #b3f4ff;
      }

      .cls-4 {
        fill: #daac4f;
      }

      .cls-5 {
        fill: #1c5788;
      }

      .cls-6 {
        fill: #fff;
        stroke: #a3a3a3;
        stroke-width: 2px;
      }

      .cls-6, .cls-7 {
        stroke-miterlimit: 10;
      }

      .cls-7 {
        fill: #f2f2f2;
        stroke: #686868;
        stroke-width: 4px;
      }

      .cls-8 {
        mix-blend-mode: multiply;
        opacity: .2;
      }
    </style>
  </defs>
  <g class="cls-1">
    <g id="Capa_2" data-name="Capa 2">
      <g id="Capa_1-2" data-name="Capa 1">
        <rect class="cls-7" x="2" y="2" width="265.74" height="375.43" rx="19.9" ry="19.9"/>
        <path class="cls-2" d="m227.9,342.08c.96-.13,2.56-.19,3.26-.19,8.83,0,14.53,4.42,14.53,11.39s-5.25,11.2-12.8,11.2c-3.46,0-6.4-.96-8.51-2.5-.96-.7-1.66-1.41-1.66-2.11,0-.77.77-1.79,1.73-1.79.58,0,1.02.38,1.98,1.02,1.92,1.34,4.03,1.98,6.4,1.98,5.25,0,8.9-2.94,8.9-7.68s-4.1-8.26-11.07-8.26c-1.6,0-3.39.13-4.16.13-1.79,0-2.24-.7-2.11-2.5l.7-12.74c.06-1.47.77-2.11,2.24-2.11h14.85c1.15,0,1.73.58,1.73,1.73s-.58,1.73-1.73,1.73h-13.7l-.58,10.69Z"/>
        <rect class="cls-6" x="53.76" y="65.05" width="164.22" height="252.58" rx="5.69" ry="5.69"/>
        <path class="cls-2" d="m33.96,32.81c.96-.13,2.56-.19,3.26-.19,8.83,0,14.53,4.42,14.53,11.39s-5.25,11.2-12.8,11.2c-3.46,0-6.4-.96-8.51-2.5-.96-.7-1.66-1.41-1.66-2.11,0-.77.77-1.79,1.73-1.79.58,0,1.02.38,1.98,1.02,1.92,1.34,4.03,1.98,6.4,1.98,5.25,0,8.9-2.94,8.9-7.68s-4.1-8.26-11.07-8.26c-1.6,0-3.39.13-4.16.13-1.79,0-2.24-.7-2.11-2.5l.7-12.74c.06-1.47.77-2.11,2.24-2.11h14.85c1.15,0,1.73.58,1.73,1.73s-.58,1.73-1.73,1.73h-13.7l-.58,10.69Z"/>
        <g>
          <circle class="cls-4" cx="98.81" cy="94.72" r="3.95"/>
          <path class="cls-5" d="m98.81,98.52h0c2.52,0,4.56,2.04,4.56,4.56v19.33h-9.12v-19.33c0-2.52,2.04-4.56,4.56-4.56Z"/>
          <polygon class="cls-3" points="103.17 164.98 98.61 171.49 94.04 164.98 94.04 118.5 103.17 118.5 103.17 164.98"/>
          <rect class="cls-4" x="83.17" y="116.84" width="31.28" height="7.89" rx="3.95" ry="3.95"/>
          <path class="cls-8" d="m103.17,164.98v-40.25h7.33c2.18,0,3.95-1.77,3.95-3.95s-1.77-3.95-3.95-3.95h-7.13v-13.76c0-2.25-1.63-4.12-3.78-4.49,1.8-.36,3.16-1.96,3.16-3.87,0-2.18-1.77-3.95-3.95-3.95-.07,0-.13,0-.2.01v80.71h0s4.56-6.52,4.56-6.52Z"/>
        </g>
        <g>
          <circle class="cls-4" cx="136.16" cy="153.31" r="3.95"/>
          <path class="cls-5" d="m136.16,157.1h0c2.52,0,4.56,2.04,4.56,4.56v19.33h-9.12v-19.33c0-2.52,2.04-4.56,4.56-4.56Z"/>
          <polygon class="cls-3" points="140.52 223.56 135.96 230.08 131.4 223.56 131.4 177.08 140.52 177.08 140.52 223.56"/>
          <rect class="cls-4" x="120.53" y="175.42" width="31.28" height="7.89" rx="3.95" ry="3.95"/>
          <path class="cls-8" d="m140.52,223.56v-40.25h7.33c2.18,0,3.95-1.77,3.95-3.95s-1.77-3.95-3.95-3.95h-7.13v-13.76c0-2.25-1.63-4.12-3.78-4.49,1.8-.36,3.16-1.96,3.16-3.87,0-2.18-1.77-3.95-3.95-3.95-.07,0-.13,0-.2.01v80.71h0s4.56-6.52,4.56-6.52Z"/>
        </g>
        <g>
          <circle class="cls-4" cx="173.52" cy="167.55" r="3.95"/>
          <path class="cls-5" d="m168.96,139.86h9.12v19.33c0,2.52-2.04,4.56-4.56,4.56h0c-2.52,0-4.56-2.04-4.56-4.56v-19.33h0Z"/>
          <polygon class="cls-3" points="177.88 97.29 173.32 90.77 168.76 97.29 168.76 143.77 177.88 143.77 177.88 97.29"/>
          <rect class="cls-4" x="157.88" y="137.54" width="31.28" height="7.89" rx="3.95" ry="3.95"/>
          <path class="cls-8" d="m177.88,97.29v40.25s7.33,0,7.33,0c2.18,0,3.95,1.77,3.95,3.95s-1.77,3.95-3.95,3.95h-7.13s0,13.76,0,13.76c0,2.25-1.63,4.12-3.78,4.49,1.8.36,3.16,1.96,3.16,3.87,0,2.18-1.77,3.95-3.95,3.95-.07,0-.13,0-.2-.01v-80.71h0s4.56,6.52,4.56,6.52Z"/>
        </g>
        <g>
          <circle class="cls-4" cx="98.81" cy="284.02" r="3.95"/>
          <path class="cls-5" d="m94.25,256.33h9.12v19.33c0,2.52-2.04,4.56-4.56,4.56h0c-2.52,0-4.56-2.04-4.56-4.56v-19.33h0Z"/>
          <polygon class="cls-3" points="103.17 213.76 98.61 207.25 94.04 213.76 94.04 260.24 103.17 260.24 103.17 213.76"/>
          <rect class="cls-4" x="83.17" y="254.01" width="31.28" height="7.89" rx="3.95" ry="3.95"/>
          <path class="cls-8" d="m103.17,213.76v40.25s7.33,0,7.33,0c2.18,0,3.95,1.77,3.95,3.95,0,2.18-1.77,3.95-3.95,3.95h-7.13s0,13.76,0,13.76c0,2.25-1.63,4.12-3.78,4.49,1.8.36,3.16,1.96,3.16,3.87,0,2.18-1.77,3.95-3.95,3.95-.07,0-.13,0-.2-.01v-80.71h0s4.56,6.52,4.56,6.52Z"/>
        </g>
        <g>
          <circle class="cls-4" cx="173.32" cy="211.19" r="3.95"/>
          <path class="cls-5" d="m173.32,214.99h0c2.52,0,4.56,2.04,4.56,4.56v19.33h-9.12v-19.33c0-2.52,2.04-4.56,4.56-4.56Z"/>
          <polygon class="cls-3" points="177.68 281.45 173.12 287.97 168.56 281.45 168.56 234.97 177.68 234.97 177.68 281.45"/>
          <rect class="cls-4" x="157.68" y="233.31" width="31.28" height="7.89" rx="3.95" ry="3.95"/>
          <path class="cls-8" d="m177.68,281.45v-40.25h7.33c2.18,0,3.95-1.77,3.95-3.95s-1.77-3.95-3.95-3.95h-7.13v-13.76c0-2.25-1.63-4.12-3.78-4.49,1.8-.36,3.16-1.96,3.16-3.87,0-2.18-1.77-3.95-3.95-3.95-.07,0-.13,0-.2.01v80.71h0s4.56-6.52,4.56-6.52Z"/>
        </g>
        <g>
          <g>
            <circle class="cls-4" cx="234.77" cy="16.28" r="2.22"/>
            <path class="cls-5" d="m234.77,18.41h0c1.42,0,2.57,1.15,2.57,2.57v10.89h-5.14v-10.89c0-1.42,1.15-2.57,2.57-2.57Z"/>
            <polygon class="cls-3" points="237.22 55.85 234.65 59.52 232.09 55.85 232.09 29.67 237.22 29.67 237.22 55.85"/>
            <rect class="cls-4" x="225.96" y="28.73" width="17.62" height="4.45" rx="2.22" ry="2.22"/>
            <path class="cls-8" d="m237.22,55.85v-22.67h4.13c1.23,0,2.22-1,2.22-2.22s-1-2.22-2.22-2.22h-4.02v-7.75c0-1.27-.92-2.32-2.13-2.53,1.02-.21,1.78-1.1,1.78-2.18,0-1.23-1-2.22-2.22-2.22-.04,0-.08,0-.11,0v45.46h0s2.57-3.67,2.57-3.67Z"/>
          </g>
          <g>
            <circle class="cls-4" cx="40.67" cy="364.09" r="2.22"/>
            <path class="cls-5" d="m38.1,348.5h5.14v10.89c0,1.42-1.15,2.57-2.57,2.57h0c-1.42,0-2.57-1.15-2.57-2.57v-10.89h0Z"/>
            <polygon class="cls-3" points="43.13 324.52 40.56 320.85 37.99 324.52 37.99 350.7 43.13 350.7 43.13 324.52"/>
            <rect class="cls-4" x="31.86" y="347.19" width="17.62" height="4.45" rx="2.22" ry="2.22"/>
            <path class="cls-8" d="m43.13,324.52v22.67s4.13,0,4.13,0c1.23,0,2.22,1,2.22,2.22,0,1.23-1,2.22-2.22,2.22h-4.02s0,7.75,0,7.75c0,1.27-.92,2.32-2.13,2.53,1.02.21,1.78,1.1,1.78,2.18s-1,2.22-2.22,2.22c-.04,0-.08,0-.11,0v-45.46h0s2.57,3.67,2.57,3.67Z"/>
          </g>
        </g>
      </g>
    </g>
  </g>
</svg>