<?xml version="1.0" encoding="UTF-8"?>
<svg xmlns="http://www.w3.org/2000/svg" viewBox="0 0 269.74 379.43">
  <defs>
    <style>
      .cls-1 {
        fill: none;
        isolation: isolate;
      }

      .cls-2 {
        fill: #686868;
      }

      .cls-3 {
        fill: #b3f4ff;
      }

      .cls-4 {
        fill: #daac4f;
      }

      .cls-5 {
        fill: #1c5788;
      }

      .cls-6 {
        fill: #fff;
        stroke: #a3a3a3;
        stroke-width: 2px;
      }

      .cls-6, .cls-7 {
        stroke-miterlimit: 10;
      }

      .cls-7 {
        fill: #f2f2f2;
        stroke: #686868;
        stroke-width: 4px;
      }

      .cls-8 {
        mix-blend-mode: multiply;
        opacity: .2;
      }
    </style>
  </defs>
  <g class="cls-1">
    <g id="Capa_2" data-name="Capa 2">
      <g id="Capa_1-2" data-name="Capa 1">
        <rect class="cls-7" x="2" y="2" width="265.74" height="375.43" rx="19.9" ry="19.9"/>
        <path class="cls-2" d="m223.9,331.45c-1.15,0-1.73-.58-1.73-1.79,0-1.15.58-1.73,1.73-1.73h20.03c1.22,0,1.86.58,1.86,1.73,0,.7-.26,1.41-.58,2.24l-13.63,30.4c-.51,1.28-.9,2.11-2.56,2.11-1.34,0-1.79-.45-1.79-1.15,0-.51.26-1.09.51-1.73l13.95-30.08h-17.79Z"/>
        <rect class="cls-6" x="53.76" y="65.05" width="164.22" height="252.58" rx="5.69" ry="5.69"/>
        <path class="cls-2" d="m29.96,22.19c-1.15,0-1.73-.58-1.73-1.79,0-1.15.58-1.73,1.73-1.73h20.03c1.22,0,1.86.58,1.86,1.73,0,.7-.26,1.41-.58,2.24l-13.63,30.4c-.51,1.28-.9,2.11-2.56,2.11-1.34,0-1.79-.45-1.79-1.15,0-.51.26-1.09.51-1.73l13.95-30.08h-17.79Z"/>
        <g>
          <g>
            <circle class="cls-4" cx="87.59" cy="85.95" r="3.91"/>
            <path class="cls-5" d="m87.59,89.71h0c2.5,0,4.52,2.03,4.52,4.52v19.17h-9.04v-19.17c0-2.5,2.03-4.52,4.52-4.52Z"/>
            <polygon class="cls-3" points="91.91 155.61 87.39 162.07 82.87 155.61 82.87 109.52 91.91 109.52 91.91 155.61"/>
            <rect class="cls-4" x="72.08" y="107.88" width="31.01" height="7.83" rx="3.91" ry="3.91"/>
            <path class="cls-8" d="m91.91,155.61v-39.91h7.27c2.16,0,3.91-1.75,3.91-3.91s-1.75-3.91-3.91-3.91h-7.07v-13.64c0-2.23-1.62-4.08-3.74-4.45,1.79-.36,3.14-1.94,3.14-3.84,0-2.16-1.75-3.91-3.91-3.91-.07,0-.13,0-.2.01v80.03h0s4.52-6.46,4.52-6.46Z"/>
          </g>
          <g>
            <circle class="cls-4" cx="185.78" cy="85.95" r="3.91"/>
            <path class="cls-5" d="m185.78,89.71h0c2.5,0,4.52,2.03,4.52,4.52v19.17h-9.04v-19.17c0-2.5,2.03-4.52,4.52-4.52Z"/>
            <polygon class="cls-3" points="190.1 155.61 185.58 162.07 181.06 155.61 181.06 109.52 190.1 109.52 190.1 155.61"/>
            <rect class="cls-4" x="170.27" y="107.88" width="31.01" height="7.83" rx="3.91" ry="3.91"/>
            <path class="cls-8" d="m190.1,155.61v-39.91h7.27c2.16,0,3.91-1.75,3.91-3.91s-1.75-3.91-3.91-3.91h-7.07v-13.64c0-2.23-1.62-4.08-3.74-4.45,1.79-.36,3.14-1.94,3.14-3.84,0-2.16-1.75-3.91-3.91-3.91-.07,0-.13,0-.2.01v80.03h0s4.52-6.46,4.52-6.46Z"/>
          </g>
          <g>
            <circle class="cls-4" cx="136.75" cy="158.16" r="3.91"/>
            <path class="cls-5" d="m132.23,130.7h9.04v19.17c0,2.5-2.03,4.52-4.52,4.52h0c-2.5,0-4.52-2.03-4.52-4.52v-19.17h0Z"/>
            <polygon class="cls-3" points="141.08 88.49 136.55 82.03 132.03 88.49 132.03 134.58 141.08 134.58 141.08 88.49"/>
            <rect class="cls-4" x="121.25" y="128.4" width="31.01" height="7.83" rx="3.91" ry="3.91"/>
            <path class="cls-8" d="m141.08,88.49v39.91s7.27,0,7.27,0c2.16,0,3.91,1.75,3.91,3.91,0,2.16-1.75,3.91-3.91,3.91h-7.07s0,13.64,0,13.64c0,2.23-1.62,4.08-3.74,4.45,1.79.36,3.14,1.94,3.14,3.84,0,2.16-1.75,3.91-3.91,3.91-.07,0-.13,0-.2-.01v-80.03h0s4.52,6.46,4.52,6.46Z"/>
          </g>
        </g>
        <g>
          <g>
            <circle class="cls-4" cx="86.48" cy="291.05" r="3.91"/>
            <path class="cls-5" d="m81.96,263.6h9.04v19.17c0,2.5-2.03,4.52-4.52,4.52h0c-2.5,0-4.52-2.03-4.52-4.52v-19.17h0Z"/>
            <polygon class="cls-3" points="90.8 221.39 86.28 214.93 81.76 221.39 81.76 267.47 90.8 267.47 90.8 221.39"/>
            <rect class="cls-4" x="70.97" y="261.3" width="31.01" height="7.83" rx="3.91" ry="3.91"/>
            <path class="cls-8" d="m90.8,221.39v39.91s7.27,0,7.27,0c2.16,0,3.91,1.75,3.91,3.91s-1.75,3.91-3.91,3.91h-7.07s0,13.64,0,13.64c0,2.23-1.62,4.08-3.74,4.45,1.79.36,3.14,1.94,3.14,3.84,0,2.16-1.75,3.91-3.91,3.91-.07,0-.13,0-.2-.01v-80.03h0s4.52,6.46,4.52,6.46Z"/>
          </g>
          <g>
            <circle class="cls-4" cx="184.67" cy="291.05" r="3.91"/>
            <path class="cls-5" d="m180.14,263.6h9.04v19.17c0,2.5-2.03,4.52-4.52,4.52h0c-2.5,0-4.52-2.03-4.52-4.52v-19.17h0Z"/>
            <polygon class="cls-3" points="188.99 221.39 184.47 214.93 179.94 221.39 179.94 267.47 188.99 267.47 188.99 221.39"/>
            <rect class="cls-4" x="169.16" y="261.3" width="31.01" height="7.83" rx="3.91" ry="3.91"/>
            <path class="cls-8" d="m188.99,221.39v39.91s7.27,0,7.27,0c2.16,0,3.91,1.75,3.91,3.91s-1.75,3.91-3.91,3.91h-7.07s0,13.64,0,13.64c0,2.23-1.62,4.08-3.74,4.45,1.79.36,3.14,1.94,3.14,3.84,0,2.16-1.75,3.91-3.91,3.91-.07,0-.13,0-.2-.01v-80.03h0s4.52,6.46,4.52,6.46Z"/>
          </g>
          <g>
            <circle class="cls-4" cx="135.64" cy="218.84" r="3.91"/>
            <path class="cls-5" d="m135.64,222.61h0c2.5,0,4.52,2.03,4.52,4.52v19.17h-9.04v-19.17c0-2.5,2.03-4.52,4.52-4.52Z"/>
            <polygon class="cls-3" points="139.97 288.51 135.44 294.97 130.92 288.51 130.92 242.42 139.97 242.42 139.97 288.51"/>
            <rect class="cls-4" x="120.14" y="240.77" width="31.01" height="7.83" rx="3.91" ry="3.91"/>
            <path class="cls-8" d="m139.97,288.51v-39.91h7.27c2.16,0,3.91-1.75,3.91-3.91s-1.75-3.91-3.91-3.91h-7.07s0-13.64,0-13.64c0-2.23-1.62-4.08-3.74-4.45,1.79-.36,3.14-1.94,3.14-3.84,0-2.16-1.75-3.91-3.91-3.91-.07,0-.13,0-.2.01v80.03h0s4.52-6.46,4.52-6.46Z"/>
          </g>
        </g>
        <g>
          <circle class="cls-4" cx="99.76" cy="188.5" r="3.91"/>
          <path class="cls-5" d="m110.85,176.65h9.04v19.17c0,2.5-2.03,4.52-4.52,4.52h0c-2.5,0-4.52-2.03-4.52-4.52v-19.17h0Z" transform="translate(303.87 73.13) rotate(90)"/>
          <polygon class="cls-3" points="169.43 192.82 175.89 188.3 169.43 183.78 123.34 183.78 123.34 192.82 169.43 192.82"/>
          <rect class="cls-4" x="110.1" y="184.59" width="31.01" height="7.83" rx="3.91" ry="3.91" transform="translate(314.1 62.89) rotate(90)"/>
          <path class="cls-8" d="m169.43,192.82h-39.91s0,7.27,0,7.27c0,2.16-1.75,3.91-3.91,3.91s-3.91-1.75-3.91-3.91v-7.07s-13.64,0-13.64,0c-2.23,0-4.08-1.62-4.45-3.74-.36,1.79-1.94,3.14-3.84,3.14-2.16,0-3.91-1.75-3.91-3.91,0-.07,0-.13.01-.2h80.03s0,0,0,0l-6.46,4.52Z"/>
        </g>
        <g>
          <g>
            <circle class="cls-4" cx="234.71" cy="16.28" r="2.22"/>
            <path class="cls-5" d="m234.71,18.41h0c1.42,0,2.57,1.15,2.57,2.57v10.89h-5.14v-10.89c0-1.42,1.15-2.57,2.57-2.57Z"/>
            <polygon class="cls-3" points="237.16 55.85 234.59 59.52 232.02 55.85 232.02 29.67 237.16 29.67 237.16 55.85"/>
            <rect class="cls-4" x="225.9" y="28.73" width="17.62" height="4.45" rx="2.22" ry="2.22"/>
            <path class="cls-8" d="m237.16,55.85v-22.67h4.13c1.23,0,2.22-1,2.22-2.22s-1-2.22-2.22-2.22h-4.02v-7.75c0-1.27-.92-2.32-2.13-2.53,1.02-.21,1.78-1.1,1.78-2.18,0-1.23-1-2.22-2.22-2.22-.04,0-.08,0-.11,0v45.46h0s2.57-3.67,2.57-3.67Z"/>
          </g>
          <g>
            <circle class="cls-4" cx="40.61" cy="364.09" r="2.22"/>
            <path class="cls-5" d="m38.04,348.5h5.14v10.89c0,1.42-1.15,2.57-2.57,2.57h0c-1.42,0-2.57-1.15-2.57-2.57v-10.89h0Z"/>
            <polygon class="cls-3" points="43.06 324.52 40.49 320.85 37.93 324.52 37.93 350.7 43.06 350.7 43.06 324.52"/>
            <rect class="cls-4" x="31.8" y="347.19" width="17.62" height="4.45" rx="2.22" ry="2.22"/>
            <path class="cls-8" d="m43.06,324.52v22.67s4.13,0,4.13,0c1.23,0,2.22,1,2.22,2.22,0,1.23-1,2.22-2.22,2.22h-4.02s0,7.75,0,7.75c0,1.27-.92,2.32-2.13,2.53,1.02.21,1.78,1.1,1.78,2.18,0,1.23-1,2.22-2.22,2.22-.04,0-.08,0-.11,0v-45.46h0s2.57,3.67,2.57,3.67Z"/>
          </g>
        </g>
      </g>
    </g>
  </g>
</svg>