<?xml version="1.0" encoding="UTF-8"?>
<svg xmlns="http://www.w3.org/2000/svg" xmlns:xlink="http://www.w3.org/1999/xlink" viewBox="0 0 269.74 379.43">
  <defs>
    <style>
      .cls-1 {
        clip-path: url(#clippath-5);
      }

      .cls-1, .cls-2, .cls-3, .cls-4, .cls-5, .cls-6, .cls-7, .cls-8 {
        fill: none;
      }

      .cls-2 {
        clip-path: url(#clippath-3);
      }

      .cls-3 {
        clip-path: url(#clippath-4);
      }

      .cls-4 {
        clip-path: url(#clippath-2);
      }

      .cls-5 {
        clip-path: url(#clippath-1);
      }

      .cls-6 {
        isolation: isolate;
      }

      .cls-9, .cls-10, .cls-11 {
        fill: #fff;
      }

      .cls-12 {
        fill: #e5332a;
      }

      .cls-13 {
        fill: #753520;
      }

      .cls-14 {
        fill: #686868;
      }

      .cls-15 {
        fill: #b3f4ff;
      }

      .cls-16 {
        fill: #c37b2f;
      }

      .cls-17 {
        fill: #742c1a;
      }

      .cls-18 {
        fill: #ce6f40;
      }

      .cls-19 {
        fill: #cf7656;
      }

      .cls-20 {
        fill: #ae2423;
      }

      .cls-21 {
        fill: #d1895c;
      }

      .cls-22 {
        fill: #d38836;
      }

      .cls-23 {
        fill: #c79740;
      }

      .cls-24 {
        fill: #daac4f;
      }

      .cls-25 {
        fill: #cc5e3d;
      }

      .cls-26 {
        fill: #1c5788;
      }

      .cls-27 {
        fill: #1d1d1b;
      }

      .cls-28 {
        fill: #592815;
      }

      .cls-29 {
        fill: #2f475f;
      }

      .cls-30 {
        fill: #59210f;
      }

      .cls-10 {
        stroke: #a3a3a3;
        stroke-width: 2px;
      }

      .cls-10, .cls-31, .cls-7 {
        stroke-miterlimit: 10;
      }

      .cls-31 {
        fill: #f2f2f2;
        stroke: #686868;
        stroke-width: 4px;
      }

      .cls-32 {
        fill: url(#Degradado_sin_nombre_28);
      }

      .cls-7 {
        stroke: #d38836;
        stroke-linecap: round;
        stroke-width: 2.49px;
      }

      .cls-33 {
        fill: url(#Degradado_sin_nombre_28-2);
      }

      .cls-8 {
        clip-path: url(#clippath);
      }

      .cls-34 {
        mix-blend-mode: multiply;
        opacity: .2;
      }

      .cls-11 {
        opacity: .69;
      }
    </style>
    <clipPath id="clippath">
      <path class="cls-12" d="m170.68,317.14h-65.02v-95.36c0-32.75,14.41-59.3,32.18-59.3h.65c17.77,0,32.18,26.55,32.18,59.3v95.36Z"/>
    </clipPath>
    <clipPath id="clippath-1">
      <polygon class="cls-24" points="165.46 35.81 163.5 41.05 164.96 44.95 158.34 69.01 151.72 44.91 153.16 41.05 151.2 35.81 149.23 41.05 150.71 44.98 144.1 69.01 137.48 44.94 138.95 41.05 136.98 35.81 135.01 41.05 136.47 44.95 129.86 69.01 123.23 44.9 124.67 41.05 122.71 35.81 120.74 41.05 122.22 44.99 115.62 69.01 109 44.95 110.46 41.05 108.5 35.81 108.5 46.29 108.5 71.76 108.5 72.8 108.5 95.31 165.46 95.31 165.46 72.8 165.46 43.11 165.46 35.81"/>
    </clipPath>
    <clipPath id="clippath-2">
      <path class="cls-9" d="m122.8,138.13c4.32,0,7.82-2.2,7.82-4.91h-15.64c0,2.71,3.5,4.91,7.82,4.91"/>
    </clipPath>
    <radialGradient id="Degradado_sin_nombre_28" data-name="Degradado sin nombre 28" cx="123.13" cy="135.1" fx="123.13" fy="135.1" r="3.82" gradientUnits="userSpaceOnUse">
      <stop offset="0" stop-color="#b6781f"/>
      <stop offset=".15" stop-color="#ad721e"/>
      <stop offset=".38" stop-color="#95611d"/>
      <stop offset=".68" stop-color="#6e471c"/>
      <stop offset="1" stop-color="#3c251a"/>
    </radialGradient>
    <clipPath id="clippath-3">
      <path class="cls-9" d="m151.24,138.13c4.32,0,7.82-2.2,7.82-4.91h-15.64c0,2.71,3.5,4.91,7.82,4.91"/>
    </clipPath>
    <radialGradient id="Degradado_sin_nombre_28-2" data-name="Degradado sin nombre 28" cx="151.57" fx="151.57" r="3.82" xlink:href="#Degradado_sin_nombre_28"/>
    <clipPath id="clippath-4">
      <rect class="cls-12" x="108.48" y="95.22" width="56.99" height="8.59"/>
    </clipPath>
    <clipPath id="clippath-5">
      <circle class="cls-12" cx="136.97" cy="85.73" r="3.71"/>
    </clipPath>
  </defs>
  <g class="cls-6">
    <g id="Capa_2" data-name="Capa 2">
      <g id="Capa_1-2" data-name="Capa 1">
        <rect class="cls-31" x="2" y="2" width="265.74" height="375.43" rx="19.9" ry="19.9"/>
        <rect class="cls-10" x="53.76" y="65.05" width="164.22" height="252.58" rx="5.69" ry="5.69"/>
        <g>
          <path class="cls-26" d="m198.07,317.14h-119.81v-95.36c0-32.75,26.55-59.3,59.3-59.3h1.2c32.75,0,59.3,26.55,59.3,59.3v95.36Z"/>
          <g>
            <path class="cls-12" d="m170.68,317.14h-65.02v-95.36c0-32.75,14.41-59.3,32.18-59.3h.65c17.77,0,32.18,26.55,32.18,59.3v95.36Z"/>
            <g class="cls-8">
              <rect class="cls-20" x="136.83" y="187.19" width="46.42" height="132.41"/>
            </g>
          </g>
          <path class="cls-13" d="m111.29,159.97c-1.79,3.7-2.79,7.86-2.79,12.25v20.94c0,15.57,12.62,28.2,28.2,28.2h.57c15.57,0,28.2-12.62,28.2-28.2v-20.94c0-4.39-1-8.54-2.79-12.25h-51.38Z"/>
          <path class="cls-13" d="m181.3,185.04v-87.22c0-10.42-8.29-19.06-18.71-19.26-.16,0-.32,0-.48,0h-.5c-13.51,0-24.47,10.89-24.59,24.38-.11-13.48-11.08-24.38-24.59-24.38h-.5c-.16,0-.32,0-.48,0-10.42.2-18.71,8.83-18.71,19.26v87.22c0,5.11-1.56,9.85-4.22,13.78h97c-2.67-3.93-4.22-8.67-4.22-13.78"/>
          <polygon class="cls-21" points="125.07 173.59 108.5 173.59 108.5 120.47 137.03 120.47 137.03 159.1 125.07 173.59"/>
          <g>
            <path class="cls-21" d="m165.46,121.21c0-7.85-6.37-14.22-14.22-14.22s-14.22,6.37-14.22,14.22,6.37,14.22,14.22,14.22,14.22-6.37,14.22-14.22"/>
            <path class="cls-21" d="m137.02,121.21c0-7.85-6.37-14.22-14.22-14.22s-14.22,6.37-14.22,14.22,6.37,14.22,14.22,14.22,14.22-6.37,14.22-14.22"/>
          </g>
          <path class="cls-19" d="m130.77,149.5c0-4.57-3.7-8.27-8.27-8.27s-8.27,3.7-8.27,8.27,3.7,8.27,8.27,8.27,8.27-3.7,8.27-8.27"/>
          <path class="cls-19" d="m159.83,149.5c0-4.57-3.7-8.27-8.27-8.27s-8.27,3.7-8.27,8.27,3.7,8.27,8.27,8.27,8.27-3.7,8.27-8.27"/>
          <path class="cls-28" d="m136.98,159.12l.08-.14c5.35-10.04,19.75-10.06,25.1-.02,2.11,3.95,3.3,8.46,3.3,13.25v20.94c0,15.57-28.48-34.03-28.48-34.03"/>
          <path class="cls-28" d="m145.25,195.04c0-4.57-3.7-8.27-8.27-8.27s-8.27,3.7-8.27,8.27,3.7,8.27,8.27,8.27,8.27-3.7,8.27-8.27"/>
          <path class="cls-17" d="m165.46,78.84v24.94h-28.49v16.27c.01.14.02.28.03.42h.04c.38-7.51,6.6-13.48,14.2-13.48s13.82,5.97,14.2,13.48h.02v72.68h0v.03c0,1.93-.2,3.82-.57,5.64h20.63c-2.67-3.93-4.22-8.67-4.22-13.78v-87.22c0-9.45-6.81-17.42-15.84-18.98"/>
          <path class="cls-18" d="m165.46,120.47h-.02c.01.24.02.49.02.74v-.74Zm-28.42,0h-.04c.01.24.02.49.02.74,0,.39-.02.77-.05,1.15v6.8h0s2.21-.4,2.21-.4c-1.37-2.19-2.17-4.77-2.17-7.55,0-.25,0-.49.02-.74m28.42.74c0,.95-.09,1.88-.27,2.78l.27-.05v-2.73Zm0,12.01h-6.4c0,2.71-3.5,4.91-7.82,4.91s-7.82-2.2-7.82-4.91h-6.45v25.91h0s0,0,0,0l.08-.14c1.62-3.04,4.07-5.16,6.84-6.36-.39-.96-.61-2.02-.61-3.12,0-4.57,3.7-8.27,8.27-8.27s8.27,3.7,8.27,8.27c0,1.81-.58,3.48-1.56,4.84,1.54,1.18,2.88,2.72,3.89,4.62,2.09,3.92,3.29,8.4,3.3,13.15h0s0,.04,0,.05h0v.05-38.99Z"/>
          <path class="cls-18" d="m151.24,106.99c-7.61,0-13.82,5.97-14.2,13.48-.01.24-.02.49-.02.74,0,2.77.79,5.36,2.17,7.55l26-4.77c.18-.9.27-1.83.27-2.78,0-.25,0-.49-.02-.74-.38-7.51-6.6-13.48-14.2-13.48"/>
          <path class="cls-18" d="m136.98,120.05v2.31c.03-.38.05-.77.05-1.15,0-.25,0-.49-.02-.74,0-.14-.02-.28-.03-.42"/>
          <path class="cls-25" d="m151.56,141.23c-4.57,0-8.27,3.7-8.27,8.27,0,1.11.22,2.16.61,3.12,1.81-.79,3.77-1.18,5.72-1.18,3.06,0,6.12.96,8.64,2.9.98-1.36,1.56-3.03,1.56-4.84,0-4.57-3.7-8.27-8.27-8.27"/>
          <g>
            <path class="cls-28" d="m136.98,159.12l-.08-.14c-5.35-10.04-19.75-10.06-25.1-.02-2.11,3.95-3.3,8.46-3.3,13.25v20.94c0,15.57,28.48-34.03,28.48-34.03"/>
            <path class="cls-21" d="m136.98,167.39c4.57,0,8.27-3.7,8.27-8.27h-16.54c0,4.57,3.7,8.27,8.27,8.27"/>
            <path class="cls-30" d="m149.62,151.44c-1.95,0-3.91.39-5.72,1.18-2.78,1.2-5.22,3.32-6.84,6.36l-.08.14s0,0,0,0h8.26c0,3.03-1.63,5.67-4.05,7.11,6.51,10.76,18.68,29.94,22.83,29.94.9,0,1.43-.9,1.43-2.99v-.03h0v-20.98h0s0-.04,0-.06h0c-.02-4.76-1.21-9.24-3.3-13.16-1.01-1.9-2.35-3.44-3.89-4.62-2.52-1.93-5.58-2.9-8.64-2.9"/>
            <path class="cls-18" d="m145.25,159.12h-8.27v8.27h0c1.54,0,2.98-.42,4.22-1.16,2.43-1.44,4.05-4.09,4.05-7.11"/>
          </g>
          <path class="cls-30" d="m136.98,186.77h0v16.54h0c4.57,0,8.27-3.7,8.27-8.27s-3.7-8.27-8.27-8.27"/>
          <g>
            <polygon class="cls-24" points="165.46 35.81 163.5 41.05 164.96 44.95 158.34 69.01 151.72 44.91 153.16 41.05 151.2 35.81 149.23 41.05 150.71 44.98 144.1 69.01 137.48 44.94 138.95 41.05 136.98 35.81 135.01 41.05 136.47 44.95 129.86 69.01 123.23 44.9 124.67 41.05 122.71 35.81 120.74 41.05 122.22 44.99 115.62 69.01 109 44.95 110.46 41.05 108.5 35.81 108.5 46.29 108.5 71.76 108.5 72.8 108.5 95.31 165.46 95.31 165.46 72.8 165.46 43.11 165.46 35.81"/>
            <g class="cls-5">
              <rect class="cls-22" x="136.82" y="31.11" width="30.32" height="66.77"/>
            </g>
          </g>
          <path class="cls-23" d="m149.45,85.78c0-1.14-.92-2.07-2.07-2.07s-2.07.93-2.07,2.07.93,2.07,2.07,2.07,2.07-.92,2.07-2.07"/>
          <path class="cls-23" d="m159.86,85.78c0-1.14-.92-2.07-2.07-2.07s-2.07.93-2.07,2.07.93,2.07,2.07,2.07,2.07-.92,2.07-2.07"/>
          <path class="cls-29" d="m170.4,221.78v95.36h27.39v-95.36c0-16.07-6.39-30.64-16.77-41.32v4.59c0,5.11,1.56,9.85,4.22,13.78h-17.35c1.61,7.06,2.5,14.82,2.5,22.95Z"/>
          <polygon class="cls-13" points="165.46 133.22 136.98 133.22 108.5 133.22 108.5 128.58 108.5 123.94 136.98 129.16 165.46 123.94 165.46 128.58 165.46 133.22"/>
          <polygon class="cls-17" points="165.46 123.94 165.46 123.94 165.19 123.99 139.19 128.75 136.98 129.16 136.98 129.16 136.98 133.22 136.98 133.22 143.42 133.22 159.06 133.22 165.46 133.22 165.46 128.58 165.46 123.94"/>
          <g>
            <path class="cls-9" d="m122.8,138.13c4.32,0,7.82-2.2,7.82-4.91h-15.64c0,2.71,3.5,4.91,7.82,4.91"/>
            <g class="cls-4">
              <g>
                <circle class="cls-32" cx="123.13" cy="135.1" r="3.82"/>
                <circle class="cls-27" cx="123.13" cy="135.1" r="1.71"/>
                <circle class="cls-11" cx="124.31" cy="134.02" r=".85"/>
              </g>
            </g>
          </g>
          <g>
            <path class="cls-9" d="m151.24,138.13c4.32,0,7.82-2.2,7.82-4.91h-15.64c0,2.71,3.5,4.91,7.82,4.91"/>
            <g class="cls-2">
              <g>
                <circle class="cls-33" cx="151.57" cy="135.1" r="3.82"/>
                <circle class="cls-27" cx="151.57" cy="135.1" r="1.71"/>
                <circle class="cls-11" cx="152.75" cy="134.02" r=".85"/>
              </g>
            </g>
          </g>
          <circle class="cls-24" cx="136.62" cy="231.94" r="3.19"/>
          <circle class="cls-24" cx="136.62" cy="250.33" r="3.19"/>
          <circle class="cls-24" cx="136.62" cy="287.1" r="3.19"/>
          <circle class="cls-24" cx="136.62" cy="305.49" r="3.19"/>
          <rect class="cls-24" x="105.56" y="260.44" width="64.95" height="16.07"/>
          <path class="cls-21" d="m99.76,269.83c8.77-.18,15.83-7.35,15.83-16.16s-7.06-15.98-15.83-16.16v32.32Z"/>
          <path class="cls-18" d="m176.07,237.51h0c-2.74.06-5.32.79-7.56,2.05-.8.45-1.56.97-2.27,1.54-1.2.97-2.26,2.12-3.14,3.39h0c-.05.07-.09.14-.14.2-1.71,2.57-2.71,5.65-2.71,8.97,0,3.6,1.18,6.93,3.17,9.62h0c.35.48.73.94,1.14,1.37,2.88,3.11,6.97,5.08,11.52,5.17v-32.32Z"/>
          <circle class="cls-12" cx="136.62" cy="268.72" r="3.19"/>
          <g>
            <rect class="cls-12" x="108.48" y="95.22" width="56.99" height="8.59"/>
            <g class="cls-3">
              <rect class="cls-20" x="136.83" y="92.73" width="30.65" height="13.06"/>
            </g>
          </g>
          <g>
            <path class="cls-23" d="m128.64,85.78c0-1.14-.92-2.07-2.07-2.07s-2.07.92-2.07,2.07.92,2.07,2.07,2.07,2.07-.92,2.07-2.07"/>
            <path class="cls-23" d="m118.23,85.78c0-1.14-.92-2.07-2.07-2.07s-2.07.92-2.07,2.07.92,2.07,2.07,2.07,2.07-.92,2.07-2.07"/>
            <path class="cls-16" d="m147.38,83.71c-1.14,0-2.07.93-2.07,2.07s.93,2.07,2.07,2.07,2.07-.92,2.07-2.07-.92-2.07-2.07-2.07"/>
            <path class="cls-16" d="m157.79,83.71c-1.14,0-2.07.93-2.07,2.07s.93,2.07,2.07,2.07,2.07-.92,2.07-2.07-.92-2.07-2.07-2.07"/>
            <g>
              <circle class="cls-12" cx="136.97" cy="85.73" r="3.71"/>
              <g class="cls-1">
                <rect class="cls-20" x="136.84" y="79.48" width="6.63" height="12.31"/>
              </g>
            </g>
          </g>
        </g>
        <g>
          <path class="cls-14" d="m23.17,24.25c-.29.12-.62.29-1,.29-.62,0-1-.62-1-1.17,0-.58.42-.83,1.04-1.17l5.5-2.79c.58-.29,1.17-.54,1.83-.54,1.17,0,1.17.83,1.17,1.33v18.5c0,.75-.42,1.12-1.25,1.12-.88,0-1.29-.37-1.29-1.12v-17.04l-5,2.58Z"/>
          <path class="cls-14" d="m42.19,57.87h10.62c.75,0,1.12.38,1.12,1.12s-.38,1.12-1.12,1.12h-12.46c-.83,0-1.29-.42-1.29-1.21,0-.62.25-1.04,1.04-1.71,5.71-4.96,10.37-7.5,10.37-11.62,0-2.46-1.75-4.04-4.83-4.04-1.71,0-3.12.46-4.25,1.33-.71.54-.96.87-1.33.87-.58,0-1.08-.62-1.08-1.17,0-.5.54-1.08,1.12-1.5,1.42-1.12,3.33-1.75,5.67-1.75,4.25,0,7.25,2,7.25,6,0,5.25-5.29,8.08-10.83,12.54Z"/>
          <line class="cls-7" x1="43.79" y1="19.19" x2="26.62" y2="60.06"/>
        </g>
        <g>
          <path class="cls-14" d="m217.26,330.89c-.29.12-.62.29-1,.29-.62,0-1-.62-1-1.17,0-.58.42-.83,1.04-1.17l5.5-2.79c.58-.29,1.17-.54,1.83-.54,1.17,0,1.17.83,1.17,1.33v18.5c0,.75-.42,1.12-1.25,1.12-.88,0-1.29-.37-1.29-1.12v-17.04l-5,2.58Z"/>
          <path class="cls-14" d="m236.29,364.51h10.62c.75,0,1.12.38,1.12,1.12s-.38,1.12-1.12,1.12h-12.46c-.83,0-1.29-.42-1.29-1.21,0-.62.25-1.04,1.04-1.71,5.71-4.96,10.37-7.5,10.37-11.62,0-2.46-1.75-4.04-4.83-4.04-1.71,0-3.12.46-4.25,1.33-.71.54-.96.87-1.33.87-.58,0-1.08-.62-1.08-1.17,0-.5.54-1.08,1.12-1.5,1.42-1.12,3.33-1.75,5.67-1.75,4.25,0,7.25,2,7.25,6,0,5.25-5.29,8.08-10.83,12.54Z"/>
          <line class="cls-7" x1="237.89" y1="325.83" x2="220.72" y2="366.7"/>
        </g>
        <g>
          <circle class="cls-24" cx="115.19" cy="271.12" r="5.87"/>
          <path class="cls-26" d="m99.48,231.72h13.56v28.74c0,3.74-3.04,6.78-6.78,6.78h0c-3.74,0-6.78-3.04-6.78-6.78v-28.74h0Z" transform="translate(-87.11 59.38) rotate(-22.42)"/>
          <polygon class="cls-15" points="81.34 172.08 71.38 165.71 68.8 177.25 95.16 241.14 107.7 235.96 81.34 172.08"/>
          <rect class="cls-24" x="77.16" y="229.43" width="46.5" height="11.74" rx="5.87" ry="5.87" transform="translate(-82.15 56.08) rotate(-22.42)"/>
          <path class="cls-34" d="m81.34,172.08l22.82,55.32,10.08-4.16c3-1.24,6.43.19,7.66,3.19,1.24,3-.19,6.43-3.19,7.66l-9.8,4.04,7.8,18.91c1.28,3.09.09,6.58-2.64,8.31,2.69-.52,5.46.9,6.54,3.52,1.24,3-.19,6.43-3.19,7.66-.09.04-.19.07-.28.1l-45.77-110.94h0s9.96,6.37,9.96,6.37Z"/>
        </g>
        <g>
          <g>
            <circle class="cls-24" cx="231.92" cy="16.28" r="2.22"/>
            <path class="cls-26" d="m231.92,18.41h0c1.42,0,2.57,1.15,2.57,2.57v10.89h-5.14v-10.89c0-1.42,1.15-2.57,2.57-2.57Z"/>
            <polygon class="cls-15" points="234.37 55.85 231.81 59.52 229.24 55.85 229.24 29.67 234.37 29.67 234.37 55.85"/>
            <rect class="cls-24" x="223.11" y="28.73" width="17.62" height="4.45" rx="2.22" ry="2.22"/>
            <path class="cls-34" d="m234.38,55.85v-22.67h4.13c1.23,0,2.22-1,2.22-2.22s-1-2.22-2.22-2.22h-4.02v-7.75c0-1.27-.92-2.32-2.13-2.53,1.02-.21,1.78-1.1,1.78-2.18,0-1.23-1-2.22-2.22-2.22-.04,0-.08,0-.11,0v45.46h0s2.57-3.67,2.57-3.67Z"/>
          </g>
          <g>
            <circle class="cls-24" cx="37.82" cy="364.09" r="2.22"/>
            <path class="cls-26" d="m35.25,348.5h5.14v10.89c0,1.42-1.15,2.57-2.57,2.57h0c-1.42,0-2.57-1.15-2.57-2.57v-10.89h0Z"/>
            <polygon class="cls-15" points="40.28 324.52 37.71 320.85 35.14 324.52 35.14 350.7 40.28 350.7 40.28 324.52"/>
            <rect class="cls-24" x="29.01" y="347.19" width="17.62" height="4.45" rx="2.22" ry="2.22"/>
            <path class="cls-34" d="m40.28,324.52v22.67s4.13,0,4.13,0c1.23,0,2.22,1,2.22,2.22,0,1.23-1,2.22-2.22,2.22h-4.02s0,7.75,0,7.75c0,1.27-.92,2.32-2.13,2.53,1.02.21,1.78,1.1,1.78,2.18s-1,2.22-2.22,2.22c-.04,0-.08,0-.11,0v-45.46h0s2.57,3.67,2.57,3.67Z"/>
          </g>
        </g>
      </g>
    </g>
  </g>
</svg>