<?xml version="1.0" encoding="UTF-8"?>
<svg id="Capa_2" data-name="Capa 2" xmlns="http://www.w3.org/2000/svg" xmlns:xlink="http://www.w3.org/1999/xlink" viewBox="0 0 404.78 433.34">
  <defs>
    <style>
      .cls-1 {
        clip-path: url(#clippath-2);
      }

      .cls-1, .cls-2, .cls-3, .cls-4 {
        fill: none;
      }

      .cls-2 {
        clip-path: url(#clippath-1);
      }

      .cls-5 {
        fill: #fff;
      }

      .cls-6 {
        fill: #e5332a;
      }

      .cls-7 {
        fill: #c37b2f;
      }

      .cls-8 {
        fill: #ae2423;
      }

      .cls-9 {
        fill: #d38836;
      }

      .cls-10 {
        fill: #c79740;
      }

      .cls-11 {
        fill: #daac4f;
      }

      .cls-3 {
        stroke: #d38836;
        stroke-linecap: round;
        stroke-miterlimit: 10;
        stroke-width: 10px;
      }

      .cls-4 {
        clip-path: url(#clippath);
      }
    </style>
    <clipPath id="clippath">
      <polygon class="cls-11" points="404.78 230.19 400.81 236.06 401.46 241.28 386.22 268.93 385.18 237.33 388.1 233.01 387.23 225.98 383.27 231.85 383.92 237.12 368.71 264.73 367.67 233.17 370.61 228.82 369.74 221.79 365.78 227.66 366.43 232.88 351.19 260.52 350.15 228.91 353.06 224.6 352.19 217.58 348.23 223.44 348.88 228.73 333.67 256.32 332.64 224.77 335.58 220.41 334.71 213.38 331.62 226.28 324.1 257.6 323.8 258.88 317.15 286.57 387.22 303.38 393.86 275.69 402.62 239.17 404.78 230.19"/>
    </clipPath>
    <clipPath id="clippath-1">
      <rect class="cls-6" x="314.9" y="294.71" width="72.08" height="10.87" transform="translate(79.7 -73.58) rotate(13.49)"/>
    </clipPath>
    <clipPath id="clippath-2">
      <circle class="cls-6" cx="355" cy="283.19" r="4.69"/>
    </clipPath>
  </defs>
  <g id="Capa_1-2" data-name="Capa 1">
    <g>
      <g>
        <path class="cls-5" d="m178.09,422.22c-2.53,0-4.92-.62-6.55-1.58-1.39-.81-1.39-1.72-1.39-2.68v-27.64c0-.86.48-1.29,1.48-1.29s1.43.43,1.43,1.29v12.19c1.58-1.34,3.54-1.96,5.88-1.96,5.83,0,9.75,4.06,9.75,10.66s-4.16,11-10.62,11Zm0-2.44c4.69,0,7.56-3.25,7.56-8.42,0-4.88-2.63-8.37-7.27-8.37-2.01,0-3.78.62-5.31,1.91v13.44c1.29.91,3.16,1.43,5.02,1.43Z"/>
        <path class="cls-5" d="m211.08,401.7c0,.48-.14,1.24-.38,2.06-2.1,8.37-7.46,20.32-13.25,26.49-.76.81-1.24,1.24-1.86,1.24-.72,0-1.53-.62-1.53-1.39,0-.53.53-1,1-1.48,2.15-2.1,4.21-5.07,5.21-6.89l-8.13-19.03c-.14-.38-.33-.77-.33-1.15,0-.48.33-.86,1.34-.86,1.1,0,1.48.33,1.91,1.39l6.98,16.79c2.06-3.87,4.83-10.76,6.07-16.4.24-1.1.43-1.77,1.67-1.77,1,0,1.29.38,1.29,1Z"/>
        <path class="cls-5" d="m244.84,415.57c-.43,1-.96,1.43-1.82,1.43-.91,0-1.43-.43-1.87-1.43l-9.95-21.14-1.87,26.35c-.1.86-.57,1.29-1.48,1.29-.96,0-1.43-.43-1.34-1.29l2.15-28.36c.1-1.29.57-1.96,1.96-1.96,1.2,0,1.91.53,2.44,1.86l9.99,21.14,10-21.14c.53-1.24,1.15-1.86,2.44-1.86,1.39,0,1.82.67,1.91,1.96l2.15,28.36c.1.86-.38,1.29-1.34,1.29s-1.43-.43-1.53-1.29l-1.91-26.35-9.95,21.14Z"/>
        <path class="cls-5" d="m267.98,395.49c-1.2,0-2.06-.86-2.06-2.06s.86-2.06,2.06-2.06,2.06.86,2.06,2.06-.86,2.06-2.06,2.06Zm1.43,25.3c0,.86-.48,1.29-1.43,1.29-1,0-1.48-.43-1.48-1.29v-18.79c0-.86.48-1.29,1.48-1.29s1.43.43,1.43,1.29v18.79Z"/>
        <path class="cls-5" d="m285.86,400.51c2.73,0,5.4.86,6.55,1.58,1.39.86,1.39,1.72,1.39,2.73v25.35c0,.86-.48,1.29-1.44,1.29-1,0-1.48-.43-1.48-1.29v-9.9c-1.58,1.29-3.54,1.96-5.83,1.96-5.88,0-9.8-4.11-9.8-10.66s4.16-11.05,10.62-11.05Zm0,2.44c-4.69,0-7.56,3.3-7.56,8.42s2.63,8.42,7.27,8.42c2.01,0,3.83-.67,5.31-1.91v-13.49c-1.29-.91-3.16-1.43-5.02-1.43Z"/>
        <path class="cls-5" d="m313.59,419.25h12.19c.86,0,1.29.43,1.29,1.29s-.43,1.29-1.29,1.29h-14.3c-.96,0-1.48-.48-1.48-1.39,0-.72.29-1.2,1.2-1.96,6.55-5.69,11.91-8.61,11.91-13.34,0-2.82-2.01-4.64-5.55-4.64-1.96,0-3.59.53-4.88,1.53-.81.62-1.1,1-1.53,1-.67,0-1.24-.72-1.24-1.34,0-.57.62-1.24,1.29-1.72,1.63-1.29,3.83-2.01,6.5-2.01,4.88,0,8.32,2.3,8.32,6.89,0,6.03-6.07,9.28-12.43,14.39Z"/>
        <path class="cls-5" d="m340.95,397.88c6.17,0,9.95,4.73,9.95,12.24s-3.78,12.19-9.95,12.19-10-4.73-10-12.19,3.78-12.24,10-12.24Zm0,21.9c4.35,0,6.98-3.73,6.98-9.66s-2.63-9.71-6.98-9.71-7.08,3.78-7.08,9.71,2.68,9.66,7.08,9.66Z"/>
        <path class="cls-5" d="m358.64,419.25h12.19c.86,0,1.29.43,1.29,1.29s-.43,1.29-1.29,1.29h-14.3c-.96,0-1.48-.48-1.48-1.39,0-.72.29-1.2,1.2-1.96,6.55-5.69,11.91-8.61,11.91-13.34,0-2.82-2.01-4.64-5.55-4.64-1.96,0-3.59.53-4.88,1.53-.81.62-1.1,1-1.53,1-.67,0-1.24-.72-1.24-1.34,0-.57.62-1.24,1.29-1.72,1.63-1.29,3.83-2.01,6.5-2.01,4.88,0,8.32,2.3,8.32,6.89,0,6.03-6.07,9.28-12.43,14.39Z"/>
        <path class="cls-5" d="m395.31,416.48c.86,0,1.29.43,1.29,1.24s-.43,1.24-1.29,1.24h-3.92v5.36c0,.86-.48,1.29-1.39,1.29-.96,0-1.43-.43-1.43-1.29v-5.36h-12.19c-.67,0-1.43-.19-1.43-1.39,0-.72.29-1.24.77-1.91l11.81-16.16c.72-.96,1.29-1.48,2.39-1.48s1.48.43,1.48,1.29v17.17h3.92Zm-6.7-14.44l-10.47,14.49h10.47v-14.49Z"/>
      </g>
      <line class="cls-3" x1="187.7" y1="273.91" x2="125.44" y2="428.34"/>
      <g>
        <path class="cls-5" d="m12.58,294.73v5.9c3.45-5.75,10.64-10.21,20.71-10.21s16.68,4.75,19.56,12.66c3.74-7.48,11.65-12.66,22.15-12.66,8.05,0,13.95,3.02,17.4,8.05,2.73,4.03,4.17,9.64,4.17,17.12v35.67c0,2.59-1.44,3.88-4.31,3.88-3.02,0-4.46-1.29-4.46-3.88v-34.37c0-4.75-.72-9.64-3.31-13.23-2.44-3.74-6.62-5.47-12.22-5.47-8.2,0-14.24,4.03-17.55,9.78v43.29c0,2.59-1.44,3.88-4.31,3.88-3.02,0-4.46-1.29-4.46-3.88v-35.67c0-4.75-1.01-8.92-3.02-11.94-2.59-3.6-6.9-5.47-12.37-5.47-8.2,0-14.38,4.17-17.55,9.78v43.29c0,2.59-1.44,3.88-4.32,3.88-3.02,0-4.46-1.29-4.46-3.88v-56.52c0-2.59,1.29-3.88,4.32-3.88s4.17,1.44,4.03,3.88Z"/>
        <path class="cls-5" d="m141.19,346.87c-13.21-.4-19.97-9.49-20.82-23.14h30.54l2.84-6.76h-33.23c1.29-12.8,8.05-21,19.13-21,9.06,0,15.01,5.49,17.05,13.99l4.45-10.6c-4.55-6.47-11.93-10.44-21.35-10.44-17.12,0-28.19,13.09-28.19,32.94,0,18.77,9.75,30.91,26.45,32.47l3.14-7.47Z"/>
      </g>
      <path class="cls-5" d="m235.23,299.79c6.6,0,12.31,1.65,16.96,4.95v-37.07c0-2.7,1.5-4.05,4.65-4.05s4.5,1.35,4.5,4.05v95.6c0,2.85-1.5,4.05-4.35,4.05-3,0-4.2-1.2-4.2-3.45v-4.2c-5.25,5.4-11.86,8.1-19.81,8.1-17.41,0-29.86-13.21-29.86-33.62s12.91-34.37,32.12-34.37Zm.9,7.65c-14.26,0-23.41,10.05-23.41,26.26s9,26.41,22.36,26.41c6.45,0,12.16-2.4,17.11-6.9v-40.22c-4.65-3.75-10.05-5.55-16.06-5.55Z"/>
      <path class="cls-5" d="m289.4,283.89c-3.75,0-6.45-2.7-6.45-6.45s2.7-6.45,6.45-6.45,6.45,2.7,6.45,6.45-2.7,6.45-6.45,6.45Zm4.5,79.39c0,2.7-1.5,4.05-4.5,4.05-3.15,0-4.65-1.35-4.65-4.05v-58.98c0-2.7,1.5-4.05,4.65-4.05s4.5,1.35,4.5,4.05v58.98Z"/>
      <path class="cls-5" d="m344.18,299.49c19.36,0,31.67,13.36,31.67,34.22s-12.46,34.37-31.82,34.37-31.82-13.51-31.82-34.22,12.61-34.37,31.97-34.37Zm0,60.93c13.51,0,22.06-10.35,22.06-26.56s-8.7-26.86-22.21-26.86-22.06,10.51-22.06,26.71,8.55,26.71,22.21,26.71Z"/>
      <path class="cls-5" d="m184.1,352.62c-1.5-.05-2.74,1.26-5.2,2.83-1.8,1.28-3.77,2.19-5.81,2.83l-4.09,8.91c5.52-.6,10.4-2.38,14.65-5.27,2.61-1.72,4.17-3.46,4.22-4.97.06-1.95-1.36-4.25-3.76-4.33Z"/>
      <path class="cls-5" d="m183.36,335.93h.09c4.35.15,6.32-.54,6.54-6.99.08-2.29-.06-4.51-.37-6.63l-6.26,13.61Z"/>
      <g>
        <path class="cls-5" d="m3,31.11C3,12.18,18.18,0,41.05,0c10.87,0,20.06,2.62,28.3,7.87,4.12,2.62,6,4.69,6,6.94,0,2.44-2.25,5.62-5.06,5.62-1.69,0-3.94-1.87-6.37-3.37-7.12-4.31-14.06-6.75-23.05-6.75-16.31,0-26.24,8.25-26.24,20.06,0,29.05,63.35,21.56,63.35,61.85,0,21.56-17.99,34.11-41.05,34.11-12.56,0-23.05-3.75-31.3-9.93-3.56-2.62-5.62-5.06-5.62-7.12,0-2.62,2.44-5.62,5.25-5.62,1.87,0,3,1.31,7.12,4.12,7.12,5.06,14.81,8.25,24.74,8.25,16.5,0,29.05-9,29.05-23.05,0-31.68-63.17-23.8-63.17-61.85Z"/>
        <path class="cls-5" d="m112.65,119.96c0,3.37-1.87,5.06-5.62,5.06-3.94,0-5.81-1.69-5.81-5.06V6.37c0-3.37,1.87-5.06,5.81-5.06s5.62,1.69,5.62,5.06v113.59Z"/>
        <path class="cls-5" d="m198.49,55.48c3.37,0,5.06,1.69,5.06,5.06s-1.69,5.06-5.06,5.06h-44.99v48.17h53.98c3.37,0,5.06,1.69,5.06,5.06,0,3.56-1.69,5.25-5.06,5.25h-59.04c-4.31,0-6.19-1.87-6.19-6.19V8.43c0-4.31,1.87-6.19,6.19-6.19h57.17c3.37,0,5.06,1.69,5.06,5.06,0,3.56-1.69,5.25-5.06,5.25h-52.11v42.92h44.99Z"/>
        <path class="cls-9" d="m230.35,12.75c-3.37,0-5.06-1.69-5.06-5.25s1.69-5.25,5.06-5.25h67.85c3.56,0,5.44,1.69,5.44,5.06,0,2.25-.75,4.31-1.87,6.75l-43.49,104.78c-1.5,3.75-2.62,6.19-7.68,6.19-3.94,0-5.44-1.31-5.44-3.37,0-1.5.75-3.19,1.5-5.06l44.24-103.84h-60.54Z"/>
        <path class="cls-5" d="m382.74,55.48c3.37,0,5.06,1.69,5.06,5.06s-1.69,5.06-5.06,5.06h-44.99v48.17h53.98c3.37,0,5.06,1.69,5.06,5.06,0,3.56-1.69,5.25-5.06,5.25h-59.04c-4.31,0-6.19-1.87-6.19-6.19V8.43c0-4.31,1.88-6.19,6.19-6.19h57.17c3.37,0,5.06,1.69,5.06,5.06,0,3.56-1.69,5.25-5.06,5.25h-52.11v42.92h44.99Z"/>
      </g>
      <g>
        <circle class="cls-8" cx="213.71" cy="198.23" r="56.69"/>
        <path class="cls-5" d="m241.52,226.28c0,.94-1.03,1.51-3.01,1.51-2.17,0-3.29-.56-4.52-1.98l-6.97-7.53c-5.18,5.84-11.29,9.79-19.58,9.79-10.54,0-16.47-6.31-16.47-14.5,0-8.66,6.68-13.84,13.65-18.45-4.61-5.08-8.38-10.17-8.38-16.47,0-8.28,6.31-13.37,14.87-13.37s14.87,5.37,14.87,13.08-6.59,12.9-13.46,17.41l13.74,14.78c1.98-2.82,4.99-8.19,7.34-13.27.56-1.22,1.13-1.79,2.17-1.79,1.51,0,3.11,1.04,3.11,2.54,0,1.88-4.89,10.64-8.47,15.81l9.13,9.41c1.04,1.13,1.98,2.07,1.98,3.01Zm-18.45-11.48l-15.06-16c-5.84,3.95-10.92,8.19-10.92,14.5,0,5.84,4.14,9.7,10.73,9.7,5.37,0,10.26-2.45,15.25-8.19Zm-13.84-22.59c5.93-3.86,11.11-7.72,11.11-13.46,0-4.99-3.76-8.66-9.32-8.66-4.89,0-8.94,2.73-8.94,8.47,0,5.08,3.29,9.41,7.15,13.65Z"/>
      </g>
      <g>
        <g>
          <polygon class="cls-11" points="404.78 230.19 400.81 236.06 401.46 241.28 386.22 268.93 385.18 237.33 388.1 233.01 387.23 225.98 383.27 231.85 383.92 237.12 368.71 264.73 367.67 233.17 370.61 228.82 369.74 221.79 365.78 227.66 366.43 232.88 351.19 260.52 350.15 228.91 353.06 224.6 352.19 217.58 348.23 223.44 348.88 228.73 333.67 256.32 332.64 224.77 335.58 220.41 334.71 213.38 331.62 226.28 324.1 257.6 323.8 258.88 317.15 286.57 387.22 303.38 393.86 275.69 402.62 239.17 404.78 230.19"/>
          <g class="cls-4">
            <rect class="cls-9" x="360.56" y="219.27" width="38.35" height="84.45" transform="translate(71.48 -81.37) rotate(13.49)"/>
          </g>
        </g>
        <path class="cls-10" d="m370.34,286.93c.34-1.4-.53-2.81-1.93-3.15s-2.81.53-3.15,1.93.53,2.81,1.93,3.15,2.81-.53,3.15-1.93"/>
        <path class="cls-10" d="m383.14,290c.34-1.4-.53-2.81-1.93-3.15s-2.81.53-3.15,1.93c-.34,1.4.53,2.81,1.93,3.15s2.81-.53,3.15-1.93"/>
        <g>
          <rect class="cls-6" x="314.9" y="294.71" width="72.08" height="10.87" transform="translate(79.7 -73.58) rotate(13.49)"/>
          <g class="cls-2">
            <rect class="cls-8" x="350.3" y="296.05" width="38.77" height="16.51" transform="translate(81.19 -77.84) rotate(13.49)"/>
          </g>
        </g>
        <path class="cls-10" d="m344.74,280.79c.34-1.4-.53-2.81-1.93-3.15s-2.81.53-3.15,1.93.53,2.81,1.93,3.15,2.81-.53,3.15-1.93"/>
        <path class="cls-10" d="m331.94,277.72c.34-1.4-.53-2.81-1.93-3.15s-2.81.53-3.15,1.93.53,2.81,1.93,3.15,2.81-.53,3.15-1.93"/>
        <path class="cls-7" d="m368.41,283.78c-1.4-.34-2.81.53-3.15,1.93s.53,2.81,1.93,3.15,2.81-.53,3.15-1.93-.53-2.81-1.93-3.15"/>
        <path class="cls-7" d="m381.21,286.85c-1.4-.34-2.81.53-3.15,1.93s.53,2.81,1.93,3.15,2.81-.53,3.15-1.93-.53-2.81-1.93-3.15"/>
        <g>
          <circle class="cls-6" cx="355" cy="283.19" r="4.69"/>
          <g class="cls-1">
            <rect class="cls-8" x="354.75" y="276.22" width="8.38" height="15.58" transform="translate(76.15 -75.9) rotate(13.49)"/>
          </g>
        </g>
      </g>
    </g>
  </g>
</svg>