<?xml version="1.0" encoding="UTF-8"?>
<svg id="Capa_2" data-name="Capa 2" xmlns="http://www.w3.org/2000/svg" xmlns:xlink="http://www.w3.org/1999/xlink" viewBox="0 0 408.89 545.04">
  <defs>
    <style>
      .cls-1 {
        clip-path: url(#clippath-2);
      }

      .cls-1, .cls-2, .cls-3 {
        fill: none;
      }

      .cls-2 {
        clip-path: url(#clippath-1);
      }

      .cls-4 {
        fill: #fff;
      }

      .cls-5 {
        fill: #e5332a;
      }

      .cls-6 {
        fill: #c37b2f;
      }

      .cls-7 {
        fill: #ae2423;
      }

      .cls-8 {
        fill: #d38836;
      }

      .cls-9 {
        fill: #c79740;
      }

      .cls-10 {
        fill: #daac4f;
      }

      .cls-3 {
        clip-path: url(#clippath);
      }
    </style>
    <clipPath id="clippath">
      <polygon class="cls-10" points="223.18 0 219.8 9.01 222.31 15.7 210.94 57.06 199.55 15.64 202.04 9.01 198.66 0 195.29 9.01 197.82 15.76 186.47 57.06 175.1 15.7 177.61 9.01 174.23 0 170.85 9.01 173.36 15.7 161.99 57.06 150.6 15.62 153.08 9.01 149.7 0 146.32 9.01 148.86 15.78 137.52 57.06 126.15 15.7 128.66 9.01 125.28 0 125.28 18.01 125.28 61.78 125.28 63.56 125.28 102.26 223.18 102.26 223.18 63.56 223.18 12.54 223.18 0"/>
    </clipPath>
    <clipPath id="clippath-1">
      <rect class="cls-5" x="125.25" y="102.1" width="97.94" height="14.77"/>
    </clipPath>
    <clipPath id="clippath-2">
      <circle class="cls-5" cx="174.22" cy="85.8" r="6.38"/>
    </clipPath>
  </defs>
  <g id="Capa_1-2" data-name="Capa 1">
    <g>
      <g>
        <path class="cls-4" d="m22.11,533.27c-3.22,0-6.25-.79-8.31-2-1.76-1.03-1.76-2.18-1.76-3.4v-35.08c0-1.09.61-1.64,1.88-1.64s1.82.55,1.82,1.64v15.47c2-1.7,4.49-2.49,7.46-2.49,7.4,0,12.38,5.16,12.38,13.53s-5.28,13.96-13.47,13.96Zm0-3.09c5.95,0,9.59-4.13,9.59-10.68,0-6.19-3.34-10.62-9.22-10.62-2.55,0-4.79.79-6.74,2.43v17.05c1.64,1.15,4,1.82,6.37,1.82Z"/>
        <path class="cls-4" d="m63.99,507.24c0,.61-.18,1.58-.49,2.61-2.67,10.62-9.47,25.79-16.81,33.62-.97,1.03-1.58,1.58-2.37,1.58-.91,0-1.94-.79-1.94-1.76,0-.67.67-1.27,1.27-1.88,2.73-2.67,5.34-6.43,6.61-8.74l-10.32-24.15c-.18-.49-.42-.97-.42-1.46,0-.61.42-1.09,1.7-1.09,1.4,0,1.88.42,2.43,1.76l8.86,21.3c2.61-4.92,6.13-13.65,7.71-20.81.3-1.4.55-2.25,2.12-2.25,1.27,0,1.64.49,1.64,1.27Z"/>
        <path class="cls-4" d="m106.83,524.83c-.55,1.27-1.21,1.82-2.31,1.82-1.15,0-1.82-.55-2.37-1.82l-12.62-26.82-2.37,33.44c-.12,1.09-.73,1.64-1.88,1.64-1.21,0-1.82-.55-1.7-1.64l2.73-35.99c.12-1.64.73-2.49,2.49-2.49,1.52,0,2.43.67,3.09,2.37l12.68,26.82,12.68-26.82c.67-1.58,1.46-2.37,3.1-2.37,1.76,0,2.31.85,2.43,2.49l2.73,35.99c.12,1.09-.49,1.64-1.7,1.64s-1.82-.55-1.94-1.64l-2.43-33.44-12.62,26.82Z"/>
        <path class="cls-4" d="m136.21,499.35c-1.52,0-2.61-1.09-2.61-2.61s1.09-2.61,2.61-2.61,2.61,1.09,2.61,2.61-1.09,2.61-2.61,2.61Zm1.82,32.1c0,1.09-.61,1.64-1.82,1.64-1.27,0-1.88-.55-1.88-1.64v-23.85c0-1.09.61-1.64,1.88-1.64s1.82.55,1.82,1.64v23.85Z"/>
        <path class="cls-4" d="m158.91,505.72c3.46,0,6.86,1.09,8.31,2,1.76,1.09,1.76,2.18,1.76,3.46v32.16c0,1.09-.61,1.64-1.82,1.64-1.27,0-1.88-.55-1.88-1.64v-12.56c-2,1.64-4.49,2.49-7.4,2.49-7.46,0-12.44-5.22-12.44-13.53s5.28-14.02,13.47-14.02Zm0,3.09c-5.95,0-9.59,4.19-9.59,10.68s3.34,10.68,9.22,10.68c2.55,0,4.85-.85,6.74-2.43v-17.11c-1.64-1.15-4-1.82-6.37-1.82Z"/>
        <path class="cls-4" d="m194.11,529.51h15.47c1.09,0,1.64.55,1.64,1.64s-.55,1.64-1.64,1.64h-18.14c-1.21,0-1.88-.61-1.88-1.76,0-.91.36-1.52,1.52-2.49,8.31-7.22,15.11-10.92,15.11-16.93,0-3.58-2.55-5.89-7.04-5.89-2.49,0-4.55.67-6.19,1.94-1.03.79-1.4,1.27-1.94,1.27-.85,0-1.58-.91-1.58-1.7,0-.73.79-1.58,1.64-2.18,2.06-1.64,4.85-2.55,8.25-2.55,6.19,0,10.56,2.91,10.56,8.74,0,7.65-7.71,11.77-15.78,18.27Z"/>
        <path class="cls-4" d="m228.82,502.38c7.83,0,12.62,6.01,12.62,15.54s-4.79,15.47-12.62,15.47-12.68-6.01-12.68-15.47,4.79-15.54,12.68-15.54Zm0,27.79c5.52,0,8.86-4.73,8.86-12.26s-3.34-12.32-8.86-12.32-8.98,4.79-8.98,12.32,3.4,12.26,8.98,12.26Z"/>
        <path class="cls-4" d="m251.28,529.51h15.47c1.09,0,1.64.55,1.64,1.64s-.55,1.64-1.64,1.64h-18.14c-1.21,0-1.88-.61-1.88-1.76,0-.91.36-1.52,1.52-2.49,8.31-7.22,15.11-10.92,15.11-16.93,0-3.58-2.55-5.89-7.04-5.89-2.49,0-4.55.67-6.19,1.94-1.03.79-1.4,1.27-1.94,1.27-.85,0-1.58-.91-1.58-1.7,0-.73.79-1.58,1.64-2.18,2.06-1.64,4.85-2.55,8.25-2.55,6.19,0,10.56,2.91,10.56,8.74,0,7.65-7.71,11.77-15.78,18.27Z"/>
        <path class="cls-4" d="m297.82,525.99c1.09,0,1.64.55,1.64,1.58s-.55,1.58-1.64,1.58h-4.98v6.8c0,1.09-.61,1.64-1.76,1.64-1.21,0-1.82-.55-1.82-1.64v-6.8h-15.47c-.85,0-1.82-.24-1.82-1.76,0-.91.36-1.58.97-2.43l14.99-20.51c.91-1.21,1.64-1.88,3.03-1.88s1.88.55,1.88,1.64v21.79h4.98Zm-8.5-18.33l-13.29,18.39h13.29v-18.39Z"/>
      </g>
      <g>
        <path class="cls-4" d="m3.91,184.23c0-24.69,19.8-40.58,49.63-40.58,14.18,0,26.16,3.42,36.92,10.27,5.38,3.42,7.82,6.11,7.82,9.05,0,3.18-2.93,7.33-6.6,7.33-2.2,0-5.13-2.44-8.31-4.4-9.29-5.62-18.33-8.8-30.07-8.8-21.27,0-34.23,10.76-34.23,26.16,0,37.89,82.63,28.11,82.63,80.68,0,28.11-23.47,44.49-53.54,44.49-16.38,0-30.07-4.89-40.83-12.96-4.64-3.42-7.33-6.6-7.33-9.29,0-3.42,3.18-7.33,6.85-7.33,2.44,0,3.91,1.71,9.29,5.38,9.29,6.6,19.31,10.76,32.27,10.76,21.51,0,37.89-11.73,37.89-30.07,0-41.32-82.39-31.05-82.39-80.68Z"/>
        <path class="cls-4" d="m205.36,216.01c4.4,0,6.6,2.2,6.6,6.6s-2.2,6.6-6.6,6.6h-58.67v62.83h70.41c4.4,0,6.6,2.2,6.6,6.6,0,4.65-2.2,6.85-6.6,6.85h-77.01c-5.62,0-8.07-2.44-8.07-8.07v-142.77c0-5.62,2.45-8.07,8.07-8.07h74.56c4.4,0,6.6,2.2,6.6,6.6,0,4.65-2.2,6.85-6.6,6.85h-67.96v55.99h58.67Z"/>
        <path class="cls-8" d="m246.92,160.27c-4.4,0-6.6-2.2-6.6-6.85s2.2-6.85,6.6-6.85h88.5c4.64,0,7.09,2.2,7.09,6.6,0,2.93-.98,5.62-2.45,8.8l-56.72,136.66c-1.96,4.89-3.42,8.07-10.02,8.07-5.13,0-7.09-1.71-7.09-4.4,0-1.96.98-4.16,1.96-6.6l57.7-135.44h-78.97Z"/>
      </g>
      <path class="cls-8" d="m338.6,278.21c3.28-.44,8.75-.66,11.15-.66,30.18,0,49.64,15.09,49.64,38.92s-17.93,38.27-43.73,38.27c-11.81,0-21.87-3.28-29.08-8.53-3.28-2.41-5.68-4.81-5.68-7.22,0-2.62,2.62-6.12,5.9-6.12,1.97,0,3.5,1.31,6.78,3.5,6.56,4.59,13.78,6.78,21.87,6.78,17.93,0,30.39-10.06,30.39-26.24s-13.99-28.21-37.83-28.21c-5.47,0-11.59.44-14.21.44-6.12,0-7.65-2.41-7.22-8.53l2.41-43.51c.22-5.03,2.62-7.22,7.65-7.22h50.73c3.94,0,5.9,1.97,5.9,5.9s-1.97,5.9-5.9,5.9h-46.79l-1.97,36.52Z"/>
      <g>
        <path class="cls-4" d="m17.25,350.75c-5.38,0-9.25-3.87-9.25-9.25s3.87-9.25,9.25-9.25,9.25,3.87,9.25,9.25-3.87,9.25-9.25,9.25Zm6.46,113.84c0,3.87-2.15,5.81-6.46,5.81-4.52,0-6.67-1.94-6.67-5.81v-84.57c0-3.87,2.15-5.81,6.67-5.81s6.46,1.94,6.46,5.81v84.57Z"/>
        <path class="cls-4" d="m184.88,441.13c-1.94,4.52-4.3,6.46-8.18,6.46-4.09,0-6.46-1.94-8.39-6.46l-44.76-95.12-8.39,118.57c-.43,3.87-2.58,5.81-6.67,5.81-4.3,0-6.46-1.94-6.03-5.81l9.68-127.61c.43-5.81,2.58-8.82,8.82-8.82,5.38,0,8.61,2.37,10.97,8.39l44.98,95.12,44.98-95.12c2.37-5.6,5.16-8.39,10.97-8.39,6.24,0,8.18,3.01,8.61,8.82l9.68,127.61c.43,3.87-1.72,5.81-6.03,5.81s-6.46-1.94-6.89-5.81l-8.61-118.57-44.76,95.12Z"/>
        <path class="cls-4" d="m289.03,350.75c-5.38,0-9.25-3.87-9.25-9.25s3.87-9.25,9.25-9.25,9.25,3.87,9.25,9.25-3.87,9.25-9.25,9.25Zm6.46,113.84c0,3.87-2.15,5.81-6.46,5.81-4.52,0-6.67-1.94-6.67-5.81v-84.57c0-3.87,2.15-5.81,6.67-5.81s6.46,1.94,6.46,5.81v84.57Z"/>
        <path class="cls-4" d="m403.51,387.33h-13.77c3.23,4.95,5.17,10.97,5.17,17.65,0,18.72-14.2,31.63-35.08,31.63-4.52,0-9.04-.65-12.91-1.94-3.01,3.23-4.52,6.24-4.52,9.9,0,7.75,6.46,10.33,18.08,10.76,17,.65,26.25,1.72,34,6.03,7.53,4.3,11.19,10.97,11.19,20.23,0,19.15-15.49,31.42-44.12,31.42s-42.61-12.7-42.61-27.54c0-10.11,6.24-18.51,18.08-24.53-4.52-3.44-6.89-8.39-6.89-13.56,0-6.46,3.01-11.62,9.25-16.14-9.25-5.38-14.63-14.63-14.63-26.25,0-18.51,14.42-31.63,35.08-31.63,8.18,0,15.49,2.15,21.3,5.81,7.75-1.94,15.06-3.23,21.3-3.23,4.73,0,6.46,1.72,6.46,5.6s-1.94,5.81-5.38,5.81Zm-57.03,77.47c-9.04,4.95-13.56,11.62-13.56,19.37,0,10.97,9.04,18.72,28.62,18.72,20.66,0,30.56-8.39,30.56-20.23,0-12.7-9.25-15.06-30.77-16.35-7.1-.43-12.05-.86-14.85-1.51Zm35.51-59.82c0-12.7-9.04-21.52-22.17-21.52s-21.95,8.82-21.95,21.52,9.04,21.52,21.95,21.52,22.17-8.82,22.17-21.52Z"/>
      </g>
      <g>
        <g>
          <polygon class="cls-10" points="223.18 0 219.8 9.01 222.31 15.7 210.94 57.06 199.55 15.64 202.04 9.01 198.66 0 195.29 9.01 197.82 15.76 186.47 57.06 175.1 15.7 177.61 9.01 174.23 0 170.85 9.01 173.36 15.7 161.99 57.06 150.6 15.62 153.08 9.01 149.7 0 146.32 9.01 148.86 15.78 137.52 57.06 126.15 15.7 128.66 9.01 125.28 0 125.28 18.01 125.28 61.78 125.28 63.56 125.28 102.26 223.18 102.26 223.18 63.56 223.18 12.54 223.18 0"/>
          <g class="cls-3">
            <rect class="cls-8" x="173.95" y="-8.08" width="52.11" height="114.74"/>
          </g>
        </g>
        <path class="cls-9" d="m195.66,85.87c0-1.96-1.59-3.55-3.55-3.55-1.96,0-3.55,1.59-3.55,3.55,0,1.96,1.59,3.55,3.55,3.55,1.96,0,3.55-1.59,3.55-3.55"/>
        <path class="cls-9" d="m213.54,85.87c0-1.96-1.59-3.55-3.55-3.55-1.96,0-3.55,1.59-3.55,3.55s1.59,3.55,3.55,3.55c1.96,0,3.55-1.59,3.55-3.55"/>
        <g>
          <rect class="cls-5" x="125.25" y="102.1" width="97.94" height="14.77"/>
          <g class="cls-2">
            <rect class="cls-7" x="173.97" y="97.82" width="52.68" height="22.44"/>
          </g>
        </g>
        <path class="cls-9" d="m159.9,85.87c0-1.96-1.59-3.55-3.55-3.55-1.96,0-3.55,1.59-3.55,3.55,0,1.96,1.59,3.55,3.55,3.55,1.96,0,3.55-1.59,3.55-3.55"/>
        <path class="cls-9" d="m142.01,85.87c0-1.96-1.59-3.55-3.55-3.55-1.96,0-3.55,1.59-3.55,3.55s1.59,3.55,3.55,3.55c1.96,0,3.55-1.59,3.55-3.55"/>
        <path class="cls-6" d="m192.11,82.32c-1.96,0-3.55,1.59-3.55,3.55,0,1.96,1.59,3.55,3.55,3.55,1.96,0,3.55-1.59,3.55-3.55s-1.59-3.55-3.55-3.55"/>
        <path class="cls-6" d="m209.99,82.32c-1.96,0-3.55,1.59-3.55,3.55,0,1.96,1.59,3.55,3.55,3.55,1.96,0,3.55-1.59,3.55-3.55,0-1.96-1.59-3.55-3.55-3.55"/>
        <g>
          <circle class="cls-5" cx="174.22" cy="85.8" r="6.38"/>
          <g class="cls-1">
            <rect class="cls-7" x="173.99" y="75.05" width="11.39" height="21.16"/>
          </g>
        </g>
      </g>
      <circle class="cls-8" cx="288.97" cy="342.31" r="10.49"/>
    </g>
  </g>
</svg>