<?xml version="1.0" encoding="UTF-8"?>
<svg id="Capa_2" data-name="Capa 2" xmlns="http://www.w3.org/2000/svg" xmlns:xlink="http://www.w3.org/1999/xlink" viewBox="0 0 196.96 198.7">
  <defs>
    <style>
      .cls-1, .cls-2, .cls-3, .cls-4, .cls-5, .cls-6, .cls-7, .cls-8, .cls-9, .cls-10, .cls-11, .cls-12, .cls-13, .cls-14, .cls-15, .cls-16 {
        fill: none;
      }

      .cls-2 {
        stroke: #c18a00;
        stroke-width: 2.34px;
      }

      .cls-2, .cls-17, .cls-12, .cls-13, .cls-18, .cls-15 {
        stroke-miterlimit: 10;
      }

      .cls-3 {
        clip-path: url(#clippath-8);
      }

      .cls-4 {
        clip-path: url(#clippath-7);
      }

      .cls-5 {
        clip-path: url(#clippath-6);
      }

      .cls-6 {
        clip-path: url(#clippath-9);
      }

      .cls-7 {
        clip-path: url(#clippath-5);
      }

      .cls-8 {
        clip-path: url(#clippath-3);
      }

      .cls-9 {
        clip-path: url(#clippath-4);
      }

      .cls-10 {
        clip-path: url(#clippath-2);
      }

      .cls-11 {
        clip-path: url(#clippath-1);
      }

      .cls-17, .cls-19 {
        fill: #f2f2f2;
      }

      .cls-17, .cls-12 {
        stroke: #686868;
        stroke-width: 5px;
      }

      .cls-20 {
        fill: #fafafa;
      }

      .cls-13 {
        stroke: #b51a19;
        stroke-width: .94px;
      }

      .cls-14 {
        clip-path: url(#clippath-10);
      }

      .cls-18 {
        fill: #3e6d15;
        stroke-width: 4.55px;
      }

      .cls-18, .cls-15 {
        stroke: #fff;
      }

      .cls-15 {
        stroke-width: 7px;
      }

      .cls-16 {
        clip-path: url(#clippath);
      }
    </style>
    <clipPath id="clippath">
      <rect class="cls-17" x="35.3" y="11.69" width="124.31" height="175.62" rx="9.31" ry="9.31" transform="translate(-17.72 21.18) rotate(-11.38)"/>
    </clipPath>
    <clipPath id="clippath-1">
      <path class="cls-1" d="m17.61,60v110.91h163.16V60H17.61Zm9.95,10.44l-.78-.52,2.4-3.61.78.52-2.4,3.61Zm41.21,27.4l-.78-.52,2.4-3.61.78.52-2.4,3.61Zm41.75,27.76l-.78-.52,2.4-3.61.78.52-2.4,3.61Z"/>
    </clipPath>
    <clipPath id="clippath-2">
      <path class="cls-1" d="m11.11,25.7v112.7h165.84V25.7H11.11Zm50.88,37.65l-.78-.52,2.4-3.61.78.52-2.4,3.61Z"/>
    </clipPath>
    <clipPath id="clippath-3">
      <path class="cls-1" d="m35.81,147.44v46.66h67.51v-46.66H35.81Zm9.88,9.22l-1.95-1.3,1.63-2.44,1.95,1.3-1.63,2.44Zm41.57,27.64l-1.95-1.3,1.63-2.44,1.95,1.3-1.63,2.44Z"/>
    </clipPath>
    <clipPath id="clippath-4">
      <path class="cls-1" d="m89.11,3.27v46.66h67.51V3.27h-67.51Zm39.39,28.84l-1.95-1.3,1.63-2.44,1.95,1.3-1.63,2.44Z"/>
    </clipPath>
    <clipPath id="clippath-5">
      <path class="cls-1" d="m29.84,113.49v73.95h108.54v-73.95H29.84Zm8.8,8.5l-1.95-1.3,1.63-2.44,1.95,1.3-1.63,2.44Zm41.66,27.7l-1.95-1.3,1.63-2.44,1.95,1.3-1.63,2.44Zm41.57,27.64l-1.95-1.3,1.63-2.44,1.95,1.3-1.63,2.44Z"/>
    </clipPath>
    <clipPath id="clippath-6">
      <path class="cls-1" d="m55.25,10.48v73.95h108.54V10.48H55.25Zm38.67,28.37l-1.95-1.3,1.63-2.44,1.95,1.3-1.63,2.44Zm41.66,27.7l-1.95-1.3,1.63-2.44,1.95,1.3-1.63,2.44Z"/>
    </clipPath>
    <clipPath id="clippath-7">
      <path class="cls-1" d="m22.78,78.82v101.47h149.93v-101.47H22.78Zm8.98,8.62l-1.95-1.3,1.63-2.44,1.95,1.3-1.63,2.44Zm41.57,27.64l-1.95-1.3,1.63-2.44,1.95,1.3-1.63,2.44Zm41.57,27.64l-1.95-1.3,1.63-2.44,1.95,1.3-1.63,2.44Zm41.57,27.64l-1.95-1.3,1.63-2.44,1.95,1.3-1.63,2.44Z"/>
    </clipPath>
    <clipPath id="clippath-8">
      <path class="cls-1" d="m21.39,17.68v101.47h149.93V17.68H21.39Zm38.13,28.01l-1.95-1.3,1.63-2.44,1.95,1.3-1.63,2.44Zm41.57,27.64l-1.95-1.3,1.63-2.44,1.95,1.3-1.63,2.44Zm41.57,27.64l-1.95-1.3,1.63-2.44,1.95,1.3-1.63,2.44Z"/>
    </clipPath>
    <clipPath id="clippath-9">
      <path class="cls-1" d="m14.47,43.31v111.04h164.33V43.31H14.47Zm10.42,9.58l-1.95-1.3,1.63-2.44,1.95,1.3-1.63,2.44Zm41.39,27.52l-1.95-1.3,1.63-2.44,1.95,1.3-1.63,2.44Zm41.66,27.7l-1.95-1.3,1.63-2.44,1.95,1.3-1.63,2.44Zm41.57,27.64l-1.95-1.3,1.63-2.44,1.95,1.3-1.63,2.44Z"/>
    </clipPath>
    <clipPath id="clippath-10">
      <path class="cls-1" d="m37.01-.95v105.71h134.62V-.95H37.01Zm18.25,29.73l-.78-.52,2.4-3.61.78.52-2.4,3.61Zm34.37-7l-.78-.52,2.4-3.61.78.52-2.4,3.61Zm6.84,34.4l-.78-.52,2.4-3.61.78.52-2.4,3.61Zm41.75,27.76l-.78-.52,2.4-3.61.78.52-2.4,3.61Z"/>
    </clipPath>
  </defs>
  <g id="Capa_1-2" data-name="Capa 1">
    <g>
      <path class="cls-15" d="m97.46,5.54C45.65,5.54,3.5,47.69,3.5,99.5s42.15,93.96,93.96,93.96,93.96-42.15,93.96-93.96S149.27,5.54,97.46,5.54Z"/>
      <g>
        <rect class="cls-19" x="35.3" y="11.69" width="124.31" height="175.62" rx="9.31" ry="9.31" transform="translate(-17.72 21.18) rotate(-11.38)"/>
        <g class="cls-16">
          <g>
            <g>
              <line class="cls-2" x1="20.26" y1="62.97" x2="178.12" y2="167.94"/>
              <line class="cls-2" x1="13.76" y1="28.68" x2="174.3" y2="135.43"/>
              <line class="cls-13" x1="38.07" y1="149.83" x2="101.06" y2="191.71"/>
              <line class="cls-13" x1="91.36" y1="5.66" x2="154.35" y2="47.54"/>
              <line class="cls-13" x1="32.1" y1="115.88" x2="136.12" y2="185.04"/>
              <line class="cls-13" x1="57.51" y1="12.87" x2="161.53" y2="82.03"/>
              <line class="cls-13" x1="25.04" y1="81.21" x2="170.46" y2="177.9"/>
              <line class="cls-13" x1="23.65" y1="20.07" x2="169.06" y2="116.76"/>
              <line class="cls-13" x1="16.73" y1="45.7" x2="176.54" y2="151.97"/>
              <g>
                <line class="cls-2" x1="108.72" y1="2.02" x2="154.37" y2="32.37"/>
                <line class="cls-2" x1="74.19" y1="8.91" x2="161.68" y2="67.08"/>
                <line class="cls-2" x1="39.66" y1="15.79" x2="168.98" y2="101.78"/>
              </g>
            </g>
            <line class="cls-2" x1="176.35" y1="138.37" x2="146" y2="184.02"/>
            <line class="cls-2" x1="169.07" y1="104.23" x2="112.79" y2="188.88"/>
            <line class="cls-2" x1="161.79" y1="70.09" x2="78.72" y2="195.04"/>
            <line class="cls-2" x1="154.52" y1="35.95" x2="49.55" y2="193.81"/>
            <line class="cls-2" x1="147.24" y1="1.81" x2="40.49" y2="162.36"/>
            <line class="cls-13" x1="178.12" y1="158.35" x2="164.23" y2="179.23"/>
            <line class="cls-13" x1="31.45" y1="18.27" x2="17.57" y2="39.14"/>
            <line class="cls-13" x1="171.69" y1="122.93" x2="129.81" y2="185.92"/>
            <line class="cls-13" x1="66.77" y1="10.61" x2="24.89" y2="73.6"/>
            <line class="cls-13" x1="164.07" y1="89.32" x2="94.9" y2="193.34"/>
            <line class="cls-13" x1="100.78" y1="4.16" x2="31.62" y2="108.18"/>
            <line class="cls-13" x1="157.16" y1="54.62" x2="60.47" y2="200.04"/>
            <line class="cls-13" x1="134.79" y1="-2.3" x2="38.1" y2="143.12"/>
            <line class="cls-13" x1="151.09" y1="18.66" x2="44.83" y2="178.48"/>
            <g>
              <line class="cls-2" x1="49.36" y1="13.97" x2="19.01" y2="59.62"/>
              <line class="cls-2" x1="83.87" y1="6.96" x2="25.7" y2="94.44"/>
              <line class="cls-2" x1="118.37" y1="-.05" x2="32.38" y2="129.27"/>
            </g>
            <line class="cls-2" x1="39.75" y1="165.87" x2="85.4" y2="196.22"/>
            <line class="cls-2" x1="33.25" y1="131.57" x2="117.9" y2="187.85"/>
            <line class="cls-2" x1="26.75" y1="97.27" x2="151.7" y2="180.35"/>
            <g class="cls-11">
              <line class="cls-2" x1="20.26" y1="62.97" x2="178.12" y2="167.94"/>
            </g>
            <g class="cls-10">
              <line class="cls-2" x1="13.76" y1="28.68" x2="174.3" y2="135.43"/>
            </g>
            <line class="cls-13" x1="45.85" y1="184.97" x2="66.72" y2="198.85"/>
            <line class="cls-13" x1="126.9" y1="-.94" x2="147.78" y2="12.94"/>
            <g class="cls-8">
              <line class="cls-13" x1="38.07" y1="149.83" x2="101.06" y2="191.71"/>
            </g>
            <g class="cls-9">
              <line class="cls-13" x1="91.36" y1="5.66" x2="154.35" y2="47.54"/>
            </g>
            <g class="cls-7">
              <line class="cls-13" x1="32.1" y1="115.88" x2="136.12" y2="185.04"/>
            </g>
            <g class="cls-5">
              <line class="cls-13" x1="57.51" y1="12.87" x2="161.53" y2="82.03"/>
            </g>
            <g class="cls-4">
              <line class="cls-13" x1="25.04" y1="81.21" x2="170.46" y2="177.9"/>
            </g>
            <g class="cls-3">
              <line class="cls-13" x1="23.65" y1="20.07" x2="169.06" y2="116.76"/>
            </g>
            <g class="cls-6">
              <line class="cls-13" x1="16.73" y1="45.7" x2="176.54" y2="151.97"/>
            </g>
            <g class="cls-14">
              <g>
                <line class="cls-2" x1="108.72" y1="2.02" x2="154.37" y2="32.37"/>
                <line class="cls-2" x1="74.19" y1="8.91" x2="161.68" y2="67.08"/>
                <line class="cls-2" x1="39.66" y1="15.79" x2="168.98" y2="101.78"/>
              </g>
            </g>
          </g>
        </g>
        <rect class="cls-12" x="35.3" y="11.69" width="124.31" height="175.62" rx="9.31" ry="9.31" transform="translate(-17.72 21.18) rotate(-11.38)"/>
      </g>
      <g>
        <path class="cls-18" d="m154.74,2.28c-22.02,0-39.94,17.91-39.94,39.94s17.91,39.94,39.94,39.94,39.94-17.91,39.94-39.94S176.77,2.28,154.74,2.28Z"/>
        <path class="cls-20" d="m175.32,47.16h-16.71s0,16.71,0,16.71c0,1.97-1.33,3.81-3.27,4.15-2.51.44-4.7-1.49-4.7-3.92v-16.93h-16.71c-1.97,0-3.81-1.33-4.15-3.27-.44-2.51,1.49-4.7,3.92-4.7h16.93v-16.71c0-1.97,1.33-3.81,3.27-4.15,2.51-.44,4.7,1.49,4.7,3.92v16.93h16.93c2.43,0,4.36,2.19,3.92,4.7-.34,1.94-2.18,3.27-4.15,3.27Z"/>
      </g>
    </g>
  </g>
</svg>