<?xml version="1.0" encoding="UTF-8"?>
<svg xmlns="http://www.w3.org/2000/svg" viewBox="0 0 269.74 379.43">
  <defs>
    <style>
      .cls-1 {
        fill: none;
        isolation: isolate;
      }

      .cls-2 {
        fill: #efd30a;
      }

      .cls-3 {
        fill: #686868;
      }

      .cls-4 {
        fill: #b3f4ff;
      }

      .cls-5 {
        fill: #daac4f;
      }

      .cls-6 {
        fill: #1c5788;
      }

      .cls-7 {
        fill: #fff;
        stroke: #a3a3a3;
        stroke-width: 2px;
      }

      .cls-7, .cls-8 {
        stroke-miterlimit: 10;
      }

      .cls-8 {
        fill: #f2f2f2;
        stroke: #686868;
        stroke-width: 4px;
      }

      .cls-9 {
        mix-blend-mode: multiply;
        opacity: .2;
      }
    </style>
  </defs>
  <g class="cls-1">
    <g id="Capa_2" data-name="Capa 2">
      <g id="Capa_1-2" data-name="Capa 1">
        <rect class="cls-8" x="2" y="2" width="265.74" height="375.43" rx="19.9" ry="19.9"/>
        <path class="cls-3" d="m227.8,355.9h16.32c1.15,0,1.73.58,1.73,1.73s-.58,1.73-1.73,1.73h-19.13c-1.28,0-1.98-.64-1.98-1.86,0-.96.38-1.6,1.6-2.62,8.77-7.62,15.93-11.52,15.93-17.85,0-3.78-2.69-6.21-7.42-6.21-2.62,0-4.8.7-6.53,2.05-1.09.83-1.47,1.34-2.05,1.34-.9,0-1.66-.96-1.66-1.79,0-.77.83-1.66,1.73-2.3,2.18-1.73,5.12-2.69,8.7-2.69,6.53,0,11.14,3.07,11.14,9.22,0,8.06-8.13,12.42-16.64,19.26Z"/>
        <rect class="cls-7" x="53.76" y="65.05" width="164.22" height="252.58" rx="5.69" ry="5.69"/>
        <path class="cls-3" d="m33.71,49.45h16.32c1.15,0,1.73.58,1.73,1.73s-.58,1.73-1.73,1.73h-19.13c-1.28,0-1.98-.64-1.98-1.86,0-.96.38-1.6,1.6-2.62,8.77-7.62,15.93-11.52,15.93-17.85,0-3.78-2.69-6.21-7.42-6.21-2.62,0-4.8.7-6.53,2.05-1.09.83-1.47,1.34-2.05,1.34-.9,0-1.66-.96-1.66-1.79,0-.77.83-1.66,1.73-2.3,2.18-1.73,5.12-2.69,8.7-2.69,6.53,0,11.14,3.07,11.14,9.22,0,8.06-8.13,12.42-16.64,19.26Z"/>
        <g>
          <g>
            <circle class="cls-5" cx="234.92" cy="16.28" r="2.22"/>
            <path class="cls-6" d="m234.92,18.41h0c1.42,0,2.57,1.15,2.57,2.57v10.89h-5.14v-10.89c0-1.42,1.15-2.57,2.57-2.57Z"/>
            <polygon class="cls-4" points="237.38 55.85 234.81 59.52 232.24 55.85 232.24 29.67 237.38 29.67 237.38 55.85"/>
            <rect class="cls-5" x="226.12" y="28.73" width="17.62" height="4.45" rx="2.22" ry="2.22"/>
            <path class="cls-9" d="m237.38,55.85v-22.67h4.13c1.23,0,2.22-1,2.22-2.22s-1-2.22-2.22-2.22h-4.02v-7.75c0-1.27-.92-2.32-2.13-2.53,1.02-.21,1.78-1.1,1.78-2.18,0-1.23-1-2.22-2.22-2.22-.04,0-.08,0-.11,0v45.46h0s2.57-3.67,2.57-3.67Z"/>
          </g>
          <g>
            <circle class="cls-5" cx="40.83" cy="364.09" r="2.22"/>
            <path class="cls-6" d="m38.26,348.5h5.14v10.89c0,1.42-1.15,2.57-2.57,2.57h0c-1.42,0-2.57-1.15-2.57-2.57v-10.89h0Z"/>
            <polygon class="cls-4" points="43.28 324.52 40.71 320.85 38.14 324.52 38.14 350.7 43.28 350.7 43.28 324.52"/>
            <rect class="cls-5" x="32.02" y="347.19" width="17.62" height="4.45" rx="2.22" ry="2.22"/>
            <path class="cls-9" d="m43.28,324.52v22.67s4.13,0,4.13,0c1.23,0,2.22,1,2.22,2.22,0,1.23-1,2.22-2.22,2.22h-4.02s0,7.75,0,7.75c0,1.27-.92,2.32-2.13,2.53,1.02.21,1.78,1.1,1.78,2.18s-1,2.22-2.22,2.22c-.04,0-.08,0-.11,0v-45.46h0s2.57,3.67,2.57,3.67Z"/>
          </g>
        </g>
        <circle class="cls-2" cx="135.87" cy="141.42" r="42.73"/>
        <circle class="cls-2" cx="135.87" cy="240.29" r="42.73"/>
      </g>
    </g>
  </g>
</svg>