<?xml version="1.0" encoding="UTF-8"?>
<svg xmlns="http://www.w3.org/2000/svg" viewBox="0 0 269.74 379.43">
  <defs>
    <style>
      .cls-1 {
        fill: none;
        isolation: isolate;
      }

      .cls-2 {
        fill: #efd30a;
      }

      .cls-3 {
        fill: #686868;
      }

      .cls-4 {
        fill: #b3f4ff;
      }

      .cls-5 {
        fill: #daac4f;
      }

      .cls-6 {
        fill: #1c5788;
      }

      .cls-7 {
        fill: #fff;
        stroke: #a3a3a3;
        stroke-width: 2px;
      }

      .cls-7, .cls-8 {
        stroke-miterlimit: 10;
      }

      .cls-8 {
        fill: #f2f2f2;
        stroke: #686868;
        stroke-width: 4px;
      }

      .cls-9 {
        mix-blend-mode: multiply;
        opacity: .2;
      }
    </style>
  </defs>
  <g class="cls-1">
    <g id="Capa_2" data-name="Capa 2">
      <g id="Capa_1-2" data-name="Capa 1">
        <rect class="cls-8" x="2" y="2" width="265.74" height="375.43" rx="19.9" ry="19.9"/>
        <path class="cls-3" d="m227.9,342.08c.96-.13,2.56-.19,3.26-.19,8.83,0,14.53,4.42,14.53,11.39s-5.25,11.2-12.8,11.2c-3.46,0-6.4-.96-8.51-2.5-.96-.7-1.66-1.41-1.66-2.11,0-.77.77-1.79,1.73-1.79.58,0,1.02.38,1.98,1.02,1.92,1.34,4.03,1.98,6.4,1.98,5.25,0,8.9-2.94,8.9-7.68s-4.1-8.26-11.07-8.26c-1.6,0-3.39.13-4.16.13-1.79,0-2.24-.7-2.11-2.5l.7-12.74c.06-1.47.77-2.11,2.24-2.11h14.85c1.15,0,1.73.58,1.73,1.73s-.58,1.73-1.73,1.73h-13.7l-.58,10.69Z"/>
        <rect class="cls-7" x="53.76" y="65.05" width="164.22" height="252.58" rx="5.69" ry="5.69"/>
        <path class="cls-3" d="m33.96,32.81c.96-.13,2.56-.19,3.26-.19,8.83,0,14.53,4.42,14.53,11.39s-5.25,11.2-12.8,11.2c-3.46,0-6.4-.96-8.51-2.5-.96-.7-1.66-1.41-1.66-2.11,0-.77.77-1.79,1.73-1.79.58,0,1.02.38,1.98,1.02,1.92,1.34,4.03,1.98,6.4,1.98,5.25,0,8.9-2.94,8.9-7.68s-4.1-8.26-11.07-8.26c-1.6,0-3.39.13-4.16.13-1.79,0-2.24-.7-2.11-2.5l.7-12.74c.06-1.47.77-2.11,2.24-2.11h14.85c1.15,0,1.73.58,1.73,1.73s-.58,1.73-1.73,1.73h-13.7l-.58,10.69Z"/>
        <g>
          <g>
            <circle class="cls-5" cx="234.77" cy="16.28" r="2.22"/>
            <path class="cls-6" d="m234.77,18.41h0c1.42,0,2.57,1.15,2.57,2.57v10.89h-5.14v-10.89c0-1.42,1.15-2.57,2.57-2.57Z"/>
            <polygon class="cls-4" points="237.22 55.85 234.65 59.52 232.09 55.85 232.09 29.67 237.22 29.67 237.22 55.85"/>
            <rect class="cls-5" x="225.96" y="28.73" width="17.62" height="4.45" rx="2.22" ry="2.22"/>
            <path class="cls-9" d="m237.22,55.85v-22.67h4.13c1.23,0,2.22-1,2.22-2.22s-1-2.22-2.22-2.22h-4.02v-7.75c0-1.27-.92-2.32-2.13-2.53,1.02-.21,1.78-1.1,1.78-2.18,0-1.23-1-2.22-2.22-2.22-.04,0-.08,0-.11,0v45.46h0s2.57-3.67,2.57-3.67Z"/>
          </g>
          <g>
            <circle class="cls-5" cx="40.67" cy="364.09" r="2.22"/>
            <path class="cls-6" d="m38.1,348.5h5.14v10.89c0,1.42-1.15,2.57-2.57,2.57h0c-1.42,0-2.57-1.15-2.57-2.57v-10.89h0Z"/>
            <polygon class="cls-4" points="43.13 324.52 40.56 320.85 37.99 324.52 37.99 350.7 43.13 350.7 43.13 324.52"/>
            <rect class="cls-5" x="31.86" y="347.19" width="17.62" height="4.45" rx="2.22" ry="2.22"/>
            <path class="cls-9" d="m43.13,324.52v22.67s4.13,0,4.13,0c1.23,0,2.22,1,2.22,2.22,0,1.23-1,2.22-2.22,2.22h-4.02s0,7.75,0,7.75c0,1.27-.92,2.32-2.13,2.53,1.02.21,1.78,1.1,1.78,2.18s-1,2.22-2.22,2.22c-.04,0-.08,0-.11,0v-45.46h0s2.57,3.67,2.57,3.67Z"/>
          </g>
        </g>
        <circle class="cls-2" cx="97.58" cy="119.9" r="31.28"/>
        <circle class="cls-2" cx="133.37" cy="187.26" r="31.28"/>
        <circle class="cls-2" cx="168.42" cy="119.9" r="31.28"/>
        <circle class="cls-2" cx="97.58" cy="257.63" r="31.28"/>
        <circle class="cls-2" cx="168.42" cy="257.63" r="31.28"/>
      </g>
    </g>
  </g>
</svg>