<?xml version="1.0" encoding="UTF-8"?>
<svg xmlns="http://www.w3.org/2000/svg" viewBox="0 0 269.74 379.43">
  <defs>
    <style>
      .cls-1 {
        fill: none;
        isolation: isolate;
      }

      .cls-2 {
        fill: #efd30a;
      }

      .cls-3 {
        fill: #686868;
      }

      .cls-4 {
        fill: #b3f4ff;
      }

      .cls-5 {
        fill: #daac4f;
      }

      .cls-6 {
        fill: #1c5788;
      }

      .cls-7 {
        fill: #fff;
        stroke: #a3a3a3;
        stroke-width: 2px;
      }

      .cls-7, .cls-8 {
        stroke-miterlimit: 10;
      }

      .cls-8 {
        fill: #f2f2f2;
        stroke: #686868;
        stroke-width: 4px;
      }

      .cls-9 {
        mix-blend-mode: multiply;
        opacity: .2;
      }
    </style>
  </defs>
  <g class="cls-1">
    <g id="Capa_2" data-name="Capa 2">
      <g id="Capa_1-2" data-name="Capa 1">
        <rect class="cls-8" x="2" y="2" width="265.74" height="375.43" rx="19.9" ry="19.9"/>
        <path class="cls-3" d="m246.91,348.35c0,6.85-4.86,11.65-12.16,11.65-3.78,0-7.04-1.28-9.21-3.58-2.43-2.62-3.52-6.46-3.52-11.26,0-9.02,3.84-16,11.52-20.67,3.78-2.3,7.62-3.26,8.96-3.26s1.66,1.02,1.66,1.79c0,1.22-.96,1.34-2.24,1.66-8.9,2.43-14.33,8.13-15.81,15.94,2.3-2.37,5.31-3.52,9.09-3.52,7.17,0,11.71,4.54,11.71,11.26Zm-3.9,0c0-4.86-3.2-8.26-8.7-8.26-3.26,0-6.08,1.15-8.51,3.46-.06.51-.06,1.09-.06,1.6,0,3.65.77,6.72,2.3,8.64,1.73,2.11,4.35,2.94,6.78,2.94,4.74,0,8.19-3.33,8.19-8.38Z"/>
        <rect class="cls-7" x="53.76" y="65.05" width="164.22" height="252.58" rx="5.69" ry="5.69"/>
        <path class="cls-3" d="m52.97,39.08c0,6.85-4.86,11.65-12.16,11.65-3.78,0-7.04-1.28-9.21-3.58-2.43-2.62-3.52-6.46-3.52-11.26,0-9.02,3.84-16,11.52-20.67,3.78-2.3,7.62-3.26,8.96-3.26s1.66,1.02,1.66,1.79c0,1.22-.96,1.34-2.24,1.66-8.9,2.43-14.33,8.13-15.81,15.94,2.3-2.37,5.31-3.52,9.09-3.52,7.17,0,11.71,4.54,11.71,11.26Zm-3.9,0c0-4.86-3.2-8.26-8.7-8.26-3.26,0-6.08,1.15-8.51,3.46-.06.51-.06,1.09-.06,1.6,0,3.65.77,6.72,2.3,8.64,1.73,2.11,4.35,2.94,6.78,2.94,4.74,0,8.19-3.33,8.19-8.38Z"/>
        <g>
          <g>
            <circle class="cls-5" cx="234.12" cy="16.28" r="2.22"/>
            <path class="cls-6" d="m234.12,18.41h0c1.42,0,2.57,1.15,2.57,2.57v10.89h-5.14v-10.89c0-1.42,1.15-2.57,2.57-2.57Z"/>
            <polygon class="cls-4" points="236.58 55.85 234.01 59.52 231.44 55.85 231.44 29.67 236.58 29.67 236.58 55.85"/>
            <rect class="cls-5" x="225.32" y="28.73" width="17.62" height="4.45" rx="2.22" ry="2.22"/>
            <path class="cls-9" d="m236.58,55.85v-22.67h4.13c1.23,0,2.22-1,2.22-2.22s-1-2.22-2.22-2.22h-4.02v-7.75c0-1.27-.92-2.32-2.13-2.53,1.02-.21,1.78-1.1,1.78-2.18,0-1.23-1-2.22-2.22-2.22-.04,0-.08,0-.11,0v45.46h0s2.57-3.67,2.57-3.67Z"/>
          </g>
          <g>
            <circle class="cls-5" cx="40.03" cy="364.09" r="2.22"/>
            <path class="cls-6" d="m37.46,348.5h5.14v10.89c0,1.42-1.15,2.57-2.57,2.57h0c-1.42,0-2.57-1.15-2.57-2.57v-10.89h0Z"/>
            <polygon class="cls-4" points="42.48 324.52 39.91 320.85 37.34 324.52 37.34 350.7 42.48 350.7 42.48 324.52"/>
            <rect class="cls-5" x="31.22" y="347.19" width="17.62" height="4.45" rx="2.22" ry="2.22"/>
            <path class="cls-9" d="m42.48,324.52v22.67s4.13,0,4.13,0c1.23,0,2.22,1,2.22,2.22,0,1.23-1,2.22-2.22,2.22h-4.02s0,7.75,0,7.75c0,1.27-.92,2.32-2.13,2.53,1.02.21,1.78,1.1,1.78,2.18s-1,2.22-2.22,2.22c-.04,0-.08,0-.11,0v-45.46h0s2.57,3.67,2.57,3.67Z"/>
          </g>
        </g>
        <circle class="cls-2" cx="100.79" cy="121.28" r="30.65"/>
        <circle class="cls-2" cx="100.79" cy="187.29" r="30.65"/>
        <circle class="cls-2" cx="170.21" cy="187.29" r="30.65"/>
        <circle class="cls-2" cx="170.92" cy="119.9" r="31.28"/>
        <circle class="cls-2" cx="100.79" cy="256.25" r="30.65"/>
        <circle class="cls-2" cx="170.21" cy="256.25" r="30.65"/>
      </g>
    </g>
  </g>
</svg>