<?xml version="1.0" encoding="UTF-8"?>
<svg id="Capa_2" data-name="Capa 2" xmlns="http://www.w3.org/2000/svg" viewBox="0 0 177.8 197.55">
  <defs>
    <style>
      .cls-1 {
        fill: #fff;
      }

      .cls-2 {
        fill: #ce1515;
        stroke: #fff;
        stroke-miterlimit: 10;
        stroke-width: 6.64px;
      }
    </style>
  </defs>
  <g id="Capa_1-2" data-name="Capa 1">
    <g>
      <polygon class="cls-2" points="174.48 146.26 174.48 51.29 88.9 3.8 3.32 51.29 3.32 146.26 88.9 193.75 174.48 146.26"/>
      <g>
        <path class="cls-1" d="m22.37,88.36c0-6.7,5.41-11.07,13.28-11.07,3.2,0,6.58.68,9.71,2.64,1.48.92,2.15,1.72,2.15,2.83,0,1.48-1.29,3.38-2.83,3.38-.61,0-1.23-.37-2.46-1.04-2.15-1.17-4.12-1.97-6.58-1.97-4.18,0-6.58,2.09-6.58,4.86,0,7.38,19.3,5.78,19.3,18.87,0,7.44-6.02,11.74-13.96,11.74-4.24,0-8.05-1.29-10.45-3.07-1.41-1.05-2.21-1.97-2.21-3.07,0-1.54,1.41-3.38,2.95-3.38.74,0,1.35.43,2.58,1.23,2.09,1.35,4.24,2.46,7.19,2.46,4.18,0,7.19-2.15,7.19-5.53,0-8.24-19.3-6.39-19.3-18.87Z"/>
        <path class="cls-1" d="m70.45,115.53c0,1.78-1.11,2.71-3.38,2.71s-3.38-.92-3.38-2.71v-31.6h-9.77c-1.78,0-2.71-.98-2.71-3.01s.92-2.95,2.71-2.95h26.31c1.78,0,2.71.98,2.71,2.95s-.92,3.01-2.71,3.01h-9.77v31.6Z"/>
        <path class="cls-1" d="m103.84,77.23c11.74,0,19.43,8.05,19.43,20.72s-7.68,20.72-19.43,20.72-19.43-8.05-19.43-20.72,7.69-20.72,19.43-20.72Zm0,35.6c7.5,0,12.48-5.66,12.48-14.88s-4.98-14.88-12.48-14.88-12.48,5.66-12.48,14.88,4.98,14.88,12.48,14.88Z"/>
        <path class="cls-1" d="m140.67,106.06c-1.6,0-2.95-.12-4.18-.43v9.9c0,1.78-1.11,2.71-3.32,2.71s-3.38-.92-3.38-2.71v-32.71c0-2.09,0-3.69,3.07-4.55,1.66-.49,4.61-.74,7.01-.74,9.71,0,16.72,4.36,16.72,14.08s-7.19,14.45-15.92,14.45Zm-.49-5.78c5.96,0,9.47-3.01,9.47-8.42,0-6.02-4.24-8.48-9.77-8.48-1.04,0-2.21.12-3.38.31v16.23c1.29.25,2.52.37,3.69.37Z"/>
      </g>
    </g>
  </g>
</svg>